<svg width="24" height="24" fill="none" xmlns="http://www.w3.org/2000/svg"><g clip-path="url(#a)" stroke="#F25999" stroke-width="1.5" stroke-linecap="round" stroke-linejoin="round"><path d="M18 9H6a2 2 0 0 1-2-2V5a2 2 0 0 1 2-2h12a2 2 0 0 1 2 2v2a2 2 0 0 1-2 2Zm-6 0v8m1.037 4h-2.074a.963.963 0 0 1-.963-.963v-2.074c0-.532.431-.963.963-.963h2.074c.532 0 .963.431.963.963v2.074a.963.963 0 0 1-.963.963ZM19 16.846V15a2 2 0 0 0-2-2H7a2 2 0 0 0-2 2v1.846M20.037 21h-2.074a.963.963 0 0 1-.963-.963v-2.074c0-.532.431-.963.963-.963h2.074c.532 0 .963.431.963.963v2.074a.963.963 0 0 1-.963.963Zm-14 0H3.963A.963.963 0 0 1 3 20.037v-2.074c0-.532.431-.963.963-.963h2.074c.532 0 .963.431.963.963v2.074a.963.963 0 0 1-.963.963Z"/></g><defs><clipPath id="a"><path fill="#fff" d="M0 0h24v24H0z"/></clipPath></defs></svg>