<svg width="24" height="24" fill="none" xmlns="http://www.w3.org/2000/svg"><g clip-path="url(#a)" stroke="#0EB9EF" stroke-width="1.5" stroke-linecap="round" stroke-linejoin="round"><path d="M11.975 12.025a3.5 3.5 0 1 1-4.95 4.95 3.5 3.5 0 0 1 4.95-4.95ZM16 13h2m-2 3h2M5.779 5.49c-.003 0-.005.002-.005.005s.002.005.005.005.005-.002.005-.005-.002-.005-.005-.005Zm2.543 0c-.003 0-.005.002-.005.005s.003.005.005.005c.003 0 .005-.002.005-.005s-.002-.005-.005-.005Zm2.539 0c-.003 0-.005.002-.005.005s.002.005.005.005.005-.002.005-.005-.002-.005-.005-.005ZM3 8h18"/><path d="M19 3H5a2 2 0 0 0-2 2v14a2 2 0 0 0 2 2h14a2 2 0 0 0 2-2V5a2 2 0 0 0-2-2Z"/><path d="M9.5 11v3.5l-2.471 2.471"/></g><defs><clipPath id="a"><path fill="#fff" d="M0 0h24v24H0z"/></clipPath></defs></svg>