<svg width="24" height="24" fill="none" xmlns="http://www.w3.org/2000/svg"><g clip-path="url(#a)" stroke="#2AAF9F" stroke-width="1.5" stroke-linecap="round" stroke-linejoin="round"><path d="M14 14.9v5.7c.001.773 1.567 1.4 3.5 1.4 1.932 0 3.498-.627 3.499-1.4v-5.7"/><path d="M14.001 17.75c0 .773 1.567 1.4 3.5 1.4 1.932 0 3.499-.627 3.499-1.4M6 11h1m3 0h1m-5 3h1m3 0h1m-5-3h1m3 0h1m-5 6h1m3 0h1m-5 0h1m3 0h1m7-9H3m8 12H5a2 2 0 0 1-2-2V5a2 2 0 0 1 2-2h11a2 2 0 0 1 2 2v6M6 11h1m3 0h1m3 0h1"/><path d="M14.001 14.9c0 .773 1.567 1.4 3.5 1.4 1.932 0 3.498-.627 3.498-1.4 0-.774-1.568-1.4-3.5-1.4-1.931 0-3.498.627-3.499 1.4"/></g><defs><clipPath id="a"><path fill="#fff" d="M0 0h24v24H0z"/></clipPath></defs></svg>