<svg width="24" height="24" fill="none" xmlns="http://www.w3.org/2000/svg"><g clip-path="url(#a)" stroke="#6558FF" stroke-width="1.5" stroke-linecap="round" stroke-linejoin="round"><path d="M20 16h-3.465a1 1 0 0 0-.832.445l-.406.609a1 1 0 0 1-.832.445h-4.93a1 1 0 0 1-.832-.445l-.406-.609A1.002 1.002 0 0 0 7.464 16H4a1 1 0 0 0-1 1v1a2 2 0 0 0 2 2h14a2 2 0 0 0 2-2v-1a1 1 0 0 0-1-1ZM9 13v-2.33M12 13V9.5m3 3.5V7.17"/><path d="M20 16V5.571C20 4.703 19.204 4 18.222 4H5.778C4.796 4 4 4.703 4 5.571V16"/></g><defs><clipPath id="a"><path fill="#fff" d="M0 0h24v24H0z"/></clipPath></defs></svg>