<svg width="24" height="24" fill="none" xmlns="http://www.w3.org/2000/svg"><g clip-path="url(#a)" stroke="#1FB03F" stroke-width="1.5" stroke-linecap="round" stroke-linejoin="round"><path d="M18.5 14h-13A1.5 1.5 0 0 1 4 12.5V5a2 2 0 0 1 2-2h3"/><path d="M19 21H5a1.999 1.999 0 0 1-1.922-2.549l1.064-3.726A1 1 0 0 1 5.104 14h13.792a1 1 0 0 1 .962.725l1.064 3.726A2 2 0 0 1 18.999 21Zm-5-11V5.5m3 4.5V5.5m3 4.5V5.5M13 10h8m-8-6.35V5.5h8V3.65L17 2l-4 1.65ZM10 18h4"/></g><defs><clipPath id="a"><path fill="#fff" d="M0 0h24v24H0z"/></clipPath></defs></svg>