<svg width="95" height="40" fill="none" xmlns="http://www.w3.org/2000/svg"><path fill-rule="evenodd" clip-rule="evenodd" d="M32.279 27.64a8.61 8.61 0 0 0 3.288.624c1.19 0 2.286-.208 3.289-.624a8.18 8.18 0 0 0 2.665-1.74 8.107 8.107 0 0 0 1.784-2.622 8.36 8.36 0 0 0 .644-3.289c0-1.19-.215-2.285-.644-3.288a7.603 7.603 0 0 0-1.763-2.6 8.18 8.18 0 0 0-2.665-1.742c-1.017-.415-2.12-.623-3.31-.623-1.189 0-2.292.208-3.31.623a7.9 7.9 0 0 0-2.664 1.72A7.83 7.83 0 0 0 27.83 16.7c-.415 1.003-.623 2.099-.623 3.288 0 1.175.208 2.271.623 3.288a8.108 8.108 0 0 0 1.784 2.623 8.18 8.18 0 0 0 2.665 1.74Zm5.46-2.45a5.633 5.633 0 0 1-2.172.409 5.58 5.58 0 0 1-2.149-.409 5.592 5.592 0 0 1-1.74-1.182 5.36 5.36 0 0 1-1.14-1.784 6.02 6.02 0 0 1-.408-2.235c0-.802.136-1.54.408-2.214a5.36 5.36 0 0 1 1.14-1.783 5.143 5.143 0 0 1 1.74-1.183 5.576 5.576 0 0 1 2.15-.408c.787 0 1.511.136 2.17.409a4.92 4.92 0 0 1 1.72 1.182 4.944 4.944 0 0 1 1.139 1.783c.272.674.408 1.412.408 2.214a6.02 6.02 0 0 1-.408 2.235 4.944 4.944 0 0 1-1.14 1.784 5.339 5.339 0 0 1-1.719 1.182Zm14.333 3.074c-1.232 0-2.328-.258-3.288-.774a5.805 5.805 0 0 1-2.236-2.128c-.544-.902-.816-1.927-.816-3.073V11.994h2.923V22.14c0 .659.143 1.253.43 1.783.3.53.709.946 1.225 1.247.515.287 1.103.43 1.762.43.673 0 1.26-.143 1.762-.43a3.14 3.14 0 0 0 1.204-1.247c.3-.53.451-1.124.451-1.784V11.995h2.923V22.29c0 1.146-.272 2.17-.816 3.073a5.766 5.766 0 0 1-2.257 2.128c-.946.516-2.035.774-3.267.774Zm8.613-.258V11.994h5.223c1.69 0 3.16.344 4.406 1.032 1.261.673 2.235 1.612 2.923 2.815.688 1.19 1.032 2.572 1.032 4.148 0 1.562-.344 2.952-1.032 4.17-.688 1.203-1.662 2.15-2.923 2.837-1.246.673-2.715 1.01-4.406 1.01h-5.223Zm2.923-2.58h2.365c1.089 0 2.027-.221 2.815-.665a4.842 4.842 0 0 0 1.87-1.892c.444-.816.666-1.776.666-2.88 0-1.117-.222-2.077-.666-2.88a4.697 4.697 0 0 0-1.87-1.87c-.788-.444-1.726-.666-2.815-.666h-2.364v10.854Zm-46.534 2.58V11.994h2.923v13.433h6.857v2.579h-9.78ZM5.417 27.64c.974.416 2.034.624 3.18.624 1.147 0 2.171-.194 3.074-.58.917-.387 1.69-.896 2.321-1.527.63-.644 1.082-1.346 1.354-2.106l-2.622-1.225c-.3.802-.81 1.469-1.526 1.999-.716.516-1.583.774-2.6.774-1.003 0-1.892-.237-2.665-.71a4.907 4.907 0 0 1-1.784-1.955c-.416-.846-.624-1.827-.624-2.945 0-1.117.208-2.092.624-2.923a4.908 4.908 0 0 1 1.784-1.956c.773-.472 1.662-.709 2.665-.709 1.017 0 1.884.265 2.6.795a4.22 4.22 0 0 1 1.526 1.978l2.622-1.225c-.272-.76-.723-1.455-1.354-2.085-.63-.645-1.404-1.16-2.321-1.548-.903-.386-1.927-.58-3.073-.58-1.147 0-2.207.208-3.181.623a7.593 7.593 0 0 0-2.558 1.72A7.764 7.764 0 0 0 1.183 16.7c-.387 1.003-.58 2.099-.58 3.288 0 1.19.2 2.285.601 3.288A8.056 8.056 0 0 0 2.881 25.9a7.933 7.933 0 0 0 2.536 1.74Z" fill="#fff"/><path fill-rule="evenodd" clip-rule="evenodd" d="M86.726 27.862H72.87a9.968 9.968 0 0 0 2.256-2.6l.007-.012c.985-1.657 1.442-3.499 1.442-5.451 0-1.958-.453-3.804-1.453-5.448a9.834 9.834 0 0 0-1.816-2.213h13.421c4.57 0 8.274 3.52 8.274 7.862 0 4.342-3.704 7.862-8.274 7.862Zm-1.471-6.081-3.46 4.424h3.062l3.425-4.418c.463-.607.81-1.136 1.042-1.588.232-.464.386-.889.464-1.275.077-.386.115-.772.115-1.158 0-.783-.187-1.478-.562-2.085a3.96 3.96 0 0 0-1.555-1.456c-.651-.364-1.407-.546-2.267-.546-.85 0-1.606.182-2.268.546a4.04 4.04 0 0 0-1.555 1.49c-.375.628-.563 1.35-.563 2.167 0 .739.166 1.406.497 2.002a3.817 3.817 0 0 0 1.39 1.39c.596.342 1.274.513 2.035.513.068 0 .134-.002.2-.006Zm1.174-2.327a1.773 1.773 0 0 1-.91.232 1.83 1.83 0 0 1-.91-.232 1.769 1.769 0 0 1-.662-.646 1.829 1.829 0 0 1-.249-.96c0-.374.083-.7.249-.976.165-.275.386-.49.661-.645a1.83 1.83 0 0 1 .91-.232c.342 0 .646.078.91.232.276.155.497.37.663.645.165.276.248.602.248.977 0 .364-.083.684-.248.96a1.77 1.77 0 0 1-.662.645Z" fill="#6C69FF"/></svg>