<svg width="136" height="48" fill="none" xmlns="http://www.w3.org/2000/svg"><path fill-rule="evenodd" clip-rule="evenodd" d="M79.267 37.419c-5.439 4.009-13.322 6.148-20.11 6.148-9.518 0-18.086-3.52-24.569-9.375-.509-.46-.053-1.088.559-.73 6.995 4.07 15.645 6.52 24.58 6.52 6.026 0 12.655-1.248 18.75-3.835.921-.39 1.691.603.79 1.272Zm2.262-2.588c-.693-.888-4.596-.42-6.348-.212-.534.066-.615-.399-.134-.733 3.109-2.188 8.21-1.556 8.804-.823.595.737-.154 5.85-3.076 8.291-.448.375-.876.176-.676-.321.656-1.638 2.127-5.31 1.43-6.202Z" fill="#F90"/><path fill-rule="evenodd" clip-rule="evenodd" d="M75.303 18.44v-2.126c0-.322.245-.538.538-.538h9.522c.305 0 .55.22.55.538v1.82c-.004.306-.26.706-.717 1.337l-4.934 7.045c1.833-.045 3.769.228 5.43 1.165.376.212.477.521.506.827v2.27c0 .31-.342.672-.7.484-2.93-1.536-6.821-1.703-10.06.017-.33.179-.677-.18-.677-.49v-2.155c0-.346.004-.937.35-1.462l5.717-8.198h-4.975c-.305 0-.55-.216-.55-.534ZM40.57 31.71h-2.898a.547.547 0 0 1-.517-.493V16.35c0-.297.249-.534.558-.534h2.702a.546.546 0 0 1 .525.498v1.943h.053c.705-1.879 2.03-2.754 3.814-2.754 1.813 0 2.946.875 3.76 2.754.701-1.879 2.294-2.754 4.001-2.754 1.215 0 2.543.5 3.354 1.625.916 1.251.729 3.068.729 4.661l-.004 9.384a.547.547 0 0 1-.558.538h-2.893a.551.551 0 0 1-.522-.538v-7.88c0-.628.057-2.192-.081-2.787-.216-.998-.864-1.28-1.703-1.28-.701 0-1.434.47-1.732 1.219-.297.75-.269 2.004-.269 2.848v7.88a.547.547 0 0 1-.558.538h-2.893a.548.548 0 0 1-.521-.538l-.004-7.88c0-1.658.273-4.099-1.785-4.099-2.082 0-2 2.38-2 4.099v7.88a.547.547 0 0 1-.559.538Zm53.54-16.207c4.299 0 6.625 3.691 6.625 8.385 0 4.534-2.57 8.132-6.624 8.132-4.222 0-6.52-3.691-6.52-8.291 0-4.628 2.327-8.226 6.52-8.226Zm.025 3.035c-2.135 0-2.27 2.91-2.27 4.722 0 1.817-.028 5.696 2.246 5.696 2.244 0 2.35-3.129 2.35-5.036 0-1.255-.052-2.754-.431-3.944-.326-1.034-.974-1.438-1.895-1.438Zm12.174 13.173h-2.885a.55.55 0 0 1-.521-.538l-.004-14.872a.548.548 0 0 1 .558-.485h2.685c.253.013.46.184.517.416v2.273h.053c.811-2.032 1.948-3.002 3.949-3.002 1.299 0 2.566.468 3.381 1.752.758 1.19.758 3.19.758 4.628v9.359a.557.557 0 0 1-.558.469h-2.905a.55.55 0 0 1-.514-.47v-8.075c0-1.625.188-4.005-1.812-4.005-.706 0-1.353.473-1.675 1.19-.408.909-.46 1.813-.46 2.816v8.006a.558.558 0 0 1-.567.538Zm-38.596-7.102c0 1.128.028 2.07-.542 3.072-.46.815-1.194 1.316-2.005 1.316-1.112 0-1.764-.848-1.764-2.098 0-2.47 2.213-2.917 4.31-2.917v.627Zm2.921 7.06a.605.605 0 0 1-.684.07c-.962-.799-1.137-1.17-1.663-1.931-1.589 1.621-2.717 2.106-4.775 2.106-2.44 0-4.335-1.503-4.335-4.514 0-2.351 1.271-3.952 3.088-4.735 1.573-.692 3.77-.814 5.448-1.006v-.375c0-.688.053-1.503-.355-2.098-.35-.534-1.026-.754-1.625-.754-1.105 0-2.087.567-2.327 1.74-.049.26-.24.517-.505.53l-2.807-.302c-.236-.053-.501-.244-.432-.607.644-3.406 3.724-4.433 6.478-4.433 1.41 0 3.251.375 4.364 1.442 1.41 1.316 1.275 3.073 1.275 4.983V26.3c0 1.357.562 1.951 1.092 2.685.183.26.224.574-.012.77-.591.493-1.642 1.41-2.22 1.923l-.005-.008Zm-40.898-7.06c0 1.128.028 2.07-.542 3.072-.46.815-1.19 1.316-2.005 1.316-1.112 0-1.76-.848-1.76-2.098 0-2.47 2.213-2.917 4.307-2.917v.627Zm2.921 7.06a.605.605 0 0 1-.684.07c-.962-.799-1.133-1.17-1.663-1.931-1.589 1.621-2.713 2.106-4.775 2.106-2.436 0-4.335-1.503-4.335-4.514 0-2.351 1.275-3.952 3.088-4.735 1.573-.692 3.77-.814 5.448-1.006v-.375c0-.688.053-1.503-.35-2.098-.355-.534-1.031-.754-1.626-.754-1.104 0-2.09.567-2.33 1.74-.05.26-.241.517-.502.53l-2.811-.302c-.236-.053-.497-.244-.432-.607.648-3.406 3.724-4.433 6.478-4.433 1.41 0 3.251.375 4.364 1.442 1.41 1.316 1.275 3.073 1.275 4.983V26.3c0 1.357.562 1.951 1.092 2.685.187.26.228.574-.008.77-.591.493-1.642 1.41-2.22 1.923l-.009-.008Z" fill="#221F1F"/></svg>