<svg width="136" height="48" fill="none" xmlns="http://www.w3.org/2000/svg"><path d="M15.397 26.163c1.145 0 2.074-.978 2.074-2.183 0-1.206-.929-2.184-2.074-2.184-1.145 0-2.074.978-2.074 2.184 0 1.205.929 2.183 2.074 2.183Z" fill="#05A5CD"/><path fill-rule="evenodd" clip-rule="evenodd" d="M15.397 20.063c-2.77 0-5.362.424-7.255 1.119-1.12.41-1.983.916-2.558 1.433-.585.527-.805 1.006-.805 1.365 0 .373.24.887.866 1.453.613.552 1.53 1.09 2.709 1.515 1.857.668 4.363.992 7.043.992 2.608 0 5.062-.344 6.904-.987 1.222-.426 2.176-.962 2.814-1.515.653-.566.9-1.08.9-1.458 0-.357-.228-.84-.838-1.374-.595-.523-1.485-1.032-2.621-1.444-1.887-.684-4.417-1.099-7.159-1.099Zm-7.582.133c2.022-.742 4.73-1.177 7.582-1.177 2.826 0 5.469.426 7.482 1.155 1.213.44 2.22 1.002 2.934 1.63.7.615 1.194 1.363 1.194 2.176 0 .84-.518 1.62-1.261 2.264-.759.657-1.832 1.247-3.133 1.7-1.973.689-4.539 1.04-7.216 1.04-2.739 0-5.364-.329-7.364-1.048-1.263-.454-2.3-1.05-3.033-1.71-.718-.648-1.213-1.426-1.213-2.246 0-.8.469-1.543 1.152-2.159.695-.625 1.679-1.186 2.876-1.625Z" fill="#05A5D1"/><path fill-rule="evenodd" clip-rule="evenodd" d="M19.135 14.384c-.728.281-1.591.839-2.498 1.67-1.505 1.379-3.11 3.479-4.48 5.98-1.384 2.526-2.33 5.103-2.704 7.176-.221 1.226-.237 2.266-.099 3.048.142.798.425 1.238.72 1.417.308.187.85.225 1.629-.065.76-.282 1.662-.85 2.6-1.713 1.477-1.36 2.995-3.483 4.334-5.928 1.303-2.38 2.247-4.789 2.638-6.79.26-1.328.295-2.466.159-3.324-.14-.878-.439-1.36-.75-1.55-.294-.177-.805-.21-1.55.079Zm-.342-.98c.856-.332 1.718-.409 2.386-.003.691.42 1.075 1.282 1.233 2.282.162 1.02.111 2.293-.165 3.707-.42 2.143-1.413 4.659-2.75 7.1-1.369 2.498-2.95 4.729-4.542 6.194-1.004.924-2.012 1.573-2.922 1.911-.891.332-1.779.395-2.454-.015-.659-.4-1.035-1.199-1.2-2.13-.168-.946-.137-2.123.1-3.435.399-2.214 1.393-4.901 2.818-7.503 1.412-2.577 3.083-4.775 4.689-6.246.968-.887 1.933-1.525 2.807-1.863Z" fill="#05A5CD"/><path fill-rule="evenodd" clip-rule="evenodd" d="M11.709 14.427c-.792-.312-1.339-.28-1.65-.09-.293.178-.575.629-.71 1.452-.131.804-.103 1.87.127 3.112.384 2.062 1.31 4.575 2.684 7.073 1.387 2.524 3.035 4.674 4.555 6.05.898.815 1.746 1.349 2.459 1.613.727.27 1.23.23 1.525.05.307-.187.61-.663.76-1.517.147-.836.13-1.941-.111-3.227-.381-2.027-1.37-4.473-2.714-6.915-1.307-2.377-2.819-4.44-4.27-5.797-.962-.9-1.881-1.5-2.655-1.805Zm.347-.979c.92.362 1.942 1.044 2.967 2.002 1.554 1.453 3.128 3.616 4.47 6.055C20.865 24 21.91 26.557 22.32 28.74c.259 1.378.29 2.622.114 3.62-.173.98-.564 1.82-1.239 2.231-.658.401-1.503.345-2.351.031-.863-.32-1.816-.935-2.777-1.806-1.623-1.47-3.338-3.72-4.767-6.318-1.416-2.575-2.39-5.197-2.798-7.397-.246-1.325-.289-2.524-.13-3.49.154-.947.521-1.77 1.19-2.178m2.493.015c-.902-.355-1.804-.436-2.494-.015l2.494.015Z" fill="#05A5D1"/><path d="M129.883 23.852a3.207 3.207 0 0 0-.246-1.053 2.408 2.408 0 0 0-.544-.849 2.288 2.288 0 0 0-.806-.572 2.298 2.298 0 0 0-1.018-.222 2.45 2.45 0 0 0-1.052.222 2.325 2.325 0 0 0-.789.572 2.768 2.768 0 0 0-.526.868c-.129.32-.205.665-.228 1.034h5.209Zm1.438 2.66c-.199 1.07-.637 1.877-1.315 2.418-.679.542-1.532.813-2.561.813-.725 0-1.357-.123-1.894-.37a3.743 3.743 0 0 1-1.333-1.034 4.57 4.57 0 0 1-.825-1.588 8.357 8.357 0 0 1-.298-2.013c0-.726.105-1.39.316-1.994a4.91 4.91 0 0 1 .877-1.57 4.16 4.16 0 0 1 1.35-1.034 4.004 4.004 0 0 1 1.719-.369c.807 0 1.473.179 2 .536.537.344.964.788 1.28 1.33.327.54.549 1.132.666 1.772.129.64.182 1.25.158 1.828h-6.787c-.012.419.035.819.14 1.2.105.37.275.702.509.997.233.284.532.511.894.684.363.172.789.258 1.28.258.632 0 1.146-.154 1.544-.461.409-.308.678-.776.807-1.404h1.473Zm-12.418 3.028h-1.596l-3.367-9.547h1.666l2.543 7.959h.035l2.473-7.96h1.561l-3.315 9.548Zm-6.396-11.265h-1.491v-1.92h1.491v1.92Zm-1.491 1.718h1.491v9.547h-1.491v-9.547Zm-3.55 0h1.806v1.385h-1.806v5.927c0 .185.012.333.035.443a.509.509 0 0 0 .175.259.772.772 0 0 0 .334.13c.152.011.345.018.578.018h.684v1.385h-1.14c-.385 0-.719-.025-.999-.074a1.56 1.56 0 0 1-.667-.314c-.164-.148-.286-.357-.368-.628-.082-.27-.123-.628-.123-1.071v-6.075h-1.543v-1.385h1.543V17.13h1.491v2.863Zm-3.457 9.51c-.257.16-.614.24-1.07.24-.386 0-.696-.111-.93-.333-.222-.233-.333-.609-.333-1.126-.409.517-.889.893-1.438 1.126a4.56 4.56 0 0 1-1.754.333c-.41 0-.8-.05-1.175-.148a2.655 2.655 0 0 1-.947-.462 2.294 2.294 0 0 1-.65-.812c-.151-.345-.227-.757-.227-1.237 0-.542.088-.985.263-1.33.175-.345.403-.622.684-.83.292-.223.62-.389.982-.5.374-.11.754-.203 1.14-.276.41-.087.795-.148 1.158-.185.374-.05.701-.11.982-.185.281-.086.503-.203.666-.35.164-.16.246-.388.246-.684 0-.345-.064-.622-.193-.83a1.213 1.213 0 0 0-.474-.481 1.78 1.78 0 0 0-.648-.222 4.502 4.502 0 0 0-.702-.055c-.631 0-1.158.13-1.579.388-.42.246-.648.72-.684 1.422h-1.49c.023-.591.14-1.09.35-1.496.21-.406.491-.732.842-.979a3.375 3.375 0 0 1 1.193-.554 6.15 6.15 0 0 1 1.456-.166c.409 0 .812.03 1.21.092.409.062.777.191 1.105.388.327.185.59.45.789.794.199.345.298.794.298 1.348v4.912c0 .37.018.64.053.813.047.172.187.258.421.258.128 0 .28-.03.456-.092v1.219Zm-2.421-4.894a1.896 1.896 0 0 1-.736.333c-.304.061-.626.116-.965.166-.327.037-.66.086-1 .148a3.33 3.33 0 0 0-.912.258 1.708 1.708 0 0 0-.666.536c-.164.221-.246.529-.246.923 0 .258.047.48.14.665.106.172.234.314.386.424.164.111.351.191.562.24.21.05.432.074.666.074.491 0 .912-.067 1.263-.203a2.85 2.85 0 0 0 .859-.535c.223-.222.386-.456.492-.702.105-.259.157-.499.157-.72v-1.607Zm-18.042-8.254h1.772l6.594 10.692h.036V16.355h1.578V29.54h-1.824L85.16 18.959h-.035v10.58h-1.579V16.356Zm-8.572 3.638h1.807v1.385h-1.807v5.927c0 .185.012.333.035.443a.504.504 0 0 0 .176.259.772.772 0 0 0 .333.13c.152.011.345.018.579.018h.684v1.385h-1.14c-.386 0-.72-.025-1-.074a1.555 1.555 0 0 1-.667-.314c-.163-.148-.286-.357-.368-.628-.082-.27-.123-.628-.123-1.071v-6.075H71.94v-1.385h1.543V17.13h1.491v2.863Zm-5.334 3.065c-.117-.603-.362-1.071-.736-1.403-.374-.333-.877-.499-1.509-.499-.537 0-.988.105-1.35.314-.363.21-.655.486-.877.83-.21.346-.363.746-.456 1.201a6.66 6.66 0 0 0-.14 1.385c0 .443.046.874.14 1.293.105.418.263.794.473 1.126.21.32.486.579.825.776.339.197.742.295 1.21.295.737 0 1.31-.203 1.719-.61.42-.405.678-.978.772-1.716h1.525c-.163 1.181-.584 2.092-1.262 2.732-.667.64-1.579.96-2.737.96-.69 0-1.303-.116-1.841-.35a3.66 3.66 0 0 1-1.333-.997 4.61 4.61 0 0 1-.807-1.533 7.055 7.055 0 0 1-.263-1.976c0-.714.088-1.379.263-1.994.175-.628.439-1.17.79-1.625a3.725 3.725 0 0 1 1.35-1.09c.538-.27 1.163-.406 1.877-.406.514 0 .993.068 1.438.203a3.237 3.237 0 0 1 2.052 1.625c.222.407.362.893.42 1.46H69.64Zm-7.543 6.445c-.258.16-.614.24-1.07.24-.386 0-.696-.111-.93-.333-.222-.233-.333-.609-.333-1.126-.41.517-.889.893-1.438 1.126a4.559 4.559 0 0 1-1.754.333c-.41 0-.801-.05-1.175-.148a2.656 2.656 0 0 1-.947-.462 2.295 2.295 0 0 1-.65-.812c-.151-.345-.227-.757-.227-1.237 0-.542.087-.985.263-1.33.175-.345.403-.622.684-.83.292-.223.62-.389.982-.5.374-.11.754-.203 1.14-.276.41-.087.795-.148 1.158-.185.374-.05.701-.11.982-.185.28-.086.503-.203.666-.35.164-.16.246-.388.246-.684 0-.345-.065-.622-.193-.83a1.214 1.214 0 0 0-.474-.481 1.781 1.781 0 0 0-.649-.222 4.495 4.495 0 0 0-.701-.055c-.632 0-1.158.13-1.579.388-.42.246-.649.72-.684 1.422h-1.49c.023-.591.14-1.09.35-1.496.21-.406.491-.732.842-.979.35-.258.748-.443 1.193-.554a6.15 6.15 0 0 1 1.456-.166c.409 0 .812.03 1.21.092.409.062.777.191 1.105.388.327.185.59.45.789.794.199.345.298.794.298 1.348v4.912c0 .37.018.64.053.813.047.172.187.258.42.258.13 0 .281-.03.457-.092v1.219Zm-2.42-4.894a1.9 1.9 0 0 1-.737.333c-.304.061-.626.116-.965.166-.327.037-.66.086-1 .148a3.33 3.33 0 0 0-.912.258 1.709 1.709 0 0 0-.666.536c-.164.221-.246.529-.246.923 0 .258.047.48.14.665.106.172.234.314.386.424.164.111.351.191.562.24.21.05.432.074.666.074.491 0 .912-.067 1.263-.203a2.89 2.89 0 0 0 .86-.535 2.24 2.24 0 0 0 .49-.702 1.91 1.91 0 0 0 .158-.72v-1.607Zm-8.737-.757a3.206 3.206 0 0 0-.246-1.053 2.417 2.417 0 0 0-.543-.849 2.285 2.285 0 0 0-.807-.572 2.297 2.297 0 0 0-1.017-.222c-.386 0-.737.074-1.053.222a2.327 2.327 0 0 0-.789.572 2.775 2.775 0 0 0-.526.868c-.129.32-.205.665-.228 1.034h5.209Zm1.438 2.66c-.199 1.07-.637 1.877-1.315 2.418-.678.542-1.532.813-2.561.813-.725 0-1.356-.123-1.894-.37a3.754 3.754 0 0 1-1.333-1.034 4.579 4.579 0 0 1-.825-1.588 8.312 8.312 0 0 1-.298-2.013c0-.726.105-1.39.316-1.994.21-.603.503-1.126.877-1.57a4.156 4.156 0 0 1 1.35-1.034 4.015 4.015 0 0 1 1.72-.369c.806 0 1.473.179 1.999.536.538.344.964.788 1.28 1.33.328.54.55 1.132.667 1.772a7.7 7.7 0 0 1 .157 1.828h-6.787c-.012.419.035.819.14 1.2.105.37.275.702.509.997.234.284.532.511.894.684.363.172.79.258 1.28.258.632 0 1.146-.154 1.544-.461.41-.308.678-.776.807-1.404h1.473ZM32.882 16.355h5.893c1.193 0 2.123.308 2.789.923.678.616 1.017 1.459 1.017 2.53 0 .8-.175 1.502-.526 2.105-.339.603-.889 1.016-1.648 1.237v.037c.362.074.654.197.876.37.234.172.416.381.544.628.14.233.24.498.298.794.07.295.123.603.158.923.023.32.041.646.053.979.011.332.04.658.087.978.047.32.111.628.193.923.094.284.228.536.404.758h-1.86a1.19 1.19 0 0 1-.245-.554 7.278 7.278 0 0 1-.07-.776c-.012-.295-.023-.61-.035-.942a6.759 6.759 0 0 0-.105-.978 9.402 9.402 0 0 0-.176-.905 2.096 2.096 0 0 0-.333-.757 1.556 1.556 0 0 0-.596-.517c-.246-.136-.573-.204-.983-.204h-4.069v5.633h-1.666V16.355Zm5.14 6.075c.385 0 .753-.03 1.104-.092.35-.062.655-.179.912-.351.27-.185.48-.425.632-.72.163-.308.245-.702.245-1.182 0-.665-.175-1.206-.526-1.625-.35-.419-.918-.628-1.701-.628h-4.14v4.598h3.473Z" fill="#05A5D1"/></svg>