<svg width="136" height="48" fill="none" xmlns="http://www.w3.org/2000/svg"><path d="M124.404 12.372c0-.094-.026-.161-.078-.205-.059-.047-.16-.072-.301-.072h-.202v.557h.244c.226 0 .337-.093.337-.28Zm.315 1.163h-.278l-.177-.393c-.09-.196-.186-.295-.291-.295h-.15v.688h-.229v-1.636h.459c.204 0 .357.044.462.137a.39.39 0 0 1 .134.308.4.4 0 0 1-.11.286.545.545 0 0 1-.304.161v.007c.091.022.181.122.27.302l.214.436v-.001Zm.508-.802c0-.322-.109-.594-.327-.81a1.104 1.104 0 0 0-.803-.323c-.325 0-.596.108-.811.326a1.11 1.11 0 0 0-.321.807c0 .326.111.599.332.816.218.218.486.325.8.325.313 0 .581-.108.801-.328.22-.217.329-.489.329-.813Zm.155-.007c0 .361-.124.664-.373.908a1.252 1.252 0 0 1-.918.369c-.367 0-.672-.121-.914-.358a1.223 1.223 0 0 1-.363-.91c0-.358.123-.659.369-.907a1.25 1.25 0 0 1 .919-.37c.359 0 .66.118.904.353.251.242.376.546.376.915Zm-34.86 4.562h-.79V12.75c0-.358.023-.795.065-1.31h-.017c-.075.302-.142.52-.202.655l-2.298 5.193h-.385l-2.302-5.156a3.779 3.779 0 0 1-.201-.692h-.017c.024.271.037.71.037 1.319v4.53h-.762V10.53h1.043l2.067 4.713c.156.355.257.625.306.809h.032c.135-.37.242-.647.323-.829l2.111-4.693h.99v6.758Zm2.432 0h-.768v-4.826h.768v4.826Zm.133-6.556c0 .142-.05.261-.15.359a.488.488 0 0 1-.357.146.496.496 0 0 1-.355-.141.482.482 0 0 1-.146-.364.48.48 0 0 1 .146-.355.487.487 0 0 1 .355-.143c.14 0 .26.047.358.143a.478.478 0 0 1 .149.355Zm4.668 6.333c-.369.227-.81.34-1.318.34-.69 0-1.245-.23-1.67-.689-.411-.445-.619-1.02-.619-1.725 0-.79.226-1.43.68-1.916.452-.488 1.06-.73 1.825-.73.417 0 .788.082 1.113.244v.793a1.948 1.948 0 0 0-1.146-.378c-.49 0-.889.172-1.198.514-.322.35-.485.819-.485 1.404 0 .561.149 1.005.445 1.334.296.326.691.49 1.19.49.42 0 .814-.14 1.183-.415v.734Zm3.675-3.82c-.136-.105-.331-.156-.588-.156-.313 0-.576.14-.789.424-.242.317-.362.755-.362 1.314v2.46h-.77v-4.825h.77v.995h.019c.113-.352.287-.623.521-.816a1.15 1.15 0 0 1 .737-.263c.205 0 .357.022.462.066v.8Zm4.291 1.638c0-.617-.139-1.09-.417-1.413-.27-.311-.647-.467-1.132-.467-.479 0-.863.158-1.15.473-.304.336-.456.81-.456 1.426 0 .578.145 1.031.436 1.355.29.325.68.488 1.17.488.506 0 .894-.166 1.159-.495.26-.321.39-.776.39-1.367Zm.79-.027c0 .77-.216 1.387-.648 1.85-.433.465-1.016.698-1.748.698-.722 0-1.297-.233-1.719-.698-.412-.448-.62-1.04-.62-1.775 0-.84.234-1.487.705-1.947.435-.426 1.017-.64 1.746-.64.717 0 1.278.224 1.682.668.4.447.602 1.062.602 1.844Zm3.819 1.141c0 .395-.147.722-.442.983-.322.283-.764.424-1.32.424-.455 0-.855-.096-1.193-.29v-.831a1.93 1.93 0 0 0 1.25.462c.61 0 .916-.225.916-.674a.598.598 0 0 0-.203-.466c-.135-.123-.398-.27-.789-.443-.403-.177-.69-.359-.86-.547-.203-.224-.305-.514-.305-.872 0-.4.159-.734.475-1 .316-.266.723-.4 1.222-.4.382 0 .724.076 1.028.227v.778a1.81 1.81 0 0 0-1.092-.345c-.255 0-.46.064-.612.188a.603.603 0 0 0-.232.487c0 .213.065.38.194.498.114.11.356.245.722.401.411.173.707.351.888.535.235.231.353.526.353.885Zm4.706-1.114c0-.617-.139-1.09-.418-1.413-.269-.311-.647-.467-1.132-.467-.478 0-.862.158-1.151.473-.303.336-.454.81-.454 1.426 0 .578.145 1.031.433 1.355.294.325.684.488 1.172.488.507 0 .894-.166 1.16-.495.26-.321.39-.776.39-1.367Zm.792-.027c0 .77-.219 1.387-.651 1.85-.431.465-1.014.698-1.747.698-.723 0-1.297-.233-1.719-.698-.413-.448-.62-1.04-.62-1.775 0-.84.236-1.487.704-1.947.435-.426 1.018-.64 1.748-.64.717 0 1.277.224 1.68.668.401.447.605 1.062.605 1.844Zm3.393-4.034a1.033 1.033 0 0 0-.512-.127c-.539 0-.806.34-.806 1.023v.744h1.127v.654h-1.127v4.172h-.771v-4.172h-.818v-.654h.818v-.782c0-.532.162-.948.492-1.249.282-.26.628-.39 1.039-.39.238 0 .423.028.558.084v.697Zm3.039 6.418c-.182.104-.424.156-.723.156-.84 0-1.26-.475-1.26-1.424v-2.855h-.825v-.655h.825v-1.178c.246-.078.502-.163.772-.25v1.428h1.211v.655h-1.211v2.723c0 .324.053.555.163.69.112.138.293.206.55.206a.814.814 0 0 0 .498-.155v.658ZM80.631 36.123c0 .378-.134.705-.406.981-.27.276-.6.414-.986.414a1.28 1.28 0 0 1-.96-.414 1.376 1.376 0 0 1-.394-.981c0-.39.13-.717.393-.989.263-.273.584-.408.961-.408.386 0 .715.137.986.413.272.277.406.605.406.984Zm17.243 1.111h-2.512l-9.117-14.123A6.481 6.481 0 0 1 85.693 22h-.075c.065.378.098 1.19.098 2.434v12.801h-2.07V19.516h2.687l8.844 13.9c.352.552.592.947.714 1.184h.05c-.082-.51-.125-1.378-.125-2.605v-12.48h2.058v17.72Zm13.272 0h-9.361V19.516h8.955v1.877h-6.887v5.894h6.382v1.879h-6.382v6.19h7.293v1.878Zm14.201-15.841h-5.089v15.841h-2.069v-15.84h-5.098v-1.88h12.256v1.88ZM67.619 35.36h-.612v1.907h-.25V35.36h-.613v-.227h1.475v.227Zm2.504 1.907h-.248v-1.433c0-.113.008-.252.02-.415a1.466 1.466 0 0 1-.066.209l-.724 1.639h-.122l-.726-1.627a1.178 1.178 0 0 1-.066-.22h-.008c.008.085.011.224.011.417v1.43h-.238v-2.134h.329l.652 1.489c.05.112.08.198.096.256h.01a6.59 6.59 0 0 1 .103-.263l.665-1.482h.314v2.133h-.002Z" fill="#000"/><path d="M34.458 16.132c2.474 7.588 3.411 21.124 10.645 21.124.55 0 1.107-.054 1.665-.16-6.575-1.538-7.355-14.928-11.367-21.861a31.11 31.11 0 0 0-.943.897Z" fill="url(#a)"/><path d="M35.4 15.235c4.014 6.934 4.793 20.323 11.368 21.86a10.245 10.245 0 0 0 1.554-.42c-5.903-2.901-7.534-15.903-12.091-22.162-.276.23-.553.472-.83.722Z" fill="url(#b)"/><path d="M41.182 11.111a8.94 8.94 0 0 0-1.666.16c-1.464.277-2.951.91-4.45 1.866.41.406.799.87 1.165 1.376 1.525-1.27 3.04-2.207 4.548-2.77a9.962 9.962 0 0 1 1.697-.473 5.21 5.21 0 0 0-1.294-.159Z" fill="#14559A"/><path d="M52.93 34.001a26.562 26.562 0 0 0 1.814-1.595c-2.514-7.553-3.413-21.284-10.698-21.284a8.59 8.59 0 0 0-1.57.146c6.635 1.656 7.485 16.137 10.453 22.733Z" fill="url(#c)"/><path d="M42.476 11.27a5.215 5.215 0 0 0-1.294-.16l2.865.011a8.55 8.55 0 0 0-1.571.148" fill="#3092C4"/><path d="M52.802 35.606a10.809 10.809 0 0 1-.821-.89c-1.226.87-2.447 1.53-3.66 1.96a5.62 5.62 0 0 0 1.365.465c.372.077.757.116 1.162.116 1.361 0 2.437-.162 3.354-.603a6.366 6.366 0 0 1-1.4-1.048Z" fill="#1969BC"/><path d="M40.779 11.744c5.943 3.118 6.46 17.238 11.202 22.971.318-.224.632-.463.947-.714-2.968-6.596-3.817-21.078-10.451-22.732-.567.106-1.132.263-1.698.475Z" fill="url(#d)"/><path d="M36.231 14.513c4.557 6.26 6.188 19.261 12.09 22.162 1.214-.43 2.435-1.09 3.66-1.96-4.742-5.733-5.259-19.853-11.202-22.971-1.51.562-3.024 1.5-4.548 2.769Z" fill="url(#e)"/><path d="M31.543 15.95c-.714 1.62-1.444 3.748-2.326 6.528 1.754-2.48 3.503-4.616 5.241-6.346-.24-.739-.497-1.42-.774-2.027a26.303 26.303 0 0 0-2.141 1.844Z" fill="url(#f)"/><path d="M34.318 13.638c-.21.15-.42.305-.633.467.277.607.533 1.288.773 2.027.316-.31.63-.61.943-.897a12.556 12.556 0 0 0-1.083-1.597Z" fill="#2B74B1"/><path d="M35.066 13.137c-.25.159-.498.326-.749.5.389.481.747 1.017 1.084 1.599.277-.252.555-.494.83-.723-.366-.506-.756-.97-1.165-1.376Z" fill="#125A9E"/><path d="M75.603 10.533c-3.361 13.003-10.381 23.447-16.267 26.08h-.011a9.117 9.117 0 0 1-.318.136c-.015.01-.028.01-.039.015-.03.013-.06.023-.09.035-.015.009-.028.012-.041.017-.05.018-.099.033-.147.052-.021.009-.04.014-.06.021a.749.749 0 0 1-.074.024c-.022.01-.045.016-.07.025-.021.009-.043.013-.063.021-.043.013-.083.023-.126.038-.018 0-.034.01-.053.015l-.085.023c-.02.009-.036.011-.057.016-.03.009-.063.017-.093.024-.04.008-.075.017-.113.024.266.1.543.149.842.149 5.582 0 11.209-10.033 20.52-26.718h-3.656l.001.003Z" fill="url(#g)"/><path d="M28.005 11.639c.004 0 .008-.01.01-.01.004 0 .011 0 .013-.008h.007c.031-.01.06-.023.09-.034.009 0 .013 0 .019-.01.008 0 .015-.008.023-.009.033-.01.066-.023.097-.035h.005c.074-.022.143-.05.214-.075.01 0 .02-.009.032-.009a.97.97 0 0 1 .092-.027c.014-.009.029-.009.042-.014.032-.01.063-.02.093-.027.013 0 .025-.009.035-.01.103-.028.204-.055.307-.08.014 0 .026-.008.042-.009a.594.594 0 0 1 .09-.018c.012-.008.028-.008.043-.013.03-.009.059-.01.09-.017h.022l.186-.034h.038c.03-.01.056-.01.086-.016.017 0 .033-.008.049-.008.027 0 .055-.01.082-.013.015 0 .029 0 .046-.009.065-.008.132-.012.2-.018a6.16 6.16 0 0 0-.593-.03c-6.286 0-14.945 11.698-18.847 26.848h.752a219.686 219.686 0 0 0 3.396-6.33c2.732-10.73 8.296-18.048 13.24-19.987" fill="url(#h)"/><path d="M31.543 15.95a26.143 26.143 0 0 1 2.142-1.845 10.17 10.17 0 0 0-.51-.988c-.576.7-1.101 1.623-1.632 2.832Zm.517-4.223c.41.346.777.821 1.114 1.39.106-.13.213-.251.325-.364a6.304 6.304 0 0 0-1.44-1.026" fill="#0D82CA"/><path d="M14.765 31.626c5.732-11.078 8.447-18.09 13.24-19.988-4.942 1.94-10.508 9.258-13.24 19.988Z" fill="url(#i)"/><path d="M33.498 12.753a5.594 5.594 0 0 0-.324.364c.18.302.347.631.51.989.213-.163.424-.317.633-.467a8.611 8.611 0 0 0-.819-.886Z" fill="#127BCA"/><path d="M17.367 37.905c-.035.01-.07.01-.104.013h-.02c-.03 0-.06.009-.088.009h-.014c-.072.008-.142.008-.211.014h-.022c5.8-.163 8.452-3.076 9.768-7.302 1-3.203 1.821-5.901 2.541-8.166-2.43 3.43-4.87 7.52-7.324 12.1-1.183 2.209-2.983 3.13-4.526 3.328" fill="url(#j)"/><path d="M17.367 37.903c1.543-.197 3.343-1.118 4.526-3.327 2.454-4.58 4.896-8.67 7.323-12.1.883-2.781 1.612-4.91 2.327-6.53-4.838 4.62-9.695 12.302-14.176 21.955" fill="url(#k)"/><path d="M14.765 31.626a219.324 219.324 0 0 1-3.395 6.33h2.187c.289-2.219.7-4.333 1.208-6.329" fill="#05A1E6"/><path d="M29.857 11.16c-.017 0-.03.009-.046.009-.026.009-.054.009-.082.011-.016 0-.032 0-.048.01-.03.008-.058.009-.086.014-.014 0-.027 0-.038.01l-.186.032h-.021a.71.71 0 0 1-.091.018c-.015.009-.03.009-.045.012-.03.009-.06.013-.089.018-.015.009-.027.009-.042.01a9.613 9.613 0 0 0-.306.08c-.011 0-.023.008-.036.01l-.093.027c-.013.009-.028.009-.041.012l-.092.028c-.012 0-.022.009-.033.009-.07.026-.14.053-.213.075l-.097.034c-.014.008-.026.01-.041.016-.031.01-.062.023-.09.034-.012.009-.023.01-.03.014-4.793 1.898-7.509 8.91-13.24 19.988a53.518 53.518 0 0 0-1.209 6.328h.307c.864 0 1.108-.009 2.103-.009h.964c.068-.008.139-.008.21-.014h.014c.03 0 .06-.009.088-.009h.02c.033 0 .07-.008.105-.012 4.48-9.653 9.337-17.335 14.175-21.954.532-1.21 1.057-2.133 1.63-2.832-.335-.569-.702-1.045-1.113-1.39 0 0-.011 0-.012-.01a.694.694 0 0 1-.068-.032l-.068-.034a.754.754 0 0 1-.066-.032c-.029-.01-.052-.022-.077-.033l-.061-.027a2.569 2.569 0 0 1-.127-.053c-.019-.009-.036-.013-.054-.02a1.773 1.773 0 0 1-.095-.038c-.015-.01-.033-.01-.05-.017l-.132-.045h-.011c-.05-.017-.1-.03-.152-.044-.012-.009-.022-.009-.035-.01l-.128-.037c-.01 0-.02-.008-.03-.008a4.57 4.57 0 0 0-.318-.07c-.012 0-.023-.01-.034-.01a1.894 1.894 0 0 0-.137-.021c-.012-.01-.018-.01-.028-.01a3.548 3.548 0 0 0-.163-.02h-.03c-.043-.01-.084-.01-.125-.015-.07.01-.136.013-.2.019" fill="url(#l)"/><path d="M62.474 17.732c-1.103 3.543-1.996 6.466-2.773 8.871 3.026-4.176 6.006-9.43 8.844-15.494-3.31 1.043-5.076 3.43-6.07 6.623Z" fill="url(#m)"/><path d="M59.797 36.392a9.412 9.412 0 0 1-.461.221c5.886-2.633 12.906-13.077 16.267-26.08h-.68C67.2 24.371 64.715 33.635 59.796 36.392Z" fill="url(#n)"/><path d="M55.954 35.229c1.28-1.568 2.324-4.233 3.748-8.626-1.643 2.264-3.297 4.21-4.951 5.796 0 .009 0 .009-.01.014.362 1.085.758 2.043 1.21 2.816" fill="#079AE1"/><path d="M55.954 35.229c-.436.534-.897.94-1.41 1.241a5.201 5.201 0 0 1-.343.184 4.948 4.948 0 0 0 2.09.594h.017a.78.78 0 0 1 .142.009h.478c.018 0 .037 0 .054-.01.035 0 .07 0 .106-.008h.053c.036 0 .075-.009.114-.012h.009c.012 0 .024-.01.035-.01.04-.008.083-.012.123-.018h.036c.045-.009.092-.014.138-.023h.022c.093-.018.183-.035.275-.058-.76-.28-1.395-.937-1.943-1.874" fill="#1969BC"/><path d="M45.103 37.257c.55 0 1.107-.054 1.666-.162a10.298 10.298 0 0 0 1.553-.42 5.635 5.635 0 0 0 2.527.582h-5.746Z" fill="#1E5CB3"/><path d="M50.849 37.257c1.36 0 2.437-.162 3.352-.603a4.952 4.952 0 0 0 2.09.594h.017a.79.79 0 0 1 .142.009h.165-5.77.004Z" fill="#1E5CB3"/><path d="M56.618 37.257h.315c.018 0 .036 0 .054-.009.034 0 .07 0 .107-.009h.051c.037 0 .077-.009.115-.012h.01c.01 0 .022-.009.034-.009.04-.009.083-.012.122-.019.014 0 .024 0 .038-.008.045-.009.092-.014.138-.022h.022c.093-.018.183-.036.275-.059.266.099.543.148.842.148l-2.121.01-.002-.011Z" fill="#1D60B5"/><path d="M54.745 32.413v-.008A26.488 26.488 0 0 1 52.931 34c-.316.252-.63.49-.948.714.266.32.536.618.82.89.434.421.896.776 1.4 1.05.115-.058.23-.12.341-.185.515-.3.976-.707 1.412-1.24-.451-.774-.847-1.732-1.208-2.817" fill="#175FAB"/><path d="M72.765 10.533h-3.428c-.185.01-.365.016-.543.027-.084.18-.17.361-.253.543-2.838 6.063-5.818 11.317-8.844 15.494-1.422 4.392-2.467 7.058-3.747 8.626.547.936 1.184 1.595 1.941 1.874.023-.009.04-.009.06-.013h.012c.014 0 .028-.009.042-.009.031-.009.064-.014.095-.024.02-.009.037-.01.057-.016.028-.009.058-.015.085-.022a.168.168 0 0 1 .053-.015l.125-.038a.367.367 0 0 1 .063-.022c.025-.008.049-.015.07-.025.026-.009.052-.014.074-.023.02-.009.04-.014.06-.022.049-.018.098-.033.147-.053.014 0 .027-.012.041-.015.03-.012.06-.022.09-.035.012-.009.025-.01.04-.014.103-.044.21-.088.317-.137h.011a8.96 8.96 0 0 0 .46-.221c4.92-2.757 7.404-12.02 15.127-25.858h-2.157l.002-.002Z" fill="url(#o)"/><path d="M30.058 11.142c.013 0 .024 0 .036.008.03 0 .06 0 .09.01h.029c.054.009.108.013.163.021.01 0 .02 0 .028.009.045.009.091.016.138.023.01 0 .023.009.034.009.106.021.214.043.318.07.01 0 .02.01.029.01.044.01.084.023.128.036.013 0 .023.009.035.01.052.014.1.027.151.044.003 0 .006 0 .012.009.043.013.087.03.132.045.018.009.034.012.05.017l.096.039c.017 0 .035.012.054.018.04.019.084.036.125.053.023.01.041.02.062.027.025.013.05.024.076.033l.068.032.067.034c.548.27 1.052.63 1.52 1.067a4.94 4.94 0 0 1 .538-.491c-1.021-.726-2.178-1.14-3.513-1.14-.154 0-.309.008-.466.02" fill="#7DCBEC"/><path d="M33.498 12.752c.286.267.56.565.82.886.25-.175.498-.343.748-.5a7.893 7.893 0 0 0-1.03-.876 4.828 4.828 0 0 0-.538.49Z" fill="#5EC5ED"/><path d="M30.058 11.141a5.62 5.62 0 0 1 .466-.019c1.335 0 2.491.414 3.512 1.14 1.078-.853 2.38-1.15 4.19-1.15h-8.762c.202 0 .4.011.594.03Z" fill="url(#p)"/><path d="M38.226 11.111c-1.81 0-3.112.298-4.19 1.15.358.254.703.549 1.03.877 1.5-.957 2.985-1.59 4.45-1.867a9.003 9.003 0 0 1 1.666-.16h-2.956Z" fill="url(#q)"/><path d="M59.701 26.605c.779-2.407 1.67-5.329 2.774-8.873.996-3.194 2.759-5.581 6.07-6.623.087-.178.17-.362.254-.543-5.397.325-7.919 3.079-9.188 7.157-2.22 7.12-3.565 11.735-4.86 14.676 1.654-1.586 3.308-3.533 4.95-5.794Z" fill="url(#r)"/><defs><linearGradient id="a" x1="40.613" y1="10.937" x2="40.613" y2="43.78" gradientUnits="userSpaceOnUse"><stop stop-color="#0994DC"/><stop offset=".35" stop-color="#66CEF5"/><stop offset=".846" stop-color="#127BCA"/><stop offset="1" stop-color="#127BCA"/></linearGradient><linearGradient id="b" x1="41.861" y1="10.105" x2="41.861" y2="43.786" gradientUnits="userSpaceOnUse"><stop stop-color="#0E76BC"/><stop offset=".36" stop-color="#36AEE8"/><stop offset=".846" stop-color="#00ADEF"/><stop offset="1" stop-color="#00ADEF"/></linearGradient><linearGradient id="c" x1="48.61" y1="36.5" x2="48.61" y2="9.701" gradientUnits="userSpaceOnUse"><stop stop-color="#1C63B7"/><stop offset=".5" stop-color="#33BDF2"/><stop offset="1" stop-color="#33BDF2" stop-opacity=".42"/></linearGradient><linearGradient id="d" x1="46.854" y1="6.693" x2="46.854" y2="41.662" gradientUnits="userSpaceOnUse"><stop stop-color="#166AB8"/><stop offset=".4" stop-color="#36AEE8"/><stop offset=".846" stop-color="#0798DD"/><stop offset="1" stop-color="#0798DD"/></linearGradient><linearGradient id="e" x1="44.106" y1="6.877" x2="44.106" y2="44.062" gradientUnits="userSpaceOnUse"><stop stop-color="#124379"/><stop offset=".39" stop-color="#1487CB"/><stop offset=".78" stop-color="#165197"/><stop offset="1" stop-color="#165197"/></linearGradient><linearGradient id="f" x1="29.217" y1="18.292" x2="34.458" y2="18.292" gradientUnits="userSpaceOnUse"><stop stop-color="#33BDF2" stop-opacity=".698"/><stop offset="1" stop-color="#1DACD8"/></linearGradient><linearGradient id="g" x1="68.579" y1="35.828" x2="68.579" y2="9.722" gradientUnits="userSpaceOnUse"><stop stop-color="#136AB4"/><stop offset=".6" stop-color="#59CAF5" stop-opacity=".549"/><stop offset="1" stop-color="#59CAF5" stop-opacity=".235"/></linearGradient><linearGradient id="h" x1="10.618" y1="24.529" x2="30.058" y2="24.529" gradientUnits="userSpaceOnUse"><stop stop-color="#05A1E6" stop-opacity=".247"/><stop offset="1" stop-color="#05A1E6"/></linearGradient><linearGradient id="i" x1="21.385" y1="36.486" x2="21.385" y2="9.755" gradientUnits="userSpaceOnUse"><stop stop-color="#318ED5"/><stop offset="1" stop-color="#38A7E4"/></linearGradient><linearGradient id="j" x1="23.062" y1="36.58" x2="23.062" y2="10.596" gradientUnits="userSpaceOnUse"><stop stop-color="#05A1E6"/><stop offset="1" stop-color="#05A1E6" stop-opacity=".549"/></linearGradient><linearGradient id="k" x1="24.455" y1="37.905" x2="24.455" y2="15.949" gradientUnits="userSpaceOnUse"><stop stop-color="#1959A6"/><stop offset=".5" stop-color="#05A1E6"/><stop offset=".918" stop-color="#7EC5EA"/><stop offset="1" stop-color="#7EC5EA"/></linearGradient><linearGradient id="l" x1="25.294" y1="36.503" x2="21.084" y2="12.7" gradientUnits="userSpaceOnUse"><stop stop-color="#165096"/><stop offset="1" stop-color="#0D82CA"/></linearGradient><linearGradient id="m" x1="64.123" y1="23.039" x2="64.123" y2="10.598" gradientUnits="userSpaceOnUse"><stop stop-color="#05A1E6"/><stop offset=".874" stop-color="#0495D6"/><stop offset="1" stop-color="#0495D6"/></linearGradient><linearGradient id="n" x1="69.953" y1="9.448" x2="64.879" y2="38.132" gradientUnits="userSpaceOnUse"><stop stop-color="#38A7E4" stop-opacity=".329"/><stop offset=".962" stop-color="#0E88D3"/><stop offset="1" stop-color="#0E88D3"/></linearGradient><linearGradient id="o" x1="65.438" y1="10.455" x2="65.438" y2="37.597" gradientUnits="userSpaceOnUse"><stop stop-color="#168CD4"/><stop offset=".5" stop-color="#1C87CC"/><stop offset="1" stop-color="#154B8D"/></linearGradient><linearGradient id="p" x1="30.925" y1="9.897" x2="37.164" y2="12.476" gradientUnits="userSpaceOnUse"><stop stop-color="#97D6EE"/><stop offset=".703" stop-color="#55C1EA"/><stop offset="1" stop-color="#55C1EA"/></linearGradient><linearGradient id="q" x1="34.529" y1="13.01" x2="39.457" y2="10.783" gradientUnits="userSpaceOnUse"><stop stop-color="#7ACCEC"/><stop offset="1" stop-color="#3FB7ED"/></linearGradient><linearGradient id="r" x1="61.775" y1="11.956" x2="61.775" y2="38.503" gradientUnits="userSpaceOnUse"><stop stop-color="#1DA7E7"/><stop offset="1" stop-color="#37ABE7" stop-opacity="0"/></linearGradient></defs></svg>