<svg width="136" height="48" fill="none" xmlns="http://www.w3.org/2000/svg"><path d="m59.85 31.684-5.03-14.382c-.059-.209-.146-.448-.146-.687 0-.628.523-1.226 1.25-1.226.64 0 1.047.418 1.25 1.046l4.159 12.409 4.186-12.439c.204-.598.582-1.016 1.222-1.016h.116c.669 0 1.076.418 1.28 1.016l4.157 12.439 4.216-12.469c.146-.538.524-.986 1.192-.986.698 0 1.222.568 1.222 1.196 0 .239-.088.478-.146.687l-5.06 14.412c-.26.748-.755 1.137-1.337 1.137h-.087c-.64 0-1.134-.39-1.337-1.137l-4.13-12.229-4.157 12.23c-.233.747-.698 1.136-1.337 1.136h-.059c-.668 0-1.163-.39-1.424-1.137Zm36.636-15.07c0-.687.552-1.285 1.22-1.285.699 0 1.251.568 1.251 1.286v2.93c1.221-2.84 3.925-4.186 5.699-4.186.727 0 1.221.568 1.221 1.286 0 .687-.436 1.195-1.105 1.285-3.198.389-5.844 2.87-5.844 7.774v5.771c0 .688-.523 1.286-1.221 1.286-.698 0-1.25-.568-1.25-1.286l.029-14.86Zm17.3 16.356c-4.478 0-8.112-3.558-8.112-8.79v-.06c0-4.874 3.314-8.791 7.792-8.791 4.798 0 7.531 4.066 7.531 8.551 0 .688-.553 1.167-1.134 1.167h-11.747c.349 3.647 2.82 5.71 5.728 5.71 2.006 0 3.489-.807 4.681-1.973.175-.15.407-.299.698-.299.582 0 1.076.479 1.076 1.076 0 .3-.116.599-.378.808-1.541 1.584-3.373 2.601-6.135 2.601Zm4.826-9.777c-.261-3.08-1.948-5.741-5.175-5.741-2.82 0-4.972 2.452-5.263 5.74h10.438Zm-39.63 4.485v-.06c0-3.588 2.878-5.502 7.065-5.502 2.123 0 3.606.3 5.088.718v-.598c0-3.05-1.831-4.635-4.913-4.635-1.658 0-2.617.21-3.838.778-.146.06-.32.09-.436.09-.582 0-1.076-.509-1.076-1.077 0-.538.232-.837.668-1.046 1.629-.718 2.85-.957 4.972-.957 2.326 0 4.13.628 5.35 1.883 1.134 1.137 1.687 2.781 1.687 4.964v9.389c0 .717-.524 1.255-1.192 1.255-.698 0-1.163-.538-1.163-1.196V30.07C90.03 31.625 88.112 33 85.204 33c-3.111-.03-6.222-1.854-6.222-5.322Zm12.183-1.316v-1.644A16.978 16.978 0 0 0 86.309 24c-3.111 0-4.827 1.375-4.827 3.528v.06c0 2.123 1.92 3.379 4.158 3.379 3.024 0 5.525-1.914 5.525-4.605Zm-76.093-9.927c-.552-1.226-1.89-1.764-3.14-1.196-1.25.568-1.715 2.003-1.134 3.23l5.234 11.72C16.846 32.013 17.718 33 19.347 33c1.744 0 2.5-1.047 3.314-2.81 0 0 4.565-10.256 4.623-10.346.059-.12.204-.449.67-.449a.73.73 0 0 1 .726.748V30.16c0 1.554.843 2.81 2.442 2.81 1.6 0 2.472-1.256 2.472-2.81v-8.193c0-1.585 1.105-2.602 2.617-2.602s2.5 1.077 2.5 2.602v8.193c0 1.554.843 2.81 2.443 2.81 1.599 0 2.471-1.256 2.471-2.81v-8.193c0-1.585 1.105-2.602 2.588-2.602 1.512 0 2.5 1.077 2.5 2.602v8.193c0 1.554.844 2.81 2.443 2.81 1.6 0 2.471-1.256 2.471-2.81v-9.33c0-3.438-2.675-5.83-5.902-5.83-3.228 0-5.234 2.302-5.234 2.302C41.415 15.867 39.932 15 37.431 15c-2.645 0-4.942 2.302-4.942 2.302C31.413 15.867 29.581 15 28.069 15c-2.355 0-4.186 1.047-5.32 3.738l-3.373 8.132-4.304-10.435Zm106.157 1.017c0-1.166.902-2.123 2.036-2.123 1.163 0 2.035.957 2.035 2.093 0 1.166-.901 2.123-2.035 2.123-1.163.03-2.036-.927-2.036-2.093Zm3.693 0c0-.957-.698-1.734-1.657-1.734-.931 0-1.658.777-1.658 1.734 0 .927.698 1.704 1.658 1.704.93 0 1.657-.777 1.657-1.704Zm-2.442-.837c0-.12.087-.24.232-.24h.669c.262 0 .465.06.581.21.117.12.175.269.175.478 0 .329-.145.508-.407.628l.291.389c.029.06.058.09.058.18 0 .119-.117.208-.204.208a.243.243 0 0 1-.203-.12l-.436-.537h-.349v.448c0 .12-.088.21-.204.21-.116 0-.232-.09-.232-.21l.029-1.644Zm.872.747c.203 0 .32-.12.32-.299 0-.18-.117-.299-.349-.299h-.436v.598h.465Z" fill="#696566"/></svg>