<svg width="136" height="48" fill="none" xmlns="http://www.w3.org/2000/svg"><path d="M120.681 25.894a6.456 6.456 0 0 0 2.864-1.265 3.89 3.89 0 0 0 1.063-3.022 4.875 4.875 0 0 0-.721-2.567 4.095 4.095 0 0 0-3.338-2.017h-.69l-1.612-.057h-7.296c-.442 0-.632.184-.632.633v12.784c0 .442.183.632.632.632h1.897c.443 0 .632-.184.632-.633v-4.236h2.32c.511.027.996.23 1.372.576l3.68 3.698c.335.343.786.55 1.265.582h2.826c.442 0 .55-.26.24-.575l-4.502-4.533Zm-.48-2.72h-6.733v-3.223h6.733a1.35 1.35 0 0 1 1.182 1.359v.5a1.358 1.358 0 0 1-1.182 1.365Zm-12.828 4.869H96.922v-2.636h8.339c.443 0 .632-.184.632-.633v-1.536c0-.442-.183-.632-.632-.632h-8.346v-2.63h10.458c.442 0 .632-.184.632-.633V17.6c0-.443-.183-.633-.632-.633H94.336c-.443 0-.632.184-.632.633v12.796c0 .443.183.632.632.632h13.037c.442 0 .632-.183.632-.632V28.67c0-.442-.209-.626-.632-.626Zm-15.977-6.461a4.582 4.582 0 0 0-.714-2.53 4.183 4.183 0 0 0-3.39-2.086h-9.584c-.449 0-.632.184-.632.633v12.784c0 .442.183.632.632.632h2.061c.443 0 .632-.177.632-.633V19.957h5.552c1.182 0 2.332.784 2.332 1.966v8.472c0 .443.184.632.633.632h1.865c.449 0 .632-.183.632-.632l-.019-8.813Zm-17.235 6.379h-9.01l9.03-7.935c.365-.28.595-.703.631-1.163v-1.264c0-.443-.19-.633-.632-.633H61.112c-.443 0-.633.184-.633.633v1.75c0 .443.184.633.633.633h8.377l-8.403 7.884a1.658 1.658 0 0 0-.632 1.163v1.372c0 .443.184.633.633.633h13.055c.443 0 .633-.184.633-.633v-1.814c.012-.443-.171-.626-.614-.626ZM57.546 16.966h-13.05c-.449 0-.632.177-.632.633v1.744c0 .443.177.633.632.633h4.92v10.42c0 .442.183.631.632.631h2.086c.442 0 .632-.183.632-.632V19.97h4.786c.443 0 .632-.184.632-.633V17.6c-.012-.43-.196-.633-.638-.633ZM40.93 28.043H30.5v-2.636h8.339c.442 0 .632-.184.632-.633v-1.536c0-.442-.177-.632-.632-.632h-8.34v-2.63h10.433c.442 0 .632-.184.632-.633V17.6c0-.443-.184-.633-.633-.633H27.92c-.443 0-.632.184-.632.633v12.796c0 .443.183.632.632.632h13.012c.442 0 .632-.183.632-.632V28.67c-.007-.442-.19-.626-.633-.626ZM24.315 16.966H22.35c-.443 0-.632.184-.632.633v4.975h-7.834v-4.976c0-.442-.183-.632-.632-.632h-1.979c-.449 0-.632.184-.632.633V30.4c0 .45.183.633.632.633h1.979c.443 0 .632-.177.632-.633v-5.058h7.84V30.4c0 .443.183.633.632.633h1.967c.442 0 .632-.184.632-.633V17.6c-.013-.43-.196-.633-.639-.633Z" fill="#D50C2D"/></svg>