<svg width="136" height="48" fill="none" xmlns="http://www.w3.org/2000/svg"><path d="m111.498 13.12-5.536-1.286-.988-.396-25.407.198v12.259l31.931.099V13.119Z" fill="#fff"/><path d="M101.118 22.807a2.825 2.825 0 0 0-.297-2.57 3.056 3.056 0 0 0-2.076-1.087l-17.201-.198c-.099 0-.198-.1-.297-.1a.186.186 0 0 1 0-.296c.1-.197.198-.296.396-.296l17.3-.198a6.228 6.228 0 0 0 5.042-3.757l.989-2.57c0-.099.098-.198 0-.297-1.151-5.124-5.74-8.798-10.994-8.798-4.801 0-9.1 3.07-10.657 7.612a5.402 5.402 0 0 0-3.559-.989 5.165 5.165 0 0 0-4.547 4.548 5.384 5.384 0 0 0 .099 1.78c-3.884.107-7.02 3.331-7.02 7.216-.015.365.017.732.1 1.088a.314.314 0 0 0 .296.296h31.734c.198 0 .395-.098.395-.296l.297-1.088Z" fill="#F48120"/><path d="M106.555 11.735h-.494c-.099 0-.198.099-.297.198l-.692 2.372a2.828 2.828 0 0 0 .297 2.57 3.056 3.056 0 0 0 2.076 1.088l3.658.198c.099 0 .198.099.296.099a.185.185 0 0 1 0 .296c-.098.198-.197.297-.395.297l-3.757.197a6.226 6.226 0 0 0-5.041 3.757l-.198.89c-.099.099 0 .297.198.297h13.049a.264.264 0 0 0 .297-.297c.235-.837.367-1.7.395-2.57-.033-5.14-4.252-9.36-9.392-9.392Z" fill="#FAAD3F"/><path d="M117.232 29.53a.894.894 0 0 1-.89-.89c0-.488.402-.89.89-.89.489 0 .89.402.89.89v.004a.89.89 0 0 1-.886.886h-.004Zm0-1.582a.696.696 0 0 0-.692.692c0 .38.313.692.692.692.38 0 .692-.312.692-.692v-.017a.678.678 0 0 0-.675-.675h-.017Zm.396 1.186h-.198l-.198-.296h-.198v.296h-.197v-.89h.494a.264.264 0 0 1 .297.297c0 .099-.099.198-.198.297l.198.296Zm-.297-.494c.099 0 .099 0 .099-.099v-.002a.097.097 0 0 0-.097-.097h-.299v.297h.297v-.099Zm-88.677-.89h2.175v5.932h3.756v1.878h-5.931v-7.81Zm8.205 3.856c0-2.227 1.832-4.058 4.058-4.058.065 0 .129.002.193.005.06-.003.12-.004.18-.004 2.179 0 3.973 1.794 3.973 3.974v.083c0 2.226-1.833 4.058-4.059 4.058-.064 0-.129-.002-.193-.005l-.12.002c-2.212 0-4.032-1.82-4.032-4.033v-.022Zm6.228 0a2.041 2.041 0 0 0-1.977-2.175 2.087 2.087 0 0 0-1.977 2.076c0 1.102.877 2.023 1.977 2.076 1.186.198 1.977-.79 1.977-1.977Zm4.844.494v-4.35h2.175v4.35c0 1.088.593 1.68 1.483 1.68a1.39 1.39 0 0 0 1.483-1.582V27.75h2.175v4.35c0 2.57-1.483 3.658-3.658 3.658-2.273-.099-3.658-1.186-3.658-3.658Zm10.578-4.35h3.065c2.768 0 4.449 1.582 4.449 3.856s-1.68 3.954-4.449 3.954h-2.966v-7.81h-.099Zm3.065 5.833a1.996 1.996 0 0 0 2.175-1.977 1.996 1.996 0 0 0-2.175-1.977h-.89v3.954h.89Zm7.513-5.833h6.229v1.879h-4.054v1.285h3.658v1.78h-3.658v2.866h-2.175v-7.81Zm9.293 0h2.175v5.932h3.757v1.878H78.38v-7.81Zm11.567-.099h2.175l3.361 7.91H93.11l-.593-1.385h-3.064l-.594 1.384h-2.273l3.36-7.909Zm1.977 4.845-.89-2.175-.89 2.174h1.78Zm6.327-4.746h3.658a3.38 3.38 0 0 1 2.57.89 2.594 2.594 0 0 1-.889 4.152l1.878 2.768h-2.472l-1.581-2.372h-.989v2.372h-2.175v-7.81Zm3.559 3.757c.692 0 1.186-.396 1.186-.89 0-.593-.494-.89-1.186-.89h-1.384v1.879h1.384v-.1Zm6.426-3.757h6.327v1.78h-4.152v1.186h3.757v1.78h-3.757v1.186h4.251v1.878h-6.426v-7.81Zm-84.328 4.844a1.956 1.956 0 0 1-1.779 1.187 2.087 2.087 0 0 1-1.977-2.076c0-1.103.877-2.023 1.977-2.076a2.077 2.077 0 0 1 1.878 1.285h2.274a4.1 4.1 0 0 0-4.152-3.263l-.133-.002a4.136 4.136 0 0 0-4.118 4.056v.022c0 2.213 1.82 4.033 4.032 4.033l.12-.002a4.28 4.28 0 0 0 4.152-3.164H23.91Z" fill="#404041"/></svg>