<svg width="136" height="48" fill="none" xmlns="http://www.w3.org/2000/svg"><path fill-rule="evenodd" clip-rule="evenodd" d="M26.76 8.195c7.834 1.065 13.854 7.704 13.854 15.736 0 8.033-6.02 14.753-13.855 15.737v-3.033h1.072c2.31 0 4.289-1.803 4.289-4.262v-5.655c0-1.967-.99-3.278-2.804-4.016-3.546-1.393-5.69-1.967-5.69-3.115v-4.262c.082-1.475 2.143-1.311 2.143 0v4.262h6.433v-4.262c0-1.557-1.154-4.262-4.37-4.262h-.908V8.031l-.165.164Zm-4.29 31.473c-7.834-1.066-13.854-7.704-13.854-15.737 0-8.032 6.02-14.67 13.855-15.736v3.032h-.825c-2.969 0-4.536 2.131-4.536 4.262v5.41c0 1.639 1.072 3.278 2.64 3.934.989.41 4.453 1.967 5.442 2.459.33.164.495.492.495.901v4.262c0 1.23-2.062 1.476-2.144 0v-4.262H17.11v4.262c0 2.46 1.98 4.262 4.371 4.262h.99v3.033-.082Z" fill="#FF1A00"/><path d="M54.057 20.571c0 .574 0 .983-.083 1.311-.082.328-.082.574-.247.738-.082.164-.247.328-.412.328-.165.082-.413.082-.66.082h-2.64v-6.065c0-.328 0-.656.083-.82a.45.45 0 0 1 .248-.41c.165-.082.33-.082.577-.082h3.051c.33 0 .66 0 .825.082.248.082.412.164.577.41.165.164.33.492.413.902.165.41.247.983.495 1.639h1.32l-.826-4.262H44.82v1.065c.495 0 .825 0 1.072.082.248.082.495.164.578.246.165.164.247.328.247.656.083.246.083.656.083 1.147v12.622c0 .492 0 .82-.083 1.066a5.636 5.636 0 0 1-.247.656c-.165.164-.33.246-.66.328-.248.081-.66.081-1.072.081v.984h7.505v-.983c-.578 0-.99 0-1.32-.083a3.853 3.853 0 0 1-.742-.245c-.165-.164-.248-.328-.33-.656-.083-.246-.083-.656-.083-1.148v-5.819h2.64c.247 0 .494 0 .66.082.164.082.33.164.412.328.082.164.165.41.247.82 0 .328.082.82.082 1.393h1.238v-6.475h-1.238.248Zm11.958 10.573c.165.164.248.41.33.492a.616.616 0 0 1 .082.328c0 .164-.082.246-.247.328-.165.081-.412.081-.742.081v.902h5.938v-.901c-.165 0-.413 0-.578-.083-.165-.081-.412-.163-.577-.41-.247-.163-.495-.491-.742-.9l-3.134-4.755 3.134-3.852c.247-.246.412-.492.66-.655.165-.165.33-.246.494-.328.165-.082.33-.082.578-.082v-.902H67.17v.902c.33 0 .495 0 .66.082.164.082.247.164.164.246 0 .081 0 .163-.082.327a1.715 1.715 0 0 1-.33.492l-1.897 2.623h-.082l-1.567-2.54c-.165-.165-.248-.41-.33-.493-.083-.164-.083-.246-.083-.328 0-.163.083-.245.248-.327.165-.082.412-.082.742-.082v-.902H58.84v.902c.248 0 .412 0 .577.082.165.082.33.164.578.328.165.163.412.491.66.901l2.803 4.262-3.298 4.262c-.33.41-.66.738-.907.902a1.598 1.598 0 0 1-.825.245v.902h4.206v-.901c-.33 0-.578 0-.742-.082-.165-.082-.248-.164-.248-.328s.083-.328.33-.574l2.31-3.279h.082l1.814 3.033-.165.082ZM85.89 19.506c-.165-.738-.247-1.476-.412-2.295-.082-.738-.247-1.476-.247-2.213-.578-.246-1.155-.41-1.732-.574a4.694 4.694 0 0 0-1.485-.246c-.412-.082-.824-.082-1.237-.082-1.732 0-3.216.41-4.37 1.147-1.238.738-2.145 1.804-2.805 3.279-.66 1.393-.99 3.197-.99 5.245 0 2.213.33 4.017.908 5.492.577 1.475 1.484 2.54 2.556 3.36 1.155.738 2.557 1.148 4.206 1.148.578 0 1.155-.082 1.732-.246a5.538 5.538 0 0 0 1.732-.82 5.391 5.391 0 0 0 1.485-1.557c.412-.656.824-1.475 1.154-2.54l-1.237-.329a5.665 5.665 0 0 1-.412 1.066c-.165.41-.33.738-.577 1.065-.248.328-.495.656-.825.902-.33.246-.66.492-1.072.656a3.874 3.874 0 0 1-1.402.246 3.55 3.55 0 0 1-1.815-.492c-.577-.328-1.072-.82-1.567-1.558-.494-.655-.824-1.557-1.072-2.704-.247-1.066-.412-2.46-.412-4.016 0-.492 0-1.066.082-1.722l.248-1.803c.165-.655.33-1.23.577-1.803.248-.574.577-1.065.907-1.557.413-.41.825-.82 1.32-1.066.495-.246 1.154-.41 1.897-.41.66 0 1.237.082 1.65.328.411.164.741.492.989.902.247.41.412.82.577 1.393.165.574.247 1.148.412 1.885l1.32-.245-.083.164Zm10.227 5.655-1.732.41c-.907.164-1.732.41-2.392.737a7.458 7.458 0 0 0-1.814.902c-.66.41-1.072.901-1.402 1.393a4.15 4.15 0 0 0-.412 1.803c0 .574.082 1.066.33 1.476.247.41.494.737.907 1.065.33.246.742.492 1.237.574.412.164.907.164 1.402.164.66 0 1.237-.082 1.731-.246.495-.164.908-.328 1.32-.574.33-.246.66-.492.99-.82h.082c.083.328.248.574.412.82.166.246.413.328.743.492.33.082.66.164 1.072.164.495 0 .907 0 1.237-.082l.99-.246-.165-.82-.33.164-.413.082a.62.62 0 0 1-.577-.41c-.165-.327-.247-.737-.247-1.393v-6.065c0-.902-.165-1.64-.413-2.213-.247-.574-.66-.983-1.072-1.311-.495-.328-.99-.492-1.567-.656-.577-.082-1.237-.164-1.897-.164-.907 0-1.649.082-2.309.246-.66.164-1.154.41-1.567.656-.412.245-.742.573-.907.901-.165.328-.33.656-.33.984 0 .164 0 .328.083.492.082.163.165.245.33.41.165.081.412.163.66.163.412 0 .66-.082.907-.246.164-.164.33-.327.412-.655.165-.41.33-.738.577-1.066.248-.328.495-.492.825-.655.33-.164.742-.246 1.154-.246.495 0 .908.082 1.238.246.33.163.577.491.742.901.165.41.247.902.247 1.557v1.148l-.082-.082Zm0 5.82c-.165.245-.413.409-.66.573a7.274 7.274 0 0 1-.825.492c-.33.164-.66.164-1.072.164-.247 0-.412 0-.742-.082-.248-.082-.495-.164-.66-.328-.247-.164-.412-.41-.577-.738-.165-.328-.248-.738-.248-1.23 0-.491.165-.983.413-1.393.247-.41.66-.737 1.072-.983.412-.328.99-.574 1.484-.738.578-.246 1.155-.41 1.732-.574v4.836h.083Zm5.608-1.23c.082.573.247 1.065.33 1.557l.247 1.557c.33.164.742.246 1.155.41.412.082.907.246 1.402.246.494.082 1.072.082 1.649.082.825 0 1.649-.082 2.309-.328a4.44 4.44 0 0 0 1.65-.82 3.08 3.08 0 0 0 1.072-1.229c.247-.492.33-.983.33-1.475 0-.738-.248-1.476-.825-2.131-.577-.656-1.32-1.23-2.392-1.722-.247-.163-.495-.327-.824-.41l-.99-.491c-.33-.164-.66-.328-.907-.492-.33-.246-.578-.492-.742-.738-.165-.245-.248-.573-.248-.901 0-.328.083-.574.248-.738.164-.246.329-.41.577-.491.247-.164.495-.246.742-.328.247-.082.577-.082.742-.082.495 0 .99.082 1.32.246.33.164.66.41.907.82.247.409.412.9.577 1.556l.907-.163c-.082-.41-.165-.82-.247-1.148-.082-.328-.082-.656-.165-.901-.082-.246-.082-.574-.082-.82a7.23 7.23 0 0 0-1.567-.41 13.77 13.77 0 0 0-1.98-.164c-.907 0-1.649.082-2.226.246-.66.164-1.155.41-1.567.738-.413.328-.66.655-.907 1.065a3.27 3.27 0 0 0-.248 1.23c0 .41.083.82.248 1.23.165.327.329.655.577.983.247.245.495.491.742.655l.907.574c.33.164.66.41 1.072.574.413.246.825.41 1.155.655.33.164.577.328.825.492.247.164.412.328.577.492.165.164.33.41.412.574.083.246.083.41.083.737 0 .246-.083.492-.165.738-.083.246-.248.492-.413.738a2.95 2.95 0 0 1-.824.573c-.33.164-.742.246-1.32.246-.577 0-1.072-.082-1.484-.246-.413-.163-.825-.491-1.155-.983-.33-.41-.577-1.066-.824-1.885l-.908.164.248-.082Zm11.628 3.606h5.773v-.901c-.247 0-.495 0-.66-.083-.165-.081-.33-.163-.412-.245-.083-.164-.165-.328-.165-.574 0-.246-.083-.656 0-1.066v-6.557c.33-.491.742-.901 1.072-1.229.33-.328.742-.656 1.072-.82.413-.164.742-.328 1.155-.328.495 0 .824.083 1.154.328.248.164.495.41.578.738.165.328.247.656.247 1.066l.083 1.229v6.557c0 .246-.083.492-.165.574a.455.455 0 0 1-.413.245c-.165 0-.412.083-.742.083v.901h5.69v-.901c-.412 0-.742 0-.907-.164-.165-.082-.33-.246-.412-.574-.083-.246-.083-.738-.083-1.23v-6.72c0-.41-.082-.82-.247-1.23-.082-.41-.33-.82-.577-1.147a2.462 2.462 0 0 0-1.155-.82c-.495-.246-1.072-.328-1.897-.328-.577 0-1.154.082-1.649.246-.495.164-.99.41-1.485.738-.412.328-.907.737-1.237 1.147h-.082v-8.524l-.33-.164c-.66.328-1.402.574-2.062.82-.659.164-1.402.328-2.061.41v.82c.329 0 .659 0 .824.081.248.082.413.164.495.246.083.082.165.328.247.574 0 .246.083.574.083.983v12.868c0 .41 0 .82-.083 1.066 0 .246-.082.492-.247.574-.082.164-.247.245-.495.245-.247.083-.495.083-.907.083v.983Z" fill="#1F1B20"/></svg>