<svg width="24" height="24" viewBox="0 0 24 24" fill="none" xmlns="http://www.w3.org/2000/svg">
<g clip-path="url(#clip0_2004_2735)">
<path d="M11.9749 12.0251C13.3417 13.392 13.3417 15.608 11.9749 16.9749C10.608 18.3417 8.39197 18.3417 7.02513 16.9749C5.65829 15.608 5.65829 13.392 7.02513 12.0251C8.39197 10.6583 10.608 10.6583 11.9749 12.0251Z" stroke="#0EB9EF" stroke-width="1.5" stroke-linecap="round" stroke-linejoin="round"/>
<path d="M16 13H18" stroke="#0EB9EF" stroke-width="1.5" stroke-linecap="round" stroke-linejoin="round"/>
<path d="M16 16H18" stroke="#0EB9EF" stroke-width="1.5" stroke-linecap="round" stroke-linejoin="round"/>
<path d="M5.77899 5.48999C5.77599 5.48999 5.77399 5.49199 5.77399 5.49499C5.77399 5.49799 5.77599 5.49999 5.77899 5.49999C5.78199 5.49999 5.78399 5.49799 5.78399 5.49499C5.78399 5.49199 5.78199 5.48999 5.77899 5.48999Z" stroke="#0EB9EF" stroke-width="1.5" stroke-linecap="round" stroke-linejoin="round"/>
<path d="M8.32202 5.48999C8.31902 5.48999 8.31702 5.49199 8.31702 5.49499C8.31702 5.49799 8.32002 5.49999 8.32202 5.49999C8.32502 5.49999 8.32702 5.49799 8.32702 5.49499C8.32702 5.49199 8.32502 5.48999 8.32202 5.48999Z" stroke="#0EB9EF" stroke-width="1.5" stroke-linecap="round" stroke-linejoin="round"/>
<path d="M10.861 5.48999C10.858 5.48999 10.856 5.49199 10.856 5.49499C10.856 5.49799 10.858 5.49999 10.861 5.49999C10.864 5.49999 10.866 5.49799 10.866 5.49499C10.866 5.49199 10.864 5.48999 10.861 5.48999Z" stroke="#0EB9EF" stroke-width="1.5" stroke-linecap="round" stroke-linejoin="round"/>
<path d="M3 8H21" stroke="#0EB9EF" stroke-width="1.5" stroke-linecap="round" stroke-linejoin="round"/>
<path d="M19 3H5C3.895 3 3 3.895 3 5V19C3 20.105 3.895 21 5 21H19C20.105 21 21 20.105 21 19V5C21 3.895 20.105 3 19 3Z" stroke="#0EB9EF" stroke-width="1.5" stroke-linecap="round" stroke-linejoin="round"/>
<path d="M9.49999 11V14.5L7.02899 16.971" stroke="#0EB9EF" stroke-width="1.5" stroke-linecap="round" stroke-linejoin="round"/>
</g>
<defs>
<clipPath id="clip0_2004_2735">
<rect width="24" height="24" fill="white"/>
</clipPath>
</defs>
</svg>
