<svg width="24" height="24" viewBox="0 0 24 24" fill="none" xmlns="http://www.w3.org/2000/svg">
<g clip-path="url(#clip0_2004_2795)">
<path d="M3 7H21" stroke="#ED712A" stroke-width="1.5" stroke-linecap="round" stroke-linejoin="round"/>
<path d="M9.57 11H7" stroke="#ED712A" stroke-width="1.5" stroke-linecap="round" stroke-linejoin="round"/>
<path d="M8 17H6C4.343 17 3 15.657 3 14V6C3 4.343 4.343 3 6 3H18C19.657 3 21 4.343 21 6V10" stroke="#ED712A" stroke-width="1.5" stroke-linecap="round" stroke-linejoin="round"/>
<path d="M22.5 16.5L21 15L19.5 16.5" stroke="#ED712A" stroke-width="1.5" stroke-linecap="round" stroke-linejoin="round"/>
<path d="M11.5 17.5L13 19L14.5 17.5" stroke="#ED712A" stroke-width="1.5" stroke-linecap="round" stroke-linejoin="round"/>
<path d="M13 19V15C13 13.895 13.895 13 15 13H18" stroke="#ED712A" stroke-width="1.5" stroke-linecap="round" stroke-linejoin="round"/>
<path d="M21 15V19C21 20.1 20.1 21 19 21H16.011" stroke="#ED712A" stroke-width="1.5" stroke-linecap="round" stroke-linejoin="round"/>
</g>
<defs>
<clipPath id="clip0_2004_2795">
<rect width="24" height="24" fill="white"/>
</clipPath>
</defs>
</svg>
