<svg width="20" height="20" viewBox="0 0 20 20" fill="none" xmlns="http://www.w3.org/2000/svg">
<path d="M17.9167 15L12.381 10M7.61907 10L2.08338 15M1.66669 5.83334L8.47079 10.5962C9.02176 10.9819 9.29725 11.1747 9.59691 11.2494C9.8616 11.3154 10.1384 11.3154 10.4031 11.2494C10.7028 11.1747 10.9783 10.9819 11.5293 10.5962L18.3334 5.83334M5.66669 16.6667H14.3334C15.7335 16.6667 16.4335 16.6667 16.9683 16.3942C17.4387 16.1545 17.8212 15.7721 18.0609 15.3017C18.3334 14.7669 18.3334 14.0668 18.3334 12.6667V7.33334C18.3334 5.93321 18.3334 5.23315 18.0609 4.69837C17.8212 4.22796 17.4387 3.84551 16.9683 3.60583C16.4335 3.33334 15.7335 3.33334 14.3334 3.33334H5.66669C4.26656 3.33334 3.56649 3.33334 3.03171 3.60583C2.56131 3.84551 2.17885 4.22796 1.93917 4.69837C1.66669 5.23315 1.66669 5.93321 1.66669 7.33334V12.6667C1.66669 14.0668 1.66669 14.7669 1.93917 15.3017C2.17885 15.7721 2.56131 16.1545 3.03171 16.3942C3.56649 16.6667 4.26656 16.6667 5.66669 16.6667Z" stroke="white" stroke-width="1.5" stroke-linecap="round" stroke-linejoin="round"/>
</svg>
