<svg width="136" height="48" viewBox="0 0 136 48" fill="none" xmlns="http://www.w3.org/2000/svg">
<path d="M16.6005 32.2554C15.525 32.2554 14.5473 31.3813 14.5473 30.3129C14.5473 29.2446 15.4272 28.3705 16.6005 28.3705C17.7738 28.3705 18.6538 29.2446 18.6538 30.3129C18.6538 31.3813 17.676 32.2554 16.6005 32.2554ZM41.826 21.6691C41.6305 20.1151 40.6528 18.8525 39.3817 17.8813L38.8928 17.4928L38.5018 17.9784C37.7196 18.8525 37.4262 20.4065 37.524 21.5719C37.6218 22.446 37.9151 23.3201 38.404 24C38.0129 24.1942 37.524 24.3885 37.1329 24.5827C36.253 24.8741 35.373 24.9712 34.493 24.9712H9.16974L9.07197 25.554C8.87642 27.3993 9.16974 29.3417 9.95193 31.0899L10.343 31.7698V31.8669C12.6896 35.7518 16.8938 37.5 21.4892 37.5C30.2888 37.5 37.524 33.7122 40.9461 25.554C43.1949 25.6511 45.4437 25.0683 46.5192 22.9317L46.8125 22.446L46.3236 22.1547C45.0526 21.3777 43.2926 21.2806 41.826 21.6691ZM29.2133 20.1151H25.4001V23.9029H29.2133V20.1151ZM29.2133 15.3561H25.4001V19.1439H29.2133V15.3561ZM29.2133 10.5H25.4001V14.2878H29.2133V10.5ZM33.9064 20.1151H30.0932V23.9029H33.9064V20.1151ZM19.7293 20.1151H15.9161V23.9029H19.7293V20.1151ZM24.5202 20.1151H20.707V23.9029H24.5202V20.1151ZM15.0361 20.1151H11.223V23.9029H15.0361V20.1151ZM24.5202 15.3561H20.707V19.1439H24.5202V15.3561ZM19.7293 15.3561H15.9161V19.1439H19.7293V15.3561Z" fill="#061D2F"/>
<path d="M107.725 29.9245C109.387 28.4676 111.05 27.1079 112.712 25.6511C113.298 25.1655 113.885 24.6799 114.472 24.0971C113.983 23.5144 113.298 23.1259 112.614 22.8345C111.343 22.3489 110.072 22.5432 108.801 23.223C107.236 24.0971 106.552 25.554 106.65 27.3022C106.65 27.982 106.845 28.6619 107.236 29.2446C107.53 29.536 107.628 29.7302 107.725 29.9245ZM109.681 31.2842C110.463 31.5755 111.441 31.5755 112.321 31.3813C112.712 31.1871 113.885 30.7014 114.276 30.7986H114.472C114.765 30.8957 114.961 31.0899 115.058 31.3813C115.352 31.964 115.254 32.5468 114.667 32.8381L114.472 32.9353C112.321 34.1978 110.072 34.0036 107.921 32.8381C106.943 32.2554 106.161 31.4784 105.574 30.5072L105.476 30.3129C104.108 27.982 104.303 25.4568 105.868 23.223C106.356 22.446 107.139 21.8633 107.921 21.3777L108.214 21.1835C110.267 20.018 112.418 20.1151 114.472 21.0863C115.547 21.6691 116.525 22.446 117.112 23.5144L117.209 23.7086C117.698 24.4856 117.112 25.1655 116.427 25.6511L114.374 27.3993C112.614 28.759 111.147 30.0216 109.681 31.2842ZM125.618 20.6007H125.813C126.498 20.6007 126.987 21.0863 126.987 21.7662C126.987 22.7374 126.107 22.9317 125.324 22.9317C124.347 22.9317 123.369 23.5144 122.685 24.1942C121.805 25.0683 121.414 26.1367 121.414 27.3022V32.741C121.414 33.3237 121.022 33.9065 120.338 33.9065H120.143C119.458 33.9065 119.067 33.4209 119.067 32.741V27.0108C119.067 24.777 120.143 23.0288 121.902 21.7662C123.173 20.9892 124.347 20.6007 125.618 20.6007ZM97.6546 24.3885L100.295 21.7662C100.588 21.5719 101.468 20.5036 101.859 20.5036H102.25C102.739 20.6007 103.13 20.8921 103.13 21.4748V21.6691C103.13 22.0576 102.641 22.446 102.446 22.7374C101.957 23.3201 101.37 23.8058 100.881 24.3885L98.1435 27.1079L103.032 31.964C103.13 32.1583 103.228 32.2554 103.228 32.4496V32.741C103.13 33.2266 102.739 33.6151 102.25 33.6151H102.054C101.663 33.6151 101.272 33.2266 100.979 32.9353C100.49 32.4496 99.9034 31.964 99.4146 31.3813L97.6546 29.7302V32.4496C97.6546 33.0324 97.2635 33.6151 96.5791 33.6151H96.3836C95.6992 33.6151 95.3081 33.1295 95.3081 32.4496V17.4928C95.3081 16.9101 95.6992 16.4245 96.3836 16.4245H96.5791C97.2635 16.4245 97.6546 16.9101 97.6546 17.4928V24.3885ZM90.4194 22.9317C90.1261 22.7374 89.4417 22.7374 89.0506 22.7374C87.1929 22.6403 85.8241 23.7086 85.0419 25.3597C84.7486 25.9424 84.6508 26.5252 84.6508 27.205C84.6508 29.1475 85.6285 30.5072 87.3884 31.2842C87.9751 31.5755 88.855 31.6727 89.5395 31.6727C90.1261 31.6727 91.0061 31.2842 91.4949 31.0899H91.9838C92.4726 31.187 92.8637 31.4784 92.8637 32.0611V32.2554C92.8637 33.6151 90.3216 33.9065 89.4417 34.0036C86.1174 34.1978 83.5753 32.3525 82.5975 29.2446C82.402 28.6619 82.402 28.1763 82.402 27.5935V27.1079C82.402 24.6799 83.5753 22.7374 85.7263 21.5719C86.704 20.9892 87.7795 20.6978 88.9528 20.6978H89.4417C90.6149 20.6978 91.7882 20.9892 92.766 21.6691L92.9615 21.8633C93.0593 22.0576 93.1571 22.2518 93.1571 22.446V22.6403C93.1571 23.223 92.766 23.5144 92.1793 23.6115H92.0816C91.3971 23.4173 90.615 23.0288 90.4194 22.9317ZM69.887 27.1079C69.887 28.759 70.767 30.0216 72.1358 30.8957C72.8202 31.2842 73.6024 31.4784 74.3846 31.4784C76.0467 31.4784 77.3178 30.6043 78.1977 29.2446C78.5888 28.5647 78.7844 27.7878 78.7844 27.0108C78.7844 25.4568 78.0022 24.1942 76.7311 23.3201C76.0467 22.8345 75.1668 22.6403 74.3846 22.6403C72.5269 22.6403 71.1581 23.6115 70.3759 25.2626C69.887 25.9424 69.887 26.5252 69.887 27.1079ZM73.9935 20.5036H74.2868C76.9267 20.5036 78.8821 21.7662 80.1532 24C80.6421 24.8741 80.9354 25.8453 80.9354 26.9137V27.3993C80.9354 29.8273 79.7621 31.7698 77.6111 32.9353C76.6334 33.518 75.5579 33.8094 74.3846 33.8094H73.8957C71.4514 33.8094 69.4959 32.6439 68.3226 30.5072C67.736 29.536 67.4427 28.4676 67.4427 27.3022V26.8165C67.4427 24.3885 68.6159 22.446 70.767 21.2806C71.8425 20.795 72.8202 20.5036 73.9935 20.5036ZM55.0254 27.1079C55.0254 28.8561 55.9054 30.2158 57.4698 30.9928C58.0564 31.2842 58.7408 31.4784 59.523 31.4784C61.2829 31.4784 62.554 30.7014 63.434 29.2446C63.825 28.5647 64.0206 27.7878 64.0206 27.0108C64.0206 25.4568 63.3362 24.2914 62.0651 23.4173C61.2829 22.9317 60.5008 22.6403 59.523 22.6403C57.6653 22.6403 56.2965 23.6115 55.5143 25.2626C55.221 25.9424 55.0254 26.5252 55.0254 27.1079ZM64.0206 22.1547V17.3957C64.0206 16.8129 64.4117 16.2302 65.0961 16.2302H65.2916C65.9761 16.2302 66.3672 16.7158 66.3672 17.3957V27.3993C66.3672 29.8273 65.1939 31.7698 63.0429 32.9353C62.0651 33.518 60.9896 33.8094 59.8163 33.8094H59.3275C56.8831 33.8094 54.9277 32.6439 53.7544 30.5072C53.1678 29.536 52.8744 28.4676 52.8744 27.3022V26.8165C52.8744 24.3885 54.0477 22.446 56.1987 21.2806C57.1765 20.6978 58.252 20.4065 59.4252 20.4065H59.9141C61.3807 20.5036 62.8473 21.0863 64.0206 22.1547Z" fill="#061D2F"/>
</svg>
