<svg width="136" height="48" viewBox="0 0 136 48" fill="none" xmlns="http://www.w3.org/2000/svg">
<path fill-rule="evenodd" clip-rule="evenodd" d="M79.2675 37.4185C73.8283 41.4279 65.9445 43.5668 59.1568 43.5668C49.639 43.5668 41.0706 40.0465 34.5883 34.1917C34.0791 33.7314 34.5354 33.1037 35.1465 33.4625C42.1422 37.5327 50.7921 39.9814 59.7271 39.9814C65.7529 39.9814 72.382 38.7345 78.4773 36.1474C79.398 35.7564 80.1681 36.7504 79.2675 37.4185ZM81.5289 34.8314C80.8362 33.9433 76.9331 34.4116 75.1812 34.6195C74.6473 34.6847 74.5659 34.2203 75.0467 33.886C78.1555 31.6981 83.2565 32.3297 83.8512 33.0632C84.4463 33.8005 83.6966 38.9138 80.7752 41.3544C80.327 41.7294 79.8991 41.5296 80.0989 41.0326C80.7547 39.3946 82.2256 35.7237 81.5289 34.8314Z" fill="#FF9900"/>
<path fill-rule="evenodd" clip-rule="evenodd" d="M75.3033 18.4404V16.3136C75.3033 15.9917 75.5478 15.7757 75.8412 15.7757H85.3628C85.6685 15.7757 85.9129 15.9957 85.9129 16.3136V18.1346C85.9089 18.4404 85.6521 18.8397 85.1958 19.4709L80.2618 26.5158C82.0953 26.4708 84.0305 26.7437 85.6929 27.6811C86.0679 27.893 86.1694 28.2024 86.1982 28.508V30.7775C86.1982 31.0871 85.8558 31.4498 85.4973 31.2622C82.5678 29.7263 78.6767 29.5592 75.4378 31.2786C75.1077 31.4579 74.7614 31.0993 74.7614 30.7895V28.6342C74.7614 28.2879 74.7653 27.6971 75.1116 27.1715L80.8281 18.9741H75.8532C75.5478 18.9741 75.3033 18.7581 75.3033 18.4404ZM40.5695 31.7106H37.6725C37.3955 31.6901 37.1756 31.4822 37.1552 31.2174V16.3501C37.1552 16.0527 37.4036 15.8164 37.7134 15.8164H40.4147C40.6958 15.8286 40.9199 16.0446 40.9403 16.3136V18.257H40.9932C41.6981 16.3785 43.0221 15.5028 44.8068 15.5028C46.6198 15.5028 47.7527 16.3785 48.5674 18.257C49.2681 16.3785 50.8611 15.5028 52.5684 15.5028C53.7825 15.5028 55.1109 16.0038 55.9217 17.1284C56.8384 18.3791 56.651 20.1963 56.651 21.7893L56.6467 31.1727C56.6467 31.4701 56.3983 31.7106 56.0885 31.7106H53.1959C52.9067 31.6901 52.6743 31.4579 52.6743 31.1727V23.2929C52.6743 22.6654 52.7313 21.101 52.5927 20.5059C52.3769 19.5078 51.7291 19.2267 50.8898 19.2267C50.189 19.2267 49.4555 19.6952 49.1582 20.4449C48.8608 21.1946 48.8892 22.4494 48.8892 23.2929V31.1727C48.8892 31.4701 48.6408 31.7106 48.3311 31.7106H45.4385C45.1451 31.6901 44.9168 31.4579 44.9168 31.1727L44.9127 23.2929C44.9127 21.6347 45.1857 19.1941 43.1282 19.1941C41.0463 19.1941 41.1276 21.5733 41.1276 23.2929V31.1727C41.1276 31.4701 40.8792 31.7106 40.5695 31.7106ZM94.1105 15.5028C98.409 15.5028 100.735 19.1941 100.735 23.8876C100.735 28.4223 98.1646 32.02 94.1105 32.02C89.8895 32.02 87.5916 28.3287 87.5916 23.7288C87.5916 19.1005 89.9179 15.5028 94.1105 15.5028ZM94.1348 18.538C92 18.538 91.8655 21.4473 91.8655 23.2603C91.8655 25.0774 91.8369 28.956 94.1105 28.956C96.3554 28.956 96.4614 25.8271 96.4614 23.9202C96.4614 22.6654 96.4085 21.166 96.0296 19.9762C95.7035 18.9416 95.0558 18.538 94.1348 18.538ZM106.309 31.7106H103.424C103.135 31.6901 102.903 31.4579 102.903 31.1727L102.899 16.3011C102.923 16.0283 103.164 15.8164 103.457 15.8164H106.142C106.395 15.8286 106.602 15.9998 106.659 16.232V18.5054H106.712C107.523 16.4725 108.66 15.5028 110.661 15.5028C111.96 15.5028 113.227 15.9712 114.042 17.2546C114.8 18.4444 114.8 20.4449 114.8 21.8831V31.2419C114.767 31.5027 114.527 31.7106 114.242 31.7106H111.337C111.072 31.6901 110.852 31.4946 110.823 31.2419V23.1665C110.823 21.5409 111.011 19.1615 109.011 19.1615C108.305 19.1615 107.658 19.6342 107.336 20.3511C106.928 21.2598 106.876 22.1643 106.876 23.1665V31.1727C106.871 31.4701 106.619 31.7106 106.309 31.7106ZM67.7129 24.6089C67.7129 25.7375 67.7414 26.6787 67.1708 27.6811C66.7105 28.4958 65.9772 28.9969 65.1663 28.9969C64.0539 28.9969 63.4021 28.1495 63.4021 26.8986C63.4021 24.4298 65.6145 23.9816 67.7129 23.9816V24.6089ZM70.634 31.6697C70.4426 31.8409 70.1656 31.853 69.9496 31.739C68.9882 30.9404 68.8129 30.5696 68.2871 29.8076C66.6983 31.4292 65.5697 31.9142 63.5121 31.9142C61.0715 31.9142 59.177 30.4108 59.177 27.3998C59.177 25.049 60.4481 23.4477 62.2654 22.6654C63.8381 21.9728 66.0342 21.8505 67.7129 21.6592V21.2843C67.7129 20.5958 67.7658 19.7807 67.3581 19.186C67.0079 18.6523 66.3316 18.432 65.7326 18.432C64.6284 18.432 63.6465 18.9986 63.4062 20.172C63.3573 20.4327 63.1658 20.6894 62.901 20.7016L60.0939 20.3999C59.8575 20.347 59.5926 20.1557 59.6619 19.7931C60.3057 16.3868 63.3857 15.3601 66.1401 15.3601C67.5498 15.3601 69.3914 15.7349 70.5036 16.8024C71.9134 18.1184 71.7789 19.8745 71.7789 21.7852V26.2998C71.7789 27.6566 72.3411 28.2513 72.8708 28.9848C73.0542 29.2455 73.0951 29.5592 72.8588 29.7547C72.268 30.2477 71.2166 31.1645 70.6381 31.678L70.634 31.6697ZM29.7356 24.6089C29.7356 25.7375 29.7642 26.6787 29.1938 27.6811C28.7336 28.4958 28.004 28.9969 27.1893 28.9969C26.0769 28.9969 25.4293 28.1495 25.4293 26.8986C25.4293 24.4298 27.6417 23.9816 29.7356 23.9816V24.6089ZM32.657 31.6697C32.4657 31.8409 32.1885 31.853 31.9725 31.739C31.0109 30.9404 30.8399 30.5696 30.3104 29.8076C28.7211 31.4292 27.5967 31.9142 25.5351 31.9142C23.0987 31.9142 21.2 30.4108 21.2 27.3998C21.2 25.049 22.4753 23.4477 24.2885 22.6654C25.8611 21.9728 28.0571 21.8505 29.7356 21.6592V21.2843C29.7356 20.5958 29.7887 19.7807 29.3853 19.186C29.0309 18.6523 28.3547 18.432 27.7598 18.432C26.6556 18.432 25.6696 18.9986 25.4293 20.172C25.3803 20.4327 25.1888 20.6894 24.928 20.7016L22.1166 20.3999C21.8806 20.347 21.6198 20.1557 21.6848 19.7931C22.3328 16.3868 25.4088 15.3601 28.163 15.3601C29.5727 15.3601 31.4143 15.7349 32.5267 16.8024C33.9365 18.1184 33.802 19.8745 33.802 21.7852V26.2998C33.802 27.6566 34.3641 28.2513 34.8939 28.9848C35.0813 29.2455 35.1221 29.5592 34.8858 29.7547C34.2948 30.2477 33.2438 31.1645 32.6651 31.678L32.657 31.6697Z" fill="#221F1F"/>
</svg>
