<svg width="136" height="48" viewBox="0 0 136 48" fill="none" xmlns="http://www.w3.org/2000/svg">
<path d="M15.397 26.1626C16.5421 26.1626 17.4705 25.1852 17.4705 23.9795C17.4705 22.7738 16.5421 21.7964 15.397 21.7964C14.2518 21.7964 13.3234 22.7738 13.3234 23.9795C13.3234 25.1852 14.2518 26.1626 15.397 26.1626Z" fill="#05A5CD"/>
<path fill-rule="evenodd" clip-rule="evenodd" d="M15.397 20.063C12.6272 20.063 10.0346 20.4872 8.14165 21.182C7.02259 21.5928 6.1585 22.0979 5.58427 22.6151C4.99886 23.1424 4.77863 23.6206 4.77863 23.9795C4.77863 24.3535 5.01854 24.8675 5.64531 25.4327C6.25809 25.9852 7.17558 26.5236 8.35356 26.9475C10.2108 27.6159 12.7165 27.9396 15.397 27.9396C18.0054 27.9396 20.4591 27.5959 22.3013 26.9533C23.5232 26.5271 24.4773 25.9907 25.1152 25.4378C25.7679 24.8721 26.0153 24.3579 26.0153 23.9795C26.0153 23.623 25.7866 23.1409 25.1775 22.6058C24.5822 22.0828 23.6923 21.5739 22.5557 21.1619C20.6687 20.478 18.139 20.063 15.397 20.063ZM7.8151 20.1958C9.83678 19.4538 12.5444 19.0186 15.397 19.0186C18.2228 19.0186 20.8656 19.4448 22.8787 20.1744C24.0916 20.6141 25.0988 21.1764 25.8131 21.8039C26.5136 22.4194 27.0073 23.1671 27.0073 23.9795C27.0073 24.8192 26.4891 25.5997 25.7456 26.2442C24.9873 26.9015 23.9143 27.4909 22.6133 27.9447C20.6403 28.633 18.074 28.984 15.397 28.984C12.6584 28.984 10.0326 28.6555 8.03272 27.9358C6.77018 27.4815 5.73243 26.8862 5.00008 26.2259C4.28174 25.5782 3.78665 24.8003 3.78665 23.9795C3.78665 23.1791 4.25604 22.4371 4.93939 21.8215C5.63391 21.1959 6.61768 20.6354 7.8151 20.1958Z" fill="#05A5D1"/>
<path fill-rule="evenodd" clip-rule="evenodd" d="M19.1349 14.3837C18.4071 14.6654 17.5438 15.2228 16.6371 16.0536C15.1317 17.433 13.5265 19.5329 12.1566 22.0338C10.7729 24.56 9.82675 27.1366 9.4528 29.2101C9.23172 30.436 9.21559 31.4764 9.3543 32.2585C9.49571 33.0558 9.77909 33.4956 10.0744 33.6749C10.3821 33.8617 10.9249 33.8997 11.703 33.6104C12.4637 33.3275 13.3651 32.7597 14.3024 31.8971C15.7802 30.5371 17.2982 28.4135 18.6373 25.9687C19.9404 23.5897 20.8835 21.18 21.2751 19.1789C21.5348 17.8514 21.5701 16.7134 21.4339 15.8554C21.2945 14.9774 20.995 14.4949 20.6837 14.3059C20.3904 14.1278 19.8794 14.0955 19.1349 14.3837ZM18.7926 13.4035C19.649 13.0719 20.5108 12.9953 21.1792 13.4011C21.8701 13.8206 22.2535 14.6831 22.4123 15.6831C22.5743 16.7032 22.5232 17.9763 22.2466 19.3896C21.8273 21.5329 20.834 24.0488 19.4966 26.4905C18.1285 28.9882 16.5465 31.219 14.9553 32.6835C13.9507 33.608 12.9425 34.2571 12.0334 34.5952C11.1416 34.9268 10.2542 34.9897 9.57885 34.5797C8.92026 34.1798 8.54426 33.381 8.37918 32.4502C8.21141 31.5042 8.24168 30.327 8.47823 29.0153C8.87762 26.8006 9.87219 24.1138 11.2973 21.5121C12.709 18.9347 14.3799 16.7372 15.9859 15.2657C16.9536 14.3791 17.9194 13.7414 18.7926 13.4035Z" fill="#05A5CD"/>
<path fill-rule="evenodd" clip-rule="evenodd" d="M11.7088 14.4265C10.9168 14.1152 10.3702 14.1473 10.0591 14.3369C9.76612 14.5155 9.48435 14.9655 9.34967 15.7885C9.21803 16.5931 9.24556 17.6589 9.47637 18.9008C9.85958 20.963 10.7859 23.4759 12.1597 25.9744C13.5474 28.4982 15.1951 30.648 16.7145 32.0246C17.6129 32.8385 18.461 33.3728 19.1738 33.6369C19.9006 33.9061 20.4039 33.8672 20.699 33.6874C21.0064 33.5 21.3088 33.0239 21.4593 32.1696C21.6064 31.3345 21.5894 30.2287 21.3476 28.943C20.9665 26.9157 19.9772 24.4705 18.6342 22.0281C17.3273 19.6514 15.8155 17.5877 14.3643 16.2312C13.4017 15.3313 12.4829 14.7307 11.7088 14.4265ZM12.0558 13.448C12.976 13.8097 13.9981 14.4921 15.023 15.4502C16.5772 16.9031 18.1514 19.0655 19.4927 21.5049C20.8647 24.0001 21.9103 26.5573 22.3207 28.7402C22.5798 30.1182 22.6105 31.362 22.4346 32.3601C22.2621 33.3392 21.8707 34.18 21.196 34.5913C20.538 34.9923 19.6929 34.9364 18.8446 34.6221C17.9824 34.3027 17.0287 33.6872 16.0675 32.8163C14.4447 31.346 12.7304 29.0969 11.3012 26.4977C9.88541 23.9228 8.91165 21.3012 8.50285 19.1014C8.25652 17.7759 8.21415 16.5765 8.3721 15.6112C8.52701 14.6645 8.89435 13.8401 9.56213 13.4331M12.0558 13.448C11.1535 13.0934 10.2523 13.0124 9.56213 13.4331L12.0558 13.448Z" fill="#05A5D1"/>
<path d="M129.883 23.8521C129.859 23.4828 129.778 23.1319 129.637 22.7995C129.509 22.4671 129.327 22.184 129.093 21.9501C128.871 21.7039 128.602 21.5131 128.287 21.3776C127.983 21.2299 127.644 21.156 127.269 21.156C126.884 21.156 126.533 21.2299 126.217 21.3776C125.913 21.5131 125.65 21.7039 125.428 21.9501C125.206 22.1963 125.03 22.4856 124.902 22.818C124.773 23.1381 124.697 23.4828 124.674 23.8521H129.883ZM131.321 26.5112C131.122 27.5822 130.684 28.3886 130.006 28.9303C129.327 29.4719 128.474 29.7428 127.445 29.7428C126.72 29.7428 126.088 29.6197 125.551 29.3734C125.024 29.1272 124.58 28.7825 124.218 28.3393C123.855 27.8962 123.58 27.3668 123.393 26.7513C123.218 26.1357 123.119 25.4648 123.095 24.7385C123.095 24.0121 123.2 23.3474 123.411 22.7441C123.621 22.1409 123.914 21.6177 124.288 21.1745C124.674 20.7313 125.124 20.3866 125.638 20.1404C126.164 19.8942 126.737 19.7711 127.357 19.7711C128.164 19.7711 128.83 19.9496 129.357 20.3066C129.894 20.6513 130.321 21.0945 130.637 21.6362C130.964 22.1778 131.186 22.7688 131.303 23.4089C131.432 24.0491 131.485 24.6584 131.461 25.237H124.674C124.662 25.6556 124.709 26.0557 124.814 26.4373C124.919 26.8067 125.089 27.1391 125.323 27.4345C125.556 27.7177 125.855 27.9454 126.217 28.1178C126.58 28.2901 127.006 28.3763 127.497 28.3763C128.129 28.3763 128.643 28.2224 129.041 27.9146C129.45 27.6069 129.719 27.1391 129.848 26.5112H131.321Z" fill="#05A5D1"/>
<path d="M118.903 29.5396H117.307L113.94 19.9927H115.606L118.149 27.9516H118.184L120.657 19.9927H122.218L118.903 29.5396Z" fill="#05A5D1"/>
<path d="M112.507 18.2753H111.016V16.3549H112.507V18.2753ZM111.016 19.9927H112.507V29.5396H111.016V19.9927Z" fill="#05A5D1"/>
<path d="M107.466 19.9927H109.272V21.3776H107.466V27.3052C107.466 27.4899 107.478 27.6376 107.501 27.7484C107.536 27.8592 107.595 27.9454 107.676 28.007C107.758 28.0685 107.869 28.1116 108.01 28.1362C108.162 28.1485 108.355 28.1547 108.588 28.1547H109.272V29.5396H108.132C107.747 29.5396 107.413 29.515 107.133 29.4658C106.864 29.4042 106.642 29.2996 106.466 29.1519C106.302 29.0041 106.18 28.7948 106.098 28.524C106.016 28.2532 105.975 27.8962 105.975 27.453V21.3776H104.432V19.9927H105.975V17.1304H107.466V19.9927Z" fill="#05A5D1"/>
<path d="M104.009 29.5027C103.752 29.6628 103.395 29.7428 102.939 29.7428C102.553 29.7428 102.243 29.632 102.009 29.4104C101.787 29.1765 101.676 28.801 101.676 28.284C101.267 28.801 100.787 29.1765 100.238 29.4104C99.7 29.632 99.1154 29.7428 98.484 29.7428C98.0748 29.7428 97.6831 29.6935 97.3089 29.595C96.9464 29.4966 96.6307 29.3427 96.3618 29.1334C96.0928 28.9241 95.8765 28.6533 95.7128 28.3209C95.5608 27.9762 95.4848 27.5638 95.4848 27.0837C95.4848 26.542 95.5725 26.0988 95.7479 25.7541C95.9233 25.4094 96.1513 25.1324 96.4319 24.9231C96.7243 24.7015 97.0517 24.5353 97.4141 24.4245C97.7883 24.3137 98.1683 24.2214 98.5542 24.1476C98.9634 24.0614 99.3493 23.9998 99.7117 23.9629C100.086 23.9136 100.413 23.8521 100.694 23.7782C100.975 23.6921 101.197 23.5751 101.36 23.4274C101.524 23.2673 101.606 23.0396 101.606 22.7441C101.606 22.3994 101.542 22.1224 101.413 21.9132C101.296 21.7039 101.138 21.5438 100.939 21.433C100.752 21.3222 100.536 21.2484 100.291 21.2114C100.057 21.1745 99.8228 21.156 99.589 21.156C98.9576 21.156 98.4314 21.2853 98.0105 21.5438C97.5895 21.79 97.3615 22.264 97.3264 22.9657H95.8356C95.859 22.3748 95.9759 21.8762 96.1864 21.47C96.3969 21.0637 96.6775 20.7375 97.0283 20.4913C97.379 20.2327 97.7766 20.0481 98.2209 19.9373C98.6769 19.8265 99.1622 19.7711 99.6767 19.7711C100.086 19.7711 100.489 19.8019 100.887 19.8634C101.296 19.925 101.664 20.0542 101.992 20.2512C102.319 20.4359 102.582 20.7006 102.781 21.0453C102.98 21.39 103.079 21.8393 103.079 22.3933V27.3052C103.079 27.6746 103.097 27.9454 103.132 28.1178C103.179 28.2901 103.319 28.3763 103.553 28.3763C103.681 28.3763 103.833 28.3455 104.009 28.284V29.5027ZM101.588 24.6092C101.401 24.7569 101.156 24.8677 100.852 24.9416C100.548 25.0031 100.226 25.0585 99.8871 25.1078C99.5597 25.1447 99.2265 25.194 98.8874 25.2555C98.5483 25.3048 98.2443 25.3909 97.9754 25.514C97.7064 25.6371 97.4843 25.8157 97.3089 26.0496C97.1452 26.2711 97.0633 26.5789 97.0633 26.9729C97.0633 27.2314 97.1101 27.453 97.2037 27.6376C97.3089 27.81 97.4375 27.9516 97.5895 28.0624C97.7532 28.1732 97.9403 28.2532 98.1508 28.3024C98.3612 28.3517 98.5834 28.3763 98.8172 28.3763C99.3083 28.3763 99.7293 28.3086 100.08 28.1732C100.431 28.0254 100.717 27.8469 100.939 27.6376C101.162 27.416 101.325 27.1821 101.431 26.9359C101.536 26.6774 101.588 26.4373 101.588 26.2158V24.6092Z" fill="#05A5D1"/>
<path d="M83.5463 16.3549H85.3178L91.9125 27.0467H91.9476V16.3549H93.5261V29.5396H91.702L85.1599 18.9586H85.1249V29.5396H83.5463V16.3549Z" fill="#05A5D1"/>
<path d="M74.9742 19.9927H76.7807V21.3776H74.9742V27.3052C74.9742 27.4899 74.9858 27.6376 75.0092 27.7484C75.0443 27.8592 75.1028 27.9454 75.1846 28.007C75.2665 28.0685 75.3775 28.1116 75.5179 28.1362C75.6699 28.1485 75.8628 28.1547 76.0966 28.1547H76.7807V29.5396H75.6406C75.2548 29.5396 74.9215 29.515 74.6409 29.4658C74.372 29.4042 74.1498 29.2996 73.9744 29.1519C73.8107 29.0041 73.688 28.7948 73.6061 28.524C73.5243 28.2532 73.4833 27.8962 73.4833 27.453V21.3776H71.9399V19.9927H73.4833V17.1304H74.9742V19.9927Z" fill="#05A5D1"/>
<path d="M69.6404 23.0581C69.5234 22.4548 69.2779 21.987 68.9037 21.6546C68.5295 21.3222 68.0268 21.156 67.3954 21.156C66.8575 21.156 66.4073 21.2607 66.0449 21.47C65.6824 21.6793 65.3901 21.9562 65.1679 22.3009C64.9574 22.6456 64.8054 23.0457 64.7119 23.5012C64.6183 23.9444 64.5716 24.4061 64.5716 24.8862C64.5716 25.3294 64.6183 25.7603 64.7119 26.1788C64.8171 26.5974 64.975 26.9729 65.1854 27.3052C65.3959 27.6253 65.6707 27.8839 66.0098 28.0808C66.3489 28.2778 66.7523 28.3763 67.22 28.3763C67.9566 28.3763 68.5295 28.1732 68.9388 27.7669C69.3597 27.3606 69.617 26.7882 69.7105 26.0496H71.2364C71.0727 27.2314 70.6518 28.1424 69.9736 28.7825C69.3071 29.4227 68.3951 29.7428 67.2375 29.7428C66.5476 29.7428 65.9338 29.6258 65.3959 29.3919C64.8697 29.158 64.4254 28.8256 64.0629 28.3947C63.7122 27.9639 63.4432 27.453 63.2561 26.8621C63.0807 26.2588 62.9931 25.6002 62.9931 24.8862C62.9931 24.1722 63.0807 23.5074 63.2561 22.8919C63.4315 22.264 63.6946 21.7223 64.0454 21.2668C64.4079 20.799 64.858 20.4359 65.3959 20.1773C65.9338 19.9065 66.5593 19.7711 67.2726 19.7711C67.7871 19.7711 68.2665 19.8388 68.7108 19.9742C69.1668 20.0973 69.5644 20.2943 69.9034 20.5651C70.2542 20.836 70.5407 21.1807 70.7629 21.5992C70.985 22.0055 71.1253 22.4918 71.1838 23.0581H69.6404Z" fill="#05A5D1"/>
<path d="M62.0966 29.5027C61.8394 29.6628 61.4828 29.7428 61.0268 29.7428C60.6409 29.7428 60.331 29.632 60.0972 29.4104C59.875 29.1765 59.764 28.801 59.764 28.284C59.3547 28.801 58.8753 29.1765 58.3257 29.4104C57.7879 29.632 57.2033 29.7428 56.5718 29.7428C56.1626 29.7428 55.7709 29.6935 55.3967 29.595C55.0343 29.4966 54.7186 29.3427 54.4496 29.1334C54.1807 28.9241 53.9644 28.6533 53.8007 28.3209C53.6487 27.9762 53.5727 27.5638 53.5727 27.0837C53.5727 26.542 53.6604 26.0988 53.8358 25.7541C54.0112 25.4094 54.2392 25.1324 54.5198 24.9231C54.8121 24.7015 55.1395 24.5353 55.502 24.4245C55.8761 24.3137 56.2561 24.2214 56.642 24.1476C57.0512 24.0614 57.4371 23.9998 57.7996 23.9629C58.1737 23.9136 58.5011 23.8521 58.7818 23.7782C59.0624 23.6921 59.2846 23.5751 59.4483 23.4274C59.6119 23.2673 59.6938 23.0396 59.6938 22.7441C59.6938 22.3994 59.6295 22.1224 59.5009 21.9132C59.3839 21.7039 59.2261 21.5438 59.0273 21.433C58.8402 21.3222 58.6239 21.2484 58.3784 21.2114C58.1445 21.1745 57.9107 21.156 57.6768 21.156C57.0454 21.156 56.5192 21.2853 56.0983 21.5438C55.6774 21.79 55.4493 22.264 55.4143 22.9657H53.9235C53.9468 22.3748 54.0638 21.8762 54.2742 21.47C54.4847 21.0637 54.7653 20.7375 55.1161 20.4913C55.4669 20.2327 55.8644 20.0481 56.3088 19.9373C56.7648 19.8265 57.25 19.7711 57.7645 19.7711C58.1737 19.7711 58.5771 19.8019 58.9747 19.8634C59.3839 19.925 59.7523 20.0542 60.0797 20.2512C60.4071 20.4359 60.6701 20.7006 60.8689 21.0453C61.0677 21.39 61.1671 21.8393 61.1671 22.3933V27.3052C61.1671 27.6746 61.1846 27.9454 61.2197 28.1178C61.2665 28.2901 61.4068 28.3763 61.6406 28.3763C61.7692 28.3763 61.9213 28.3455 62.0966 28.284V29.5027ZM59.6763 24.6092C59.4892 24.7569 59.2436 24.8677 58.9396 24.9416C58.6356 25.0031 58.3141 25.0585 57.975 25.1078C57.6476 25.1447 57.3143 25.194 56.9752 25.2555C56.6362 25.3048 56.3321 25.3909 56.0632 25.514C55.7943 25.6371 55.5721 25.8157 55.3967 26.0496C55.233 26.2711 55.1512 26.5789 55.1512 26.9729C55.1512 27.2314 55.198 27.453 55.2915 27.6376C55.3967 27.81 55.5253 27.9516 55.6774 28.0624C55.841 28.1732 56.0281 28.2532 56.2386 28.3024C56.4491 28.3517 56.6712 28.3763 56.9051 28.3763C57.3962 28.3763 57.8171 28.3086 58.1679 28.1732C58.5187 28.0254 58.8052 27.8469 59.0273 27.6376C59.2495 27.416 59.4132 27.1821 59.5184 26.9359C59.6236 26.6774 59.6763 26.4373 59.6763 26.2158V24.6092Z" fill="#05A5D1"/>
<path d="M50.9399 23.8521C50.9165 23.4828 50.8347 23.1319 50.6943 22.7995C50.5657 22.4671 50.3845 22.184 50.1506 21.9501C49.9285 21.7039 49.6595 21.5131 49.3438 21.3776C49.0398 21.2299 48.7007 21.156 48.3266 21.156C47.9407 21.156 47.5899 21.2299 47.2742 21.3776C46.9702 21.5131 46.7071 21.7039 46.485 21.9501C46.2628 22.1963 46.0874 22.4856 45.9588 22.818C45.8302 23.1381 45.7542 23.4828 45.7308 23.8521H50.9399ZM52.3781 26.5112C52.1793 27.5822 51.7408 28.3886 51.0627 28.9303C50.3845 29.4719 49.5309 29.7428 48.502 29.7428C47.777 29.7428 47.1456 29.6197 46.6078 29.3734C46.0816 29.1272 45.6373 28.7825 45.2748 28.3393C44.9123 27.8962 44.6375 27.3668 44.4504 26.7513C44.2751 26.1357 44.1757 25.4648 44.1523 24.7385C44.1523 24.0121 44.2575 23.3474 44.468 22.7441C44.6785 22.1409 44.9708 21.6177 45.3449 21.1745C45.7308 20.7313 46.181 20.3866 46.6954 20.1404C47.2216 19.8942 47.7946 19.7711 48.4143 19.7711C49.2211 19.7711 49.8876 19.9496 50.4137 20.3066C50.9516 20.6513 51.3784 21.0945 51.6941 21.6362C52.0215 22.1778 52.2436 22.7688 52.3606 23.4089C52.4892 24.0491 52.5418 24.6584 52.5184 25.237H45.7308C45.7191 25.6556 45.7659 26.0557 45.8711 26.4373C45.9763 26.8067 46.1459 27.1391 46.3797 27.4345C46.6136 27.7177 46.9118 27.9454 47.2742 28.1178C47.6367 28.2901 48.0635 28.3763 48.5546 28.3763C49.186 28.3763 49.7005 28.2224 50.098 27.9146C50.5073 27.6069 50.7762 27.1391 50.9048 26.5112H52.3781Z" fill="#05A5D1"/>
<path d="M32.8822 16.3549H38.7753C39.968 16.3549 40.8976 16.6626 41.564 17.2782C42.2422 17.8937 42.5813 18.737 42.5813 19.808C42.5813 20.6082 42.4059 21.3099 42.0551 21.9132C41.716 22.5164 41.1665 22.9288 40.4065 23.1504V23.1873C40.7689 23.2612 41.0613 23.3843 41.2834 23.5566C41.5173 23.729 41.6985 23.9383 41.8271 24.1845C41.9674 24.4184 42.0668 24.6831 42.1253 24.9785C42.1954 25.274 42.2481 25.5817 42.2831 25.9018C42.3065 26.2219 42.3241 26.5481 42.3358 26.8805C42.3475 27.2129 42.3767 27.5392 42.4235 27.8592C42.4702 28.1793 42.5345 28.4871 42.6164 28.7825C42.7099 29.0657 42.8444 29.3181 43.0198 29.5396H41.1606C41.0437 29.4042 40.9619 29.2196 40.9151 28.9857C40.88 28.7518 40.8566 28.4932 40.8449 28.2101C40.8332 27.9146 40.8216 27.6007 40.8099 27.2683C40.7982 26.9359 40.7631 26.6097 40.7046 26.2896C40.6579 25.9695 40.5994 25.6679 40.5292 25.3848C40.4591 25.0893 40.348 24.837 40.196 24.6277C40.044 24.4061 39.8452 24.2337 39.5997 24.1106C39.3541 23.9752 39.0267 23.9075 38.6175 23.9075H34.5484V29.5396H32.8822V16.3549ZM38.0212 22.4302C38.407 22.4302 38.7753 22.3994 39.1261 22.3379C39.4769 22.2763 39.7809 22.1594 40.0381 21.987C40.3071 21.8024 40.5175 21.5623 40.6695 21.2668C40.8332 20.9591 40.9151 20.5651 40.9151 20.085C40.9151 19.4202 40.7397 18.8786 40.3889 18.46C40.0381 18.0414 39.471 17.8322 38.6876 17.8322H34.5484V22.4302H38.0212Z" fill="#05A5D1"/>
</svg>
