<svg width="136" height="48" viewBox="0 0 136 48" fill="none" xmlns="http://www.w3.org/2000/svg">
<path d="M120.681 25.8936C121.725 25.7134 122.709 25.279 123.545 24.6291C124.317 23.8217 124.704 22.7197 124.608 21.607C124.611 20.701 124.361 19.812 123.887 19.0401C123.188 17.8477 121.929 17.0877 120.549 17.0232H119.859L118.247 16.9663H110.951C110.509 16.9663 110.319 17.1497 110.319 17.5985V30.3825C110.319 30.825 110.502 31.0147 110.951 31.0147H112.848C113.291 31.0147 113.48 30.8314 113.48 30.3825V26.1465H115.8C116.311 26.173 116.796 26.3766 117.172 26.7218L120.852 30.4204C121.187 30.7631 121.638 30.9705 122.117 31.0021H124.943C125.385 31.0021 125.493 30.7428 125.183 30.4267L120.681 25.8936ZM120.201 23.1749H113.468V19.9505H120.201C120.881 20.0339 121.395 20.6245 121.383 21.3098V21.8093C121.395 22.4959 120.882 23.0883 120.201 23.1749Z" fill="#D50C2D"/>
<path d="M107.373 28.0432H96.9218V25.4067H105.261C105.704 25.4067 105.893 25.2234 105.893 24.7745V23.2381C105.893 22.7956 105.71 22.6059 105.261 22.6059H96.9155V19.9758H107.373C107.815 19.9758 108.005 19.7924 108.005 19.3435V17.5985C108.005 17.156 107.822 16.9663 107.373 16.9663H94.336C93.8934 16.9663 93.7037 17.1497 93.7037 17.5985V30.3951C93.7037 30.8377 93.8871 31.0274 94.336 31.0274H107.373C107.815 31.0274 108.005 30.844 108.005 30.3951V28.6691C108.005 28.2265 107.796 28.0432 107.373 28.0432Z" fill="#D50C2D"/>
<path d="M91.3961 21.5817C91.41 20.687 91.1615 19.8076 90.6816 19.0527C89.9773 17.8306 88.7008 17.0447 87.2928 16.9663H77.708C77.2592 16.9663 77.0758 17.1497 77.0758 17.5985V30.3825C77.0758 30.825 77.2592 31.0147 77.708 31.0147H79.7692C80.2117 31.0147 80.4014 30.8377 80.4014 30.3825V19.9568H85.9525C87.1348 19.9568 88.2854 20.7408 88.2854 21.9231V30.3951C88.2854 30.8377 88.4688 31.0274 88.9177 31.0274H90.7828C91.2317 31.0274 91.415 30.844 91.415 30.3951L91.3961 21.5817Z" fill="#D50C2D"/>
<path d="M74.1612 27.961H65.1518L74.1802 20.0264C74.5462 19.7463 74.7764 19.3227 74.8124 18.863V17.5985C74.8124 17.156 74.6227 16.9663 74.1802 16.9663H61.1118C60.6692 16.9663 60.4795 17.1497 60.4795 17.5985V19.3499C60.4795 19.7924 60.6629 19.9821 61.1118 19.9821H69.489L61.0865 27.8661C60.7236 28.1488 60.4941 28.5711 60.4542 29.0295V30.4014C60.4542 30.844 60.6376 31.0337 61.0865 31.0337H74.1422C74.5848 31.0337 74.7745 30.8503 74.7745 30.4014V28.5869C74.7871 28.1443 74.6038 27.961 74.1612 27.961Z" fill="#D50C2D"/>
<path d="M57.5458 16.9663H44.4964C44.0475 16.9663 43.8641 17.1433 43.8641 17.5985V19.3435C43.8641 19.7861 44.0412 19.9758 44.4964 19.9758H49.4152V30.3951C49.4152 30.8377 49.5986 31.0274 50.0475 31.0274H52.1338C52.5764 31.0274 52.7661 30.844 52.7661 30.3951V19.9695H57.5521C57.9947 19.9695 58.1844 19.7861 58.1844 19.3372V17.5985C58.1717 17.1686 57.9884 16.9663 57.5458 16.9663Z" fill="#D50C2D"/>
<path d="M40.9305 28.0432H30.4985V25.4067H38.8378C39.2804 25.4067 39.47 25.2234 39.47 24.7745V23.2381C39.47 22.7956 39.293 22.6059 38.8378 22.6059H30.4985V19.9758H40.9305C41.3731 19.9758 41.5627 19.7924 41.5627 19.3435V17.5985C41.5627 17.156 41.3794 16.9663 40.9305 16.9663H27.919C27.4764 16.9663 27.2867 17.1497 27.2867 17.5985V30.3951C27.2867 30.8377 27.4701 31.0274 27.919 31.0274H40.9305C41.3731 31.0274 41.5627 30.844 41.5627 30.3951V28.6691C41.5564 28.2265 41.3731 28.0432 40.9305 28.0432Z" fill="#D50C2D"/>
<path d="M24.3153 16.9663H22.349C21.9064 16.9663 21.7168 17.1497 21.7168 17.5985V22.5743H13.8833V17.5985C13.8833 17.156 13.6999 16.9663 13.251 16.9663H11.2721C10.8232 16.9663 10.6399 17.1497 10.6399 17.5985V30.4014C10.6399 30.8503 10.8232 31.0337 11.2721 31.0337H13.251C13.6936 31.0337 13.8833 30.8566 13.8833 30.4014V25.3435H21.7231V30.4014C21.7231 30.844 21.9064 31.0337 22.3553 31.0337H24.3216C24.7642 31.0337 24.9538 30.8503 24.9538 30.4014V17.5985C24.9412 17.1686 24.7578 16.9663 24.3153 16.9663Z" fill="#D50C2D"/>
</svg>
