<svg width="136" height="48" viewBox="0 0 136 48" fill="none" xmlns="http://www.w3.org/2000/svg">
<path fill-rule="evenodd" clip-rule="evenodd" d="M26.7591 8.19469C34.5938 9.26019 40.6142 15.8991 40.6142 23.9314C40.6142 31.9636 34.5938 38.6845 26.7591 39.668V36.6354H27.8313C30.1404 36.6354 32.1197 34.8323 32.1197 32.3734V26.7181C32.1197 24.751 31.1301 23.4396 29.3157 22.7019C25.7695 21.3086 23.6253 20.7348 23.6253 19.5874V15.3254C23.7077 13.8501 25.7695 14.014 25.7695 15.3254V19.5874H32.2022V15.3254C32.2022 13.7681 31.0476 11.0633 27.8313 11.0633H26.9241V8.03076L26.7591 8.19469ZM22.4707 39.668C14.636 38.6025 8.61566 31.9636 8.61566 23.9314C8.61566 15.8991 14.636 9.26019 22.4707 8.19469V11.2273H21.646C18.677 11.2273 17.1101 13.3583 17.1101 15.4893V20.8988C17.1101 22.538 18.1822 24.1772 19.7492 24.8329C20.7388 25.2427 24.2026 26.8 25.1922 27.2918C25.5221 27.4557 25.687 27.7836 25.687 28.1934V32.4554C25.687 33.6848 23.6253 33.9307 23.5428 32.4554V28.1934H17.1101V32.4554C17.1101 34.9142 19.0894 36.7174 21.481 36.7174H22.4707V39.75V39.668Z" fill="#FF1A00"/>
<path d="M54.0569 20.571C54.0569 21.1447 54.0569 21.5545 53.9744 21.8824C53.8919 22.2102 53.8919 22.4561 53.727 22.6201C53.6445 22.784 53.4796 22.9479 53.3146 22.9479C53.1497 23.0299 52.9023 23.0299 52.6549 23.0299H50.0158V16.9647C50.0158 16.6368 50.0158 16.309 50.0983 16.1451C50.0983 15.9811 50.1807 15.8172 50.3457 15.7353C50.5106 15.6533 50.6756 15.6533 50.923 15.6533H53.9744C54.3043 15.6533 54.6341 15.6533 54.7991 15.7353C55.0465 15.8172 55.2114 15.8992 55.3764 16.1451C55.5413 16.309 55.7063 16.6368 55.7887 17.0466C55.9537 17.4565 56.0361 18.0302 56.2836 18.6859H57.6031L56.7784 14.4239H44.8202V15.4894C45.315 15.4894 45.6449 15.4894 45.8923 15.5713C46.1397 15.6533 46.3871 15.7353 46.4696 15.8172C46.6345 15.9811 46.717 16.1451 46.717 16.4729C46.7995 16.7188 46.7995 17.1286 46.7995 17.6204V30.2425C46.7995 30.7343 46.7995 31.0621 46.717 31.308C46.6345 31.5539 46.5521 31.7998 46.4696 31.9637C46.3046 32.1276 46.1397 32.2096 45.8098 32.2915C45.5624 32.3735 45.1501 32.3735 44.7377 32.3735V33.3571H52.2425V32.3735C51.6652 32.3735 51.2529 32.3735 50.923 32.2915C50.5931 32.2096 50.3457 32.1276 50.1807 32.0457C50.0158 31.8817 49.9333 31.7178 49.8509 31.39C49.7684 31.1441 49.7684 30.7343 49.7684 30.2425V24.4232H52.4074C52.6549 24.4232 52.9023 24.4232 53.0672 24.5052C53.2322 24.5871 53.3971 24.6691 53.4796 24.833C53.562 24.9969 53.6445 25.2428 53.727 25.6526C53.727 25.9805 53.8094 26.4723 53.8094 27.046H55.0465V20.571H53.8094H54.0569ZM66.0151 31.1441C66.18 31.308 66.2625 31.5539 66.3449 31.6359C66.4274 31.7998 66.4274 31.8817 66.4274 31.9637C66.4274 32.1276 66.3449 32.2096 66.18 32.2915C66.0151 32.3735 65.7677 32.3735 65.4378 32.3735V33.2751H71.3756V32.3735C71.2107 32.3735 70.9633 32.3735 70.7983 32.2915C70.6334 32.2096 70.386 32.1276 70.2211 31.8817C69.9736 31.7178 69.7262 31.39 69.4788 30.9802L66.3449 26.2264L69.4788 22.3742C69.7262 22.1283 69.8912 21.8824 70.1386 21.7185C70.3035 21.5545 70.4685 21.4726 70.6334 21.3906C70.7983 21.3087 70.9633 21.3087 71.2107 21.3087V20.4071H67.1696V21.3087C67.4995 21.3087 67.6645 21.3087 67.8294 21.3906C67.9944 21.4726 68.0768 21.5545 67.9944 21.6365C67.9944 21.7185 67.9944 21.8004 67.9119 21.9644C67.8294 22.1283 67.7469 22.2922 67.582 22.4561L65.6852 25.0789H65.6027L64.0358 22.5381C63.8708 22.3742 63.7884 22.1283 63.7059 22.0463C63.6234 21.8824 63.6234 21.8004 63.6234 21.7185C63.6234 21.5545 63.7059 21.4726 63.8708 21.3906C64.0358 21.3087 64.2832 21.3087 64.6131 21.3087V20.4071H58.8401V21.3087C59.0876 21.3087 59.2525 21.3087 59.4174 21.3906C59.5824 21.4726 59.7473 21.5545 59.9947 21.7185C60.1597 21.8824 60.4071 22.2102 60.6545 22.6201L63.4585 26.8821L60.1597 31.1441C59.8298 31.5539 59.4999 31.8817 59.2525 32.0457C59.0051 32.2096 58.6752 32.2915 58.4278 32.2915V33.1931H62.6338V32.2915C62.3039 32.2915 62.0565 32.2915 61.8915 32.2096C61.7266 32.1276 61.6441 32.0457 61.6441 31.8817C61.6441 31.7178 61.7266 31.5539 61.974 31.308L64.2832 28.0295H64.3657L66.18 31.0621L66.0151 31.1441ZM85.8904 19.5055C85.7255 18.7678 85.643 18.0302 85.4781 17.2106C85.3956 16.4729 85.2307 15.7353 85.2307 14.9976C84.6534 14.7517 84.0761 14.5878 83.4988 14.4239C83.004 14.2599 82.5091 14.178 82.0143 14.178C81.602 14.096 81.1896 14.096 80.7773 14.096C79.0454 14.096 77.5609 14.5058 76.4063 15.2435C75.1693 15.9811 74.2621 17.0466 73.6023 18.522C72.9426 19.9153 72.6127 21.7185 72.6127 23.7675C72.6127 25.9805 72.9426 27.7836 73.5199 29.259C74.0972 30.7343 75.0043 31.7998 76.0765 32.6194C77.231 33.3571 78.633 33.7669 80.2824 33.7669C80.8597 33.7669 81.437 33.6849 82.0143 33.521C82.5916 33.3571 83.1689 33.1112 83.7462 32.7014C84.3235 32.2915 84.8183 31.7998 85.2307 31.1441C85.643 30.4884 86.0554 29.6688 86.3853 28.6033L85.1482 28.2754C85.0657 28.6033 84.9008 29.0131 84.7358 29.3409C84.5709 29.7507 84.406 30.0786 84.1586 30.4064C83.9111 30.7343 83.6637 31.0621 83.3338 31.308C83.004 31.5539 82.6741 31.7998 82.2617 31.9637C81.8494 32.1276 81.3546 32.2096 80.8597 32.2096C80.2 32.2096 79.6227 32.0457 79.0454 31.7178C78.4681 31.39 77.9733 30.8982 77.4784 30.1605C76.9836 29.5048 76.6537 28.6033 76.4063 27.4558C76.1589 26.3903 75.994 24.9969 75.994 23.4397C75.994 22.9479 75.994 22.3742 76.0765 21.7185L76.3239 19.9153C76.4888 19.2596 76.6537 18.6859 76.9012 18.1121C77.1486 17.5384 77.4784 17.0466 77.8083 16.5549C78.2207 16.1451 78.633 15.7353 79.1279 15.4894C79.6227 15.2435 80.2824 15.0796 81.0247 15.0796C81.6844 15.0796 82.2617 15.1615 82.6741 15.4074C83.0864 15.5713 83.4163 15.8992 83.6637 16.309C83.9111 16.7188 84.0761 17.1286 84.241 17.7023C84.406 18.2761 84.4884 18.8498 84.6534 19.5875L85.9729 19.3416L85.8904 19.5055ZM96.1168 25.1609L94.3849 25.5707C93.4777 25.7346 92.653 25.9805 91.9932 26.3083C91.251 26.5542 90.6737 26.8821 90.1789 27.2099C89.5191 27.6197 89.1068 28.1115 88.7769 28.6033C88.5295 29.095 88.3645 29.7507 88.3645 30.4064C88.3645 30.9802 88.447 31.4719 88.6944 31.8817C88.9418 32.2915 89.1892 32.6194 89.6016 32.9472C89.9315 33.1931 90.3438 33.439 90.8387 33.521C91.251 33.6849 91.7458 33.6849 92.2406 33.6849C92.9004 33.6849 93.4777 33.6029 93.9725 33.439C94.4673 33.2751 94.8797 33.1112 95.2921 32.8653C95.6219 32.6194 95.9518 32.3735 96.2817 32.0457H96.3642C96.4466 32.3735 96.6116 32.6194 96.7765 32.8653C96.9415 33.1112 97.1889 33.1931 97.5188 33.3571C97.8486 33.439 98.1785 33.521 98.5909 33.521C99.0857 33.521 99.498 33.521 99.8279 33.439L100.818 33.1931L100.653 32.3735L100.323 32.5374L99.9104 32.6194C99.663 32.6194 99.4156 32.4555 99.3331 32.2096C99.1682 31.8817 99.0857 31.4719 99.0857 30.8162V24.7511C99.0857 23.8495 98.9208 23.1118 98.6733 22.5381C98.4259 21.9644 98.0136 21.5545 97.6012 21.2267C97.1064 20.8989 96.6116 20.7349 96.0343 20.571C95.457 20.489 94.7972 20.4071 94.1375 20.4071C93.2303 20.4071 92.4881 20.489 91.8283 20.653C91.1685 20.8169 90.6737 21.0628 90.2614 21.3087C89.849 21.5545 89.5191 21.8824 89.3542 22.2102C89.1892 22.5381 89.0243 22.8659 89.0243 23.1938C89.0243 23.3577 89.0243 23.5216 89.1068 23.6856C89.1892 23.8495 89.2717 23.9314 89.4367 24.0954C89.6016 24.1773 89.849 24.2593 90.0964 24.2593C90.5088 24.2593 90.7562 24.1773 91.0036 24.0134C91.1685 23.8495 91.3335 23.6856 91.4159 23.3577C91.5809 22.9479 91.7458 22.6201 91.9932 22.2922C92.2406 21.9644 92.4881 21.8004 92.8179 21.6365C93.1478 21.4726 93.5602 21.3906 93.9725 21.3906C94.4673 21.3906 94.8797 21.4726 95.2096 21.6365C95.5395 21.8004 95.7869 22.1283 95.9518 22.5381C96.1168 22.9479 96.1992 23.4397 96.1992 24.0954V25.2428L96.1168 25.1609ZM96.1168 30.9802C95.9518 31.226 95.7044 31.39 95.457 31.5539C95.2096 31.7178 94.9622 31.8817 94.6323 32.0457C94.3024 32.2096 93.9725 32.2096 93.5602 32.2096C93.3128 32.2096 93.1478 32.2096 92.8179 32.1276C92.5705 32.0457 92.3231 31.9637 92.1582 31.7998C91.9108 31.6359 91.7458 31.39 91.5809 31.0621C91.4159 30.7343 91.3335 30.3245 91.3335 29.8327C91.3335 29.3409 91.4984 28.8492 91.7458 28.4393C91.9932 28.0295 92.4056 27.7017 92.8179 27.4558C93.2303 27.128 93.8076 26.8821 94.3024 26.7181C94.8797 26.4723 95.457 26.3083 96.0343 26.1444V30.9802H96.1168ZM101.725 29.7507C101.807 30.3245 101.972 30.8162 102.055 31.308L102.302 32.8653C102.632 33.0292 103.044 33.1112 103.457 33.2751C103.869 33.3571 104.364 33.521 104.859 33.521C105.353 33.6029 105.931 33.6029 106.508 33.6029C107.333 33.6029 108.157 33.521 108.817 33.2751C109.477 33.1112 110.054 32.7833 110.467 32.4555C110.961 32.1276 111.291 31.7178 111.539 31.226C111.786 30.7343 111.869 30.2425 111.869 29.7507C111.869 29.0131 111.621 28.2754 111.044 27.6197C110.467 26.964 109.724 26.3903 108.652 25.8985C108.405 25.7346 108.157 25.5707 107.828 25.4887L106.838 24.9969C106.508 24.833 106.178 24.6691 105.931 24.5052C105.601 24.2593 105.353 24.0134 105.189 23.7675C105.024 23.5216 104.941 23.1938 104.941 22.8659C104.941 22.5381 105.024 22.2922 105.189 22.1283C105.353 21.8824 105.518 21.7185 105.766 21.6365C106.013 21.4726 106.261 21.3906 106.508 21.3087C106.755 21.2267 107.085 21.2267 107.25 21.2267C107.745 21.2267 108.24 21.3087 108.57 21.4726C108.9 21.6365 109.23 21.8824 109.477 22.2922C109.724 22.702 109.889 23.1938 110.054 23.8495L110.961 23.6856C110.879 23.2757 110.796 22.8659 110.714 22.5381C110.632 22.2102 110.632 21.8824 110.549 21.6365C110.467 21.3906 110.467 21.0628 110.467 20.8169C110.054 20.653 109.477 20.489 108.9 20.4071C108.322 20.3251 107.663 20.2432 106.92 20.2432C106.013 20.2432 105.271 20.3251 104.694 20.489C104.034 20.653 103.539 20.8989 103.127 21.2267C102.714 21.5545 102.467 21.8824 102.22 22.2922C102.055 22.702 101.972 23.1118 101.972 23.5216C101.972 23.9314 102.055 24.3413 102.22 24.7511C102.385 25.0789 102.549 25.4068 102.797 25.7346C103.044 25.9805 103.292 26.2264 103.539 26.3903L104.446 26.964C104.776 27.128 105.106 27.3738 105.518 27.5378C105.931 27.7836 106.343 27.9476 106.673 28.1935C107.003 28.3574 107.25 28.5213 107.498 28.6852C107.745 28.8492 107.91 29.0131 108.075 29.177C108.24 29.3409 108.405 29.5868 108.487 29.7507C108.57 29.9966 108.57 30.1605 108.57 30.4884C108.57 30.7343 108.487 30.9802 108.405 31.226C108.322 31.4719 108.157 31.7178 107.992 31.9637C107.745 32.2096 107.498 32.3735 107.168 32.5374C106.838 32.7014 106.426 32.7833 105.848 32.7833C105.271 32.7833 104.776 32.7014 104.364 32.5374C103.951 32.3735 103.539 32.0457 103.209 31.5539C102.879 31.1441 102.632 30.4884 102.385 29.6688L101.477 29.8327L101.725 29.7507ZM113.353 33.3571H119.126V32.4555C118.879 32.4555 118.631 32.4555 118.466 32.3735C118.301 32.2915 118.136 32.2096 118.054 32.1276C117.971 31.9637 117.889 31.7998 117.889 31.5539C117.889 31.308 117.806 30.8982 117.889 30.4884V23.9314C118.219 23.4397 118.631 23.0299 118.961 22.702C119.291 22.3742 119.703 22.0463 120.033 21.8824C120.446 21.7185 120.775 21.5545 121.188 21.5545C121.683 21.5545 122.012 21.6365 122.342 21.8824C122.59 22.0463 122.837 22.2922 122.92 22.6201C123.085 22.9479 123.167 23.2757 123.167 23.6856L123.25 24.915V31.4719C123.25 31.7178 123.167 31.9637 123.085 32.0457C123.002 32.2096 122.837 32.2915 122.672 32.2915C122.507 32.2915 122.26 32.3735 121.93 32.3735V33.2751H127.62V32.3735C127.208 32.3735 126.878 32.3735 126.713 32.2096C126.548 32.1276 126.383 31.9637 126.301 31.6359C126.218 31.39 126.218 30.8982 126.218 30.4064V23.6856C126.218 23.2757 126.136 22.8659 125.971 22.4561C125.889 22.0463 125.641 21.6365 125.394 21.3087C125.146 20.9808 124.734 20.653 124.239 20.489C123.744 20.2432 123.167 20.1612 122.342 20.1612C121.765 20.1612 121.188 20.2432 120.693 20.4071C120.198 20.571 119.703 20.8169 119.208 21.1447C118.796 21.4726 118.301 21.8824 117.971 22.2922H117.889V13.7682L117.559 13.6042C116.899 13.9321 116.157 14.178 115.497 14.4239C114.838 14.5878 114.095 14.7517 113.436 14.8337V15.6533C113.765 15.6533 114.095 15.6533 114.26 15.7353C114.508 15.8172 114.673 15.8992 114.755 15.9811C114.838 16.0631 114.92 16.309 115.002 16.5549C115.002 16.8008 115.085 17.1286 115.085 17.5384V30.4064C115.085 30.8162 115.085 31.226 115.002 31.4719C115.002 31.7178 114.92 31.9637 114.755 32.0457C114.673 32.2096 114.508 32.2915 114.26 32.2915C114.013 32.3735 113.765 32.3735 113.353 32.3735V33.2751V33.3571Z" fill="#1F1B20"/>
</svg>
