<svg width="136" height="48" viewBox="0 0 136 48" fill="none" xmlns="http://www.w3.org/2000/svg">
<path d="M124.404 12.3718C124.404 12.2779 124.378 12.2109 124.326 12.167C124.267 12.1198 124.166 12.0946 124.025 12.0946H123.823V12.6525H124.067C124.293 12.6525 124.404 12.5587 124.404 12.3718ZM124.719 13.535H124.441L124.264 13.1424C124.174 12.9458 124.078 12.8474 123.973 12.8474H123.823V13.535H123.594V11.8988H124.053C124.257 11.8988 124.41 11.9432 124.515 12.0356C124.605 12.1152 124.649 12.2172 124.649 12.3441C124.649 12.4568 124.613 12.5515 124.539 12.6301C124.468 12.7097 124.366 12.7634 124.235 12.7911V12.7982C124.326 12.8197 124.416 12.9198 124.505 13.1004L124.719 13.5358V13.535ZM125.227 12.733C125.227 12.4111 125.118 12.1393 124.9 11.9239C124.68 11.7084 124.413 11.6003 124.097 11.6003C123.772 11.6003 123.501 11.7084 123.286 11.9257C123.072 12.1438 122.965 12.4138 122.965 12.733C122.965 13.0593 123.076 13.332 123.297 13.5492C123.515 13.7665 123.783 13.8738 124.097 13.8738C124.41 13.8738 124.678 13.7656 124.898 13.5456C125.118 13.3293 125.227 13.0575 125.227 12.733ZM125.382 12.7259C125.382 13.0871 125.258 13.3902 125.009 13.6342C124.76 13.8801 124.456 14.0026 124.091 14.0026C123.724 14.0026 123.419 13.8819 123.177 13.645C122.934 13.4045 122.814 13.1023 122.814 12.7358C122.814 12.3772 122.937 12.076 123.183 11.8284C123.429 11.5816 123.736 11.4583 124.102 11.4583C124.461 11.4583 124.762 11.5762 125.006 11.8113C125.257 12.0527 125.382 12.3567 125.382 12.7259Z" fill="black"/>
<path d="M90.5222 17.2882H89.7317V12.7501C89.7317 12.3916 89.7553 11.9553 89.7973 11.4404H89.7795C89.7055 11.7416 89.6378 11.9598 89.5781 12.0948L87.2804 17.2882H86.8954L84.5933 12.1324C84.5284 11.9884 84.4605 11.7568 84.3918 11.4404H84.3747C84.399 11.7113 84.4125 12.1502 84.4125 12.759V17.2882H83.6505V10.5303H84.6932L86.7601 15.2427C86.916 15.5976 87.0168 15.8676 87.0658 16.0518H87.0985C87.2331 15.6825 87.34 15.4054 87.4212 15.223L89.5325 10.5303H90.5218V17.2882H90.5222Z" fill="black"/>
<path d="M92.954 17.288H92.1858V12.462H92.954V17.288ZM93.0868 10.7321C93.0868 10.8742 93.0369 10.9931 92.9379 11.0906C92.8408 11.188 92.7205 11.2372 92.5796 11.2372C92.4424 11.2372 92.3229 11.19 92.225 11.096C92.1269 11.0012 92.0787 10.8805 92.0787 10.7321C92.0787 10.5926 92.1272 10.4737 92.225 10.3772C92.3229 10.2806 92.4424 10.2341 92.5796 10.2341C92.7204 10.2341 92.8408 10.2806 92.9379 10.3772C93.0369 10.4737 93.0868 10.5926 93.0868 10.7321Z" fill="black"/>
<path d="M97.755 17.0647C97.386 17.2918 96.9457 17.4044 96.4368 17.4044C95.747 17.4044 95.1918 17.1747 94.7675 16.716C94.3558 16.2708 94.1481 15.696 94.1481 14.9915C94.1481 14.2011 94.3736 13.561 94.8281 13.0747C95.28 12.5874 95.8879 12.3442 96.6526 12.3442C97.0705 12.3442 97.4413 12.4265 97.7657 12.5892V13.3822C97.4066 13.1292 97.0269 13.004 96.6196 13.004C96.1294 13.004 95.731 13.1757 95.4217 13.5181C95.0999 13.8686 94.9369 14.337 94.9369 14.9217C94.9369 15.4832 95.0857 15.9275 95.3816 16.2556C95.6784 16.5819 96.0733 16.7455 96.5714 16.7455C96.9921 16.7455 97.386 16.6069 97.755 16.3307V17.0647Z" fill="black"/>
<path d="M101.43 13.2449C101.294 13.1403 101.099 13.0893 100.842 13.0893C100.529 13.0893 100.266 13.2297 100.053 13.5131C99.8112 13.8296 99.6909 14.2677 99.6909 14.8273V17.2877H98.9209V12.4617H99.6909V13.4568H99.7095C99.8227 13.1046 99.9974 12.8336 100.231 12.6415C100.449 12.4662 100.696 12.3777 100.968 12.3777C101.173 12.3777 101.325 12.3999 101.43 12.4435V13.2445L101.43 13.2449Z" fill="black"/>
<path d="M105.721 14.8835C105.721 14.2658 105.582 13.7937 105.304 13.4701C105.034 13.159 104.657 13.0034 104.172 13.0034C103.693 13.0034 103.309 13.1608 103.022 13.4755C102.718 13.8116 102.566 14.2863 102.566 14.9023C102.566 15.4799 102.711 15.9331 103.002 16.2567C103.292 16.5822 103.682 16.7449 104.172 16.7449C104.678 16.7449 105.066 16.5795 105.331 16.2505C105.591 15.9287 105.721 15.4736 105.721 14.8835ZM106.511 14.8563C106.511 15.6252 106.295 16.243 105.863 16.7061C105.43 17.171 104.847 17.4035 104.115 17.4035C103.393 17.4035 102.818 17.171 102.396 16.7061C101.984 16.2582 101.776 15.6663 101.776 14.9306C101.776 14.0911 102.01 13.4438 102.481 12.9843C102.916 12.5578 103.498 12.3433 104.227 12.3433C104.944 12.3433 105.505 12.5676 105.909 13.012C106.309 13.459 106.511 14.0741 106.511 14.8563Z" fill="black"/>
<path d="M110.33 15.9967C110.33 16.3919 110.183 16.7191 109.888 16.9802C109.566 17.2627 109.124 17.4039 108.568 17.4039C108.113 17.4039 107.713 17.3083 107.375 17.1134V16.2828C107.752 16.5904 108.168 16.7451 108.625 16.7451C109.235 16.7451 109.541 16.5198 109.541 16.071C109.541 15.8823 109.473 15.7259 109.338 15.6052C109.203 15.4818 108.94 15.3343 108.549 15.1617C108.146 14.9847 107.859 14.8033 107.689 14.6146C107.486 14.3911 107.384 14.1005 107.384 13.7429C107.384 13.3424 107.543 13.0089 107.859 12.7434C108.175 12.477 108.582 12.3438 109.081 12.3438C109.463 12.3438 109.805 12.4188 110.109 12.57V13.3478C109.792 13.118 109.429 13.0035 109.017 13.0035C108.762 13.0035 108.557 13.0672 108.405 13.1913C108.251 13.3182 108.173 13.4801 108.173 13.6776C108.173 13.8913 108.238 14.0576 108.367 14.1765C108.481 14.2865 108.723 14.4206 109.089 14.577C109.5 14.7496 109.796 14.9284 109.977 15.1116C110.212 15.3432 110.33 15.6383 110.33 15.9967Z" fill="black"/>
<path d="M115.036 14.8835C115.036 14.2658 114.897 13.7937 114.618 13.4701C114.349 13.159 113.971 13.0034 113.486 13.0034C113.008 13.0034 112.624 13.1608 112.335 13.4755C112.032 13.8116 111.881 14.2863 111.881 14.9023C111.881 15.4799 112.026 15.9331 112.314 16.2567C112.608 16.5822 112.998 16.7449 113.486 16.7449C113.993 16.7449 114.38 16.5795 114.646 16.2505C114.906 15.9287 115.036 15.4736 115.036 14.8835ZM115.828 14.8563C115.828 15.6252 115.609 16.243 115.177 16.7061C114.746 17.171 114.163 17.4035 113.43 17.4035C112.707 17.4035 112.133 17.171 111.711 16.7061C111.298 16.2582 111.091 15.6663 111.091 14.9306C111.091 14.0911 111.327 13.4438 111.795 12.9843C112.23 12.5578 112.813 12.3433 113.543 12.3433C114.26 12.3433 114.82 12.5676 115.223 13.012C115.624 13.459 115.828 14.0741 115.828 14.8563Z" fill="black"/>
<path d="M119.221 10.8222C119.069 10.7381 118.901 10.6952 118.709 10.6952C118.17 10.6952 117.903 11.0358 117.903 11.718V12.4618H119.03V13.1162H117.903V17.2877H117.132V13.1162H116.314V12.4618H117.132V11.6795C117.132 11.1484 117.294 10.7318 117.624 10.4314C117.906 10.1704 118.252 10.0408 118.663 10.0408C118.901 10.0408 119.086 10.0694 119.221 10.1248V10.8222Z" fill="black"/>
<path d="M122.26 17.2393C122.078 17.344 121.836 17.3958 121.537 17.3958C120.697 17.3958 120.277 16.9211 120.277 15.9716V13.117H119.452V12.4617H120.277V11.2843C120.523 11.2065 120.779 11.1215 121.049 11.0339V12.4617H122.26V13.117H121.049V15.8402C121.049 16.1639 121.102 16.3954 121.212 16.5295C121.324 16.6681 121.505 16.736 121.762 16.736C121.954 16.736 122.119 16.6845 122.26 16.5805V17.2393Z" fill="black"/>
<path d="M80.6314 36.1227C80.6314 36.5009 80.4969 36.8281 80.225 37.1044C79.9541 37.3798 79.6252 37.5184 79.2393 37.5184C78.8623 37.5184 78.5414 37.3798 78.2785 37.1044C78.0156 36.8281 77.8846 36.5009 77.8846 36.1227C77.8846 35.7339 78.0156 35.4058 78.2785 35.134C78.5414 34.8613 78.8623 34.7263 79.2393 34.7263C79.6252 34.7263 79.9541 34.8631 80.225 35.1394C80.4969 35.4157 80.6314 35.7437 80.6314 36.1227Z" fill="black"/>
<path d="M97.8735 37.2343H95.3619L86.2453 23.1114C86.0322 22.7717 85.8486 22.4024 85.6927 21.9992H85.6178C85.6826 22.3774 85.7159 23.1891 85.7159 24.4328V37.2343H83.6454V19.5156H86.3326L95.1766 33.4159C95.5286 33.9675 95.7692 34.3627 95.8913 34.6005H95.9405C95.8585 34.0909 95.8158 33.2219 95.8158 31.9953V19.5156H97.8737V37.2343H97.8735Z" fill="black"/>
<path d="M111.146 37.2343H101.785V19.5156H110.74V21.3931H103.853V27.2873H110.235V29.1657H103.853V35.356H111.146V37.2343Z" fill="black"/>
<path d="M125.347 21.3932H120.258V37.2344H118.189V21.3932H113.091V19.5149H125.347V21.3932Z" fill="black"/>
<path d="M67.6188 35.36H67.0073V37.2667H66.7578V35.36H66.1441V35.1331H67.6188V35.36Z" fill="black"/>
<path d="M70.1229 37.2665H69.8746V35.8337C69.8746 35.7207 69.8834 35.5823 69.895 35.4195C69.8693 35.517 69.8481 35.5846 69.8287 35.6277L69.1046 37.2665H68.9832L68.2568 35.6399C68.2356 35.5948 68.2144 35.5214 68.1915 35.4195H68.1827C68.1915 35.5055 68.1943 35.6444 68.1943 35.837V37.2665H67.9559V35.1328H68.2848L68.9372 36.622C68.9866 36.7339 69.0175 36.8203 69.0332 36.8779H69.0429C69.0862 36.7605 69.1215 36.673 69.1456 36.6154L69.8112 35.1328H70.1246V37.2665H70.1229Z" fill="black"/>
<path d="M34.4582 16.1316C36.9319 23.7198 37.8691 37.2564 45.1027 37.2564C45.6535 37.2564 46.2098 37.2023 46.7684 37.0958C40.1927 35.5578 39.4134 22.1684 35.4009 15.2346C35.0863 15.5214 34.7739 15.8204 34.4582 16.1316Z" fill="url(#paint0_linear_47_3651)"/>
<path d="M35.4009 15.2346C39.4135 22.1685 40.1928 35.5578 46.7684 37.0958C47.285 37.0006 47.8028 36.8566 48.3216 36.675C42.4193 33.7739 40.7877 20.7722 36.231 14.5127C35.955 14.7431 35.678 14.9845 35.4009 15.2346Z" fill="url(#paint1_linear_47_3651)"/>
<path d="M41.1823 11.1111C40.6326 11.1111 40.0751 11.1651 39.5155 11.2717C38.0517 11.5485 36.5649 12.1807 35.0659 13.1374C35.4754 13.5427 35.865 14.0066 36.2314 14.5127C37.7559 13.2437 39.2704 12.3059 40.7794 11.7422C41.3456 11.5319 41.9098 11.3736 42.476 11.2695C42.0676 11.1653 41.6371 11.1111 41.1823 11.1111Z" fill="#14559A"/>
<path d="M52.9291 34.001C53.5329 33.5194 54.1378 32.9867 54.7439 32.4055C52.2304 24.8526 51.3308 11.1223 44.0464 11.1223C43.5254 11.1223 42.9999 11.171 42.4756 11.2685C49.1109 12.9239 49.9609 27.4049 52.9291 34.001Z" fill="url(#paint2_linear_47_3651)"/>
<path d="M42.4758 11.2691C42.0674 11.165 41.6369 11.1108 41.1821 11.1108L44.0466 11.1214C43.5256 11.1214 43.0002 11.1701 42.4758 11.2687" fill="#3092C4"/>
<path d="M52.8019 35.6056C52.5171 35.3332 52.2467 35.0342 51.9806 34.7153C50.7553 35.5856 49.5344 36.2456 48.3214 36.6752C48.7529 36.8868 49.2055 37.044 49.6857 37.1414C50.0577 37.2176 50.443 37.2566 50.848 37.2566C52.2091 37.2566 53.2854 37.0949 54.2015 36.6542C53.6971 36.3807 53.2346 36.0264 52.8019 35.6056Z" fill="#1969BC"/>
<path d="M40.7789 11.7436C46.7221 14.8617 47.2387 28.9818 51.9809 34.7153C52.2988 34.4906 52.6134 34.2525 52.928 34.0011C49.9597 27.405 49.1108 12.9228 42.4767 11.2686C41.9104 11.3748 41.3452 11.5322 40.7789 11.7436Z" fill="url(#paint3_linear_47_3651)"/>
<path d="M36.231 14.5129C40.7877 20.7724 42.4193 33.7742 48.3216 36.6752C49.5347 36.2456 50.7556 35.5857 51.9808 34.7153C47.2387 28.9818 46.7221 14.8617 40.7789 11.7437C39.2699 12.3061 37.7554 13.244 36.231 14.5129Z" fill="url(#paint4_linear_47_3651)"/>
<path d="M31.5429 15.9491C30.8287 17.5691 30.099 19.6984 29.217 22.4777C30.9711 19.9984 32.7196 17.8625 34.4581 16.1319C34.2186 15.3933 33.9614 14.7123 33.6844 14.1055C32.9735 14.6514 32.2571 15.266 31.5429 15.9491Z" fill="url(#paint5_linear_47_3651)"/>
<path d="M34.3178 13.6382C34.108 13.7888 33.8972 13.9427 33.6853 14.1055C33.9623 14.7123 34.2184 15.3933 34.458 16.1318C34.7736 15.8217 35.0871 15.5217 35.4006 15.2349C35.064 14.6547 34.7063 14.1187 34.3178 13.6382Z" fill="#2B74B1"/>
<path d="M35.0659 13.1375C34.8164 13.2958 34.5681 13.463 34.3174 13.6379C34.706 14.1185 35.0636 14.6544 35.4014 15.2358C35.6785 14.9844 35.9556 14.7419 36.2315 14.5127C35.8651 14.0067 35.4754 13.5427 35.0659 13.1375Z" fill="#125A9E"/>
<path d="M75.6033 10.5333C72.242 23.5361 65.2215 33.98 59.3358 36.6131H59.3246C59.2175 36.6619 59.1116 36.7062 59.0067 36.7493C58.9923 36.7581 58.9792 36.7592 58.968 36.7644C58.9371 36.7769 58.9084 36.7866 58.8775 36.799C58.8631 36.8078 58.8499 36.8106 58.8367 36.8159C58.7871 36.8336 58.7385 36.8486 58.6899 36.8681C58.6689 36.8769 58.6491 36.8824 58.6291 36.8894C58.607 36.8982 58.5816 36.9063 58.5563 36.9134C58.5342 36.9221 58.5111 36.9285 58.4856 36.9381C58.4646 36.9469 58.4426 36.9506 58.4228 36.9594C58.3797 36.9719 58.34 36.9824 58.2969 36.9975C58.2792 36.9975 58.2627 37.0071 58.2439 37.0117C58.2174 37.0205 58.1876 37.0269 58.1589 37.0348C58.139 37.0436 58.1225 37.0464 58.1015 37.0508C58.0717 37.0596 58.0385 37.0677 58.0088 37.0747C57.969 37.0835 57.9337 37.0916 57.8962 37.0995C58.1622 37.1981 58.4393 37.2479 58.7384 37.2479C64.3195 37.2479 69.9469 27.2148 79.258 10.5303H75.602L75.6033 10.5333Z" fill="url(#paint6_linear_47_3651)"/>
<path d="M28.005 11.6387C28.0085 11.6387 28.0129 11.6299 28.0151 11.6299C28.0194 11.6299 28.0262 11.6299 28.0284 11.6211C28.0284 11.6211 28.0328 11.6211 28.0354 11.6211C28.0663 11.6106 28.095 11.5981 28.1259 11.5866C28.1338 11.5866 28.1379 11.5866 28.1436 11.5778C28.1515 11.5778 28.1591 11.5691 28.1668 11.568C28.2 11.5574 28.2331 11.5449 28.264 11.5334C28.264 11.5334 28.2675 11.5334 28.2692 11.5334C28.3432 11.5113 28.4116 11.4838 28.4834 11.4581C28.4934 11.4581 28.5033 11.4493 28.5153 11.4493C28.5452 11.4397 28.5761 11.429 28.607 11.4219C28.6214 11.4131 28.6357 11.4131 28.6489 11.4085C28.6809 11.3989 28.7119 11.3881 28.7416 11.381C28.755 11.381 28.7671 11.3723 28.777 11.3714C28.8796 11.3431 28.9812 11.3165 29.0838 11.2917C29.0983 11.2917 29.1103 11.2829 29.1258 11.282C29.1555 11.2733 29.1832 11.2686 29.2152 11.2642C29.2285 11.2555 29.2439 11.2555 29.2594 11.2509C29.2891 11.2421 29.3178 11.2412 29.3499 11.234C29.3577 11.234 29.3619 11.234 29.3709 11.234C29.4327 11.2215 29.4956 11.211 29.5574 11.1995C29.5686 11.1995 29.5828 11.1995 29.5949 11.1995C29.6247 11.1907 29.6512 11.1898 29.6811 11.1843C29.6975 11.1843 29.7142 11.1755 29.7296 11.1755C29.7572 11.1755 29.7848 11.1668 29.8124 11.163C29.8268 11.163 29.841 11.163 29.8577 11.1543C29.9227 11.1455 29.9901 11.142 30.0585 11.1365C29.8654 11.1178 29.6667 11.1055 29.4647 11.1055C23.1793 11.1055 14.5196 22.8039 10.6185 37.9537C10.6185 37.9537 10.9033 37.9537 11.3703 37.9537C12.6187 35.7204 13.7402 33.6077 14.7657 31.6245C17.4978 20.8939 23.0623 13.5758 28.0054 11.637" fill="url(#paint7_linear_47_3651)"/>
<path d="M31.543 15.9491C32.2572 15.266 32.9736 14.6514 33.6845 14.1055C33.5222 13.749 33.3544 13.419 33.1744 13.1167C32.5994 13.8165 32.074 14.74 31.543 15.9491Z" fill="#0D82CA"/>
<path d="M32.0592 11.7275C32.4698 12.0729 32.8373 12.548 33.1741 13.1171C33.28 12.9865 33.3871 12.8657 33.4986 12.7528C33.0317 12.3155 32.5272 11.9567 31.9797 11.6865C32.0018 11.6988 32.0238 11.7087 32.0468 11.7184C32.0468 11.7184 32.0555 11.7272 32.0592 11.7272" fill="#0D82CA"/>
<path d="M14.7654 31.626C20.4967 20.5476 23.2122 13.5363 28.0051 11.6384C23.0631 13.5785 17.4975 20.8965 14.7654 31.626Z" fill="url(#paint8_linear_47_3651)"/>
<path d="M33.4982 12.7527C33.3868 12.8668 33.2808 12.9864 33.1737 13.117C33.3537 13.4193 33.5214 13.7482 33.6848 14.1058C33.8968 13.9431 34.1076 13.7891 34.3173 13.6385C34.058 13.3174 33.7842 13.0196 33.4982 12.7527Z" fill="#127BCA"/>
<path d="M17.3672 37.9053C17.3319 37.9141 17.2966 37.9141 17.2635 37.9178C17.2524 37.9178 17.2502 37.9178 17.2436 37.9178C17.2137 37.9178 17.1828 37.9266 17.1553 37.9266C17.1553 37.9266 17.1442 37.9266 17.1409 37.9266C17.0692 37.9354 16.9985 37.9354 16.93 37.9409H16.908C22.7087 37.778 25.3602 34.8647 26.676 30.6393C27.6761 27.436 28.4974 24.7375 29.2171 22.4731C26.7875 25.9035 24.3468 29.9927 21.893 34.5735C20.7096 36.7815 18.9104 37.7038 17.3672 37.901" fill="url(#paint9_linear_47_3651)"/>
<path d="M17.3672 37.9031C18.9104 37.706 20.7097 36.7847 21.8931 34.5757C24.3469 29.996 26.7887 25.9057 29.216 22.4753C30.0991 19.6949 30.8277 17.5668 31.543 15.9468C26.7048 20.5664 21.8478 28.2476 17.3672 37.9009" fill="url(#paint10_linear_47_3651)"/>
<path d="M14.7652 31.6262C13.7398 33.6094 12.6183 35.7221 11.3698 37.9555C11.9096 37.9555 12.6911 37.9555 13.5565 37.9555C13.8458 35.7375 14.2564 33.6226 14.7652 31.6273" fill="#05A1E6"/>
<path d="M29.8573 11.1601C29.8396 11.1601 29.8264 11.1689 29.811 11.1689C29.7845 11.1777 29.7568 11.1777 29.7293 11.1805C29.7129 11.1805 29.6973 11.1805 29.6807 11.1893C29.6509 11.1981 29.6233 11.199 29.5946 11.2044C29.5813 11.2044 29.5681 11.2044 29.5571 11.2132C29.4941 11.2237 29.4323 11.2354 29.3705 11.246C29.3596 11.246 29.3561 11.246 29.3495 11.246C29.3175 11.2548 29.2888 11.2594 29.259 11.2637C29.2435 11.2725 29.2281 11.2725 29.2137 11.276C29.1839 11.2848 29.1541 11.2885 29.1254 11.2938C29.1099 11.3026 29.0979 11.3026 29.0834 11.3035C28.9808 11.3283 28.8792 11.3548 28.7766 11.3832C28.7656 11.3832 28.7545 11.392 28.7412 11.3937C28.7103 11.4025 28.6805 11.4115 28.6485 11.4212C28.6352 11.43 28.6198 11.4299 28.6066 11.4334C28.5757 11.4422 28.5448 11.4512 28.515 11.4609C28.5029 11.4609 28.4929 11.4697 28.4818 11.4697C28.4112 11.4963 28.3417 11.5228 28.2688 11.545C28.2379 11.5546 28.2048 11.5671 28.1717 11.5786C28.1583 11.5874 28.1462 11.5894 28.1309 11.5955C28.0999 11.6052 28.069 11.6177 28.0403 11.6292C28.0294 11.638 28.0183 11.6388 28.0106 11.6434C23.2176 13.5413 20.5021 20.5527 14.7709 31.6311C14.262 33.6264 13.8503 35.7413 13.5622 37.9592H13.8691C14.7334 37.9592 14.9773 37.9504 15.9719 37.9504H16.0227H16.1706H16.2214H16.2358H16.2865H16.3153H16.3351H16.3749H16.4985H16.6221H16.7259H16.7534C16.8131 37.9504 16.8738 37.9504 16.9356 37.9504C17.004 37.9416 17.0747 37.9416 17.1464 37.9362C17.1464 37.9362 17.1575 37.9362 17.1597 37.9362C17.1895 37.9362 17.2193 37.9274 17.248 37.9274C17.259 37.9274 17.2601 37.9274 17.2689 37.9274C17.3009 37.9274 17.3373 37.9186 17.3727 37.9149C21.8532 28.2616 26.7102 20.5803 31.5484 15.9607C32.0804 14.7516 32.6048 13.8281 33.1788 13.1294C32.8432 12.5603 32.4757 12.0842 32.065 11.7386C32.065 11.7386 32.0539 11.7386 32.053 11.7298C32.0298 11.7202 32.0078 11.7086 31.9846 11.6971C31.9613 11.6846 31.9415 11.6749 31.9172 11.6625C31.8963 11.6537 31.872 11.6421 31.851 11.6306C31.8223 11.6218 31.7991 11.6093 31.7738 11.5978C31.7528 11.589 31.734 11.5801 31.713 11.5713C31.6699 11.5544 31.6269 11.5367 31.5861 11.5181C31.5673 11.5093 31.5497 11.5048 31.5319 11.4977C31.5022 11.487 31.4679 11.4729 31.437 11.4596C31.4215 11.4509 31.4039 11.4491 31.3862 11.4427C31.341 11.4276 31.2968 11.4117 31.2548 11.3975C31.2439 11.3975 31.2439 11.3975 31.2439 11.3975C31.1931 11.3806 31.1435 11.3683 31.0916 11.3541C31.0795 11.3454 31.0695 11.3454 31.0574 11.3436C31.0121 11.3311 30.9724 11.3188 30.9294 11.3073C30.9184 11.3073 30.9084 11.2985 30.8996 11.2985C30.7958 11.2711 30.6888 11.2489 30.5806 11.2285C30.5694 11.2285 30.5585 11.2198 30.5475 11.2198C30.5011 11.211 30.4558 11.2029 30.4095 11.1976C30.3983 11.1888 30.3918 11.1889 30.3819 11.1889C30.3268 11.1801 30.2727 11.1737 30.2186 11.1676C30.2076 11.1676 30.1997 11.1676 30.1899 11.1676C30.1457 11.1588 30.1049 11.1579 30.064 11.1533C29.9945 11.1621 29.9283 11.1658 29.8631 11.172" fill="url(#paint11_linear_47_3651)"/>
<path d="M62.4741 17.7317C61.3713 21.2751 60.4783 24.1983 59.7012 26.6033C62.7268 22.4266 65.7072 17.1725 68.5453 11.1091C65.2348 12.1521 63.4686 14.5395 62.4741 17.7317Z" fill="url(#paint12_linear_47_3651)"/>
<path d="M59.7972 36.3918C59.6427 36.4707 59.4882 36.5457 59.3358 36.6133C65.2216 33.9801 72.2421 23.5362 75.6034 10.5334H74.9223C67.1997 24.3711 64.716 33.6347 59.7972 36.3918Z" fill="url(#paint13_linear_47_3651)"/>
<path d="M55.9539 35.229C57.2344 33.6611 58.2775 30.9959 59.7015 26.6033C58.0589 28.8666 56.4054 30.8121 54.7507 32.3988C54.7507 32.4076 54.7507 32.4076 54.7419 32.4131C55.103 33.4982 55.4992 34.4559 55.9507 35.2288" fill="#079AE1"/>
<path d="M55.954 35.229C55.5179 35.7627 55.0566 36.1692 54.5432 36.4703C54.4307 36.5359 54.317 36.5976 54.201 36.6541C54.7431 36.9475 55.3347 37.1436 55.997 37.2221C56.094 37.2318 56.1901 37.2408 56.2906 37.2478H56.3083C56.3534 37.2478 56.4011 37.2478 56.4496 37.2566H56.4691C56.5177 37.2566 56.5664 37.2566 56.6138 37.2566C56.6659 37.2566 56.7175 37.2566 56.7694 37.2566C56.7863 37.2566 56.8021 37.2566 56.818 37.2566C56.8534 37.2566 56.8913 37.2566 56.9284 37.2566C56.9461 37.2566 56.9646 37.2566 56.9823 37.2478C57.0167 37.2478 57.0529 37.2478 57.0882 37.239C57.097 37.239 57.097 37.239 57.1007 37.239C57.1149 37.239 57.1272 37.239 57.1404 37.239C57.1766 37.239 57.2164 37.2303 57.2552 37.2265H57.264C57.2756 37.2265 57.2878 37.2178 57.2993 37.2178C57.3399 37.209 57.3823 37.2053 57.4219 37.1991C57.4352 37.1991 57.4448 37.1991 57.4581 37.1991C57.5031 37.1903 57.5497 37.1849 57.596 37.1761H57.6048C57.6135 37.1761 57.6144 37.1761 57.6181 37.1761C57.7108 37.1583 57.8014 37.1407 57.8929 37.1176C57.1335 36.8386 56.4977 36.1809 55.9501 35.2441" fill="#1969BC"/>
<path d="M45.103 37.2567C45.6538 37.2567 46.2102 37.2026 46.7687 37.095C47.2853 37.0009 47.803 36.8569 48.3218 36.6753C48.7535 36.8868 49.206 37.0441 49.6851 37.1415C50.0571 37.2177 50.4434 37.2567 50.8486 37.2567H45.103Z" fill="#1E5CB3"/>
<path d="M50.8487 37.2567C52.2086 37.2567 53.286 37.095 54.2011 36.6543C54.7431 36.9477 55.3348 37.1437 55.997 37.2224C56.0942 37.232 56.1903 37.241 56.2907 37.248H56.3084C56.3535 37.248 56.4011 37.2481 56.4497 37.2568H56.47C56.5186 37.2568 56.5672 37.2568 56.6147 37.2568H50.8448L50.8487 37.2567Z" fill="#1E5CB3"/>
<path d="M56.618 37.2568C56.671 37.2568 56.723 37.2568 56.7748 37.2568C56.7899 37.2568 56.8075 37.2568 56.8234 37.2568C56.8587 37.2568 56.8949 37.2568 56.9327 37.2568C56.9513 37.2568 56.9689 37.2567 56.9866 37.248C57.021 37.248 57.0572 37.248 57.0937 37.2392C57.1024 37.2392 57.1024 37.2392 57.1053 37.2392C57.1195 37.2392 57.1326 37.2392 57.1459 37.2392C57.1821 37.2392 57.2218 37.2304 57.2596 37.2269C57.2596 37.2269 57.2684 37.2269 57.2693 37.2269C57.2809 37.2269 57.2922 37.2181 57.3037 37.2181C57.3443 37.2094 57.3867 37.2059 57.4262 37.1995C57.4395 37.1995 57.45 37.1995 57.4641 37.1907C57.5092 37.182 57.5558 37.1773 57.6022 37.1686H57.6109C57.6197 37.1686 57.6206 37.1686 57.6243 37.1686C57.717 37.1508 57.8075 37.1331 57.8991 37.1101C58.1651 37.2086 58.4422 37.2585 58.7413 37.2585L56.6197 37.2673L56.618 37.2568Z" fill="#1D60B5"/>
<path d="M54.7454 32.4133V32.4045C54.1395 32.9858 53.5345 33.5185 52.9307 34.0001C52.615 34.2515 52.3004 34.4895 51.9825 34.7144C52.2485 35.0332 52.519 35.3322 52.8038 35.6046C53.2365 36.0253 53.699 36.3797 54.2035 36.6532C54.3183 36.5965 54.4331 36.5346 54.5445 36.4694C55.0589 36.1682 55.5203 35.7618 55.9564 35.2281C55.5049 34.4552 55.1087 33.4974 54.7477 32.4123" fill="#175FAB"/>
<path d="M72.7654 10.5334H69.902C69.8059 10.5334 69.711 10.5334 69.6172 10.5334C69.5255 10.5334 69.4372 10.5334 69.3479 10.5334H69.3373C69.1519 10.5422 68.972 10.5486 68.7943 10.56C68.7104 10.7406 68.6243 10.9211 68.5414 11.1027C65.7034 17.1661 62.723 22.4202 59.6974 26.5969C58.2745 30.9894 57.2303 33.6547 55.9498 35.2226C56.4973 36.1594 57.1342 36.8182 57.8915 37.0972C57.9136 37.0884 57.9312 37.0884 57.9511 37.0838C57.9511 37.0838 57.962 37.0838 57.9633 37.0838C57.9767 37.0838 57.9909 37.0751 58.0053 37.0751C58.0362 37.0663 58.0693 37.0608 58.1002 37.0511C58.1201 37.0424 58.1366 37.0415 58.1566 37.0351C58.1852 37.0264 58.215 37.02 58.2415 37.013C58.2592 37.0042 58.2768 37.0013 58.2945 36.9978C58.3386 36.9836 58.3784 36.973 58.4203 36.9597C58.4402 36.951 58.4612 36.9437 58.4833 36.9385C58.5076 36.9297 58.5318 36.9233 58.5539 36.9128C58.5794 36.904 58.6047 36.8994 58.6268 36.8897C58.6467 36.881 58.6676 36.8755 58.6864 36.8676C58.736 36.8498 58.7846 36.8348 58.8343 36.8153C58.8476 36.8153 58.8608 36.8031 58.8752 36.8002C58.905 36.7877 58.9359 36.7781 58.9657 36.7648C58.9766 36.756 58.99 36.7551 59.0043 36.7505C59.1081 36.7071 59.2151 36.6628 59.3222 36.6143H59.3334C59.4857 36.547 59.6403 36.4715 59.7937 36.3929C64.7136 33.6358 67.1973 24.3722 74.9199 10.5345H72.7629L72.7654 10.5334Z" fill="url(#paint14_linear_47_3651)"/>
<path d="M30.0584 11.1415C30.0707 11.1415 30.0816 11.1415 30.0937 11.1502C30.1235 11.1502 30.1533 11.1502 30.1831 11.1599C30.1943 11.1599 30.2041 11.1599 30.213 11.1599C30.267 11.1687 30.3212 11.1733 30.3763 11.1812C30.3864 11.1812 30.3951 11.1812 30.4039 11.1899C30.4491 11.1987 30.4955 11.206 30.5419 11.213C30.5519 11.213 30.5651 11.2218 30.5761 11.2218C30.6821 11.243 30.7903 11.2651 30.894 11.2926C30.9039 11.2926 30.914 11.3014 30.9228 11.3014C30.9669 11.3119 31.0066 11.3253 31.0508 11.3377C31.0641 11.3377 31.0739 11.3465 31.0861 11.3484C31.138 11.3618 31.1866 11.375 31.2374 11.3919C31.2396 11.3919 31.2426 11.3918 31.2485 11.4006C31.2915 11.4138 31.3357 11.4307 31.3809 11.4458C31.3987 11.4546 31.4151 11.4583 31.4317 11.4627C31.4627 11.4761 31.4969 11.4892 31.5267 11.5016C31.5444 11.5016 31.562 11.5139 31.5807 11.5203C31.6215 11.5389 31.6646 11.5557 31.7065 11.5735C31.7286 11.5822 31.7474 11.5921 31.7684 11.6C31.7927 11.6125 31.818 11.6239 31.8445 11.6328C31.8666 11.6433 31.8909 11.6549 31.9118 11.6647C31.935 11.6772 31.957 11.6868 31.9792 11.6992C32.5267 11.9694 33.0311 12.3293 33.4981 12.7656C33.6703 12.584 33.8502 12.4212 34.0368 12.275C33.0157 11.5486 31.8589 11.1345 30.5243 11.1345C30.3698 11.1345 30.2152 11.1433 30.0585 11.1549" fill="#7DCBEC"/>
<path d="M33.4984 12.7525C33.7843 13.0194 34.058 13.3173 34.3174 13.6384C34.568 13.4634 34.8164 13.2951 35.0658 13.1379C34.7391 12.8101 34.3947 12.5156 34.0359 12.262C33.8494 12.4071 33.6706 12.5709 33.4984 12.7525Z" fill="#5EC5ED"/>
<path d="M30.0582 11.1411C30.2149 11.1279 30.3695 11.1223 30.524 11.1223C31.8586 11.1223 33.0154 11.5364 34.0365 12.2617C35.1139 11.4091 36.4165 11.1112 38.2257 11.1112H29.4644C29.6664 11.1112 29.8639 11.1234 30.0582 11.1411Z" fill="url(#paint15_linear_47_3651)"/>
<path d="M38.2258 11.1114C36.4166 11.1114 35.114 11.4092 34.0366 12.2618C34.3943 12.5154 34.7387 12.8099 35.0654 13.1377C36.5656 12.181 38.0513 11.5476 39.5162 11.2708C40.0747 11.1656 40.6322 11.1114 41.1819 11.1114H38.2258Z" fill="url(#paint16_linear_47_3651)"/>
<path d="M59.7013 26.6054C60.4795 24.1982 61.3703 21.2762 62.4753 17.7317C63.471 14.5383 65.2338 12.151 68.5443 11.1091C68.6317 10.9307 68.7143 10.7469 68.7993 10.5664C63.4025 10.8909 60.8802 13.6447 59.6108 17.7228C57.3909 24.8427 56.0464 29.4578 54.7516 32.3988C56.4052 30.8131 58.0588 28.8665 59.7013 26.6054Z" fill="url(#paint17_linear_47_3651)"/>
<defs>
<linearGradient id="paint0_linear_47_3651" x1="40.613" y1="10.9368" x2="40.613" y2="43.7803" gradientUnits="userSpaceOnUse">
<stop stop-color="#0994DC"/>
<stop offset="0.350006" stop-color="#66CEF5"/>
<stop offset="0.846161" stop-color="#127BCA"/>
<stop offset="1" stop-color="#127BCA"/>
</linearGradient>
<linearGradient id="paint1_linear_47_3651" x1="41.8614" y1="10.1053" x2="41.8614" y2="43.7858" gradientUnits="userSpaceOnUse">
<stop stop-color="#0E76BC"/>
<stop offset="0.360001" stop-color="#36AEE8"/>
<stop offset="0.846161" stop-color="#00ADEF"/>
<stop offset="1" stop-color="#00ADEF"/>
</linearGradient>
<linearGradient id="paint2_linear_47_3651" x1="48.6096" y1="36.4997" x2="48.6096" y2="9.70064" gradientUnits="userSpaceOnUse">
<stop stop-color="#1C63B7"/>
<stop offset="0.5" stop-color="#33BDF2"/>
<stop offset="1" stop-color="#33BDF2" stop-opacity="0.419608"/>
</linearGradient>
<linearGradient id="paint3_linear_47_3651" x1="46.8536" y1="6.69292" x2="46.8536" y2="41.662" gradientUnits="userSpaceOnUse">
<stop stop-color="#166AB8"/>
<stop offset="0.399994" stop-color="#36AEE8"/>
<stop offset="0.846161" stop-color="#0798DD"/>
<stop offset="1" stop-color="#0798DD"/>
</linearGradient>
<linearGradient id="paint4_linear_47_3651" x1="44.1057" y1="6.87673" x2="44.1057" y2="44.0617" gradientUnits="userSpaceOnUse">
<stop stop-color="#124379"/>
<stop offset="0.389999" stop-color="#1487CB"/>
<stop offset="0.780228" stop-color="#165197"/>
<stop offset="1" stop-color="#165197"/>
</linearGradient>
<linearGradient id="paint5_linear_47_3651" x1="29.2171" y1="18.2916" x2="34.4582" y2="18.2916" gradientUnits="userSpaceOnUse">
<stop stop-color="#33BDF2" stop-opacity="0.698039"/>
<stop offset="1" stop-color="#1DACD8"/>
</linearGradient>
<linearGradient id="paint6_linear_47_3651" x1="68.5791" y1="35.8282" x2="68.5791" y2="9.72218" gradientUnits="userSpaceOnUse">
<stop stop-color="#136AB4"/>
<stop offset="0.6" stop-color="#59CAF5" stop-opacity="0.54902"/>
<stop offset="1" stop-color="#59CAF5" stop-opacity="0.235294"/>
</linearGradient>
<linearGradient id="paint7_linear_47_3651" x1="10.6184" y1="24.5295" x2="30.0584" y2="24.5295" gradientUnits="userSpaceOnUse">
<stop stop-color="#05A1E6" stop-opacity="0.247059"/>
<stop offset="1" stop-color="#05A1E6"/>
</linearGradient>
<linearGradient id="paint8_linear_47_3651" x1="21.3851" y1="36.4858" x2="21.3851" y2="9.75532" gradientUnits="userSpaceOnUse">
<stop stop-color="#318ED5"/>
<stop offset="1" stop-color="#38A7E4"/>
</linearGradient>
<linearGradient id="paint9_linear_47_3651" x1="23.0623" y1="36.5797" x2="23.0623" y2="10.5962" gradientUnits="userSpaceOnUse">
<stop stop-color="#05A1E6"/>
<stop offset="1" stop-color="#05A1E6" stop-opacity="0.54902"/>
</linearGradient>
<linearGradient id="paint10_linear_47_3651" x1="24.4551" y1="37.9054" x2="24.4551" y2="15.949" gradientUnits="userSpaceOnUse">
<stop stop-color="#1959A6"/>
<stop offset="0.5" stop-color="#05A1E6"/>
<stop offset="0.917587" stop-color="#7EC5EA"/>
<stop offset="1" stop-color="#7EC5EA"/>
</linearGradient>
<linearGradient id="paint11_linear_47_3651" x1="25.2937" y1="36.503" x2="21.0837" y2="12.7005" gradientUnits="userSpaceOnUse">
<stop stop-color="#165096"/>
<stop offset="1" stop-color="#0D82CA"/>
</linearGradient>
<linearGradient id="paint12_linear_47_3651" x1="64.1228" y1="23.0394" x2="64.1228" y2="10.598" gradientUnits="userSpaceOnUse">
<stop stop-color="#05A1E6"/>
<stop offset="0.873627" stop-color="#0495D6"/>
<stop offset="1" stop-color="#0495D6"/>
</linearGradient>
<linearGradient id="paint13_linear_47_3651" x1="69.9525" y1="9.44815" x2="64.8791" y2="38.1319" gradientUnits="userSpaceOnUse">
<stop stop-color="#38A7E4" stop-opacity="0.329412"/>
<stop offset="0.961533" stop-color="#0E88D3"/>
<stop offset="1" stop-color="#0E88D3"/>
</linearGradient>
<linearGradient id="paint14_linear_47_3651" x1="65.438" y1="10.4549" x2="65.438" y2="37.5971" gradientUnits="userSpaceOnUse">
<stop stop-color="#168CD4"/>
<stop offset="0.5" stop-color="#1C87CC"/>
<stop offset="1" stop-color="#154B8D"/>
</linearGradient>
<linearGradient id="paint15_linear_47_3651" x1="30.9252" y1="9.89676" x2="37.1636" y2="12.4762" gradientUnits="userSpaceOnUse">
<stop stop-color="#97D6EE"/>
<stop offset="0.703293" stop-color="#55C1EA"/>
<stop offset="1" stop-color="#55C1EA"/>
</linearGradient>
<linearGradient id="paint16_linear_47_3651" x1="34.5289" y1="13.01" x2="39.4567" y2="10.783" gradientUnits="userSpaceOnUse">
<stop stop-color="#7ACCEC"/>
<stop offset="1" stop-color="#3FB7ED"/>
</linearGradient>
<linearGradient id="paint17_linear_47_3651" x1="61.775" y1="11.9556" x2="61.775" y2="38.5034" gradientUnits="userSpaceOnUse">
<stop stop-color="#1DA7E7"/>
<stop offset="1" stop-color="#37ABE7" stop-opacity="0"/>
</linearGradient>
</defs>
</svg>
