<svg width="136" height="48" viewBox="0 0 136 48" fill="none" xmlns="http://www.w3.org/2000/svg">
<path d="M111.498 13.1191L105.962 11.8339L104.974 11.4385L79.5667 11.6362V23.8948L111.498 23.9937V13.1191Z" fill="white"/>
<path d="M101.118 22.8073C101.44 21.9541 101.33 20.9942 100.821 20.2369C100.301 19.6131 99.5541 19.2217 98.7454 19.1495L81.5438 18.9518C81.445 18.9518 81.3461 18.8529 81.2472 18.8529C81.2008 18.8183 81.1731 18.7629 81.1731 18.7046C81.1731 18.6463 81.2008 18.5909 81.2472 18.5563C81.3461 18.3586 81.445 18.2597 81.6427 18.2597L98.9431 18.062C101.176 17.8139 103.109 16.3745 103.985 14.3054L104.974 11.735C104.974 11.6361 105.072 11.5373 104.974 11.4384C103.823 6.31352 99.2338 2.63989 93.9804 2.63989C89.1788 2.63989 84.8803 5.70949 83.3233 10.2521C82.2902 9.51461 81.0297 9.16464 79.7643 9.2635C77.3808 9.52943 75.4827 11.4275 75.2168 13.8111C75.1505 14.4052 75.1842 15.0073 75.3156 15.5905C71.4324 15.6983 68.2956 18.9221 68.2966 22.8073C68.2808 23.1721 68.3134 23.5389 68.3955 23.8948C68.4043 24.0539 68.5329 24.1824 68.692 24.1913H100.426C100.624 24.1913 100.821 24.0925 100.821 23.8948L101.118 22.8073Z" fill="#F48120"/>
<path d="M106.555 11.7349H106.061C105.962 11.7349 105.863 11.8337 105.764 11.9326L105.072 14.3052C104.75 15.1584 104.861 16.1183 105.369 16.8756C105.889 17.4994 106.636 17.8909 107.445 17.963L111.103 18.1608C111.202 18.1608 111.301 18.2596 111.399 18.2596C111.446 18.2942 111.474 18.3496 111.474 18.4079C111.474 18.4662 111.446 18.5216 111.399 18.5562C111.301 18.7539 111.202 18.8528 111.004 18.8528L107.247 19.0505C105.014 19.2986 103.081 20.738 102.206 22.8072L102.008 23.6969C101.909 23.7958 102.008 23.9935 102.206 23.9935H115.255C115.267 23.9955 115.28 23.9964 115.292 23.9964C115.436 23.9964 115.555 23.8778 115.555 23.7335C115.555 23.7216 115.554 23.7088 115.552 23.6969C115.787 22.8596 115.919 21.9965 115.947 21.1265C115.914 15.9868 111.695 11.7675 106.555 11.7349Z" fill="#FAAD3F"/>
<path d="M117.232 29.5297C116.744 29.5297 116.342 29.1284 116.342 28.64C116.342 28.1516 116.744 27.7503 117.232 27.7503C117.721 27.7503 118.122 28.1516 118.122 28.64V28.644C118.122 29.1294 117.722 29.5297 117.236 29.5297C117.234 29.5297 117.233 29.5297 117.232 29.5297ZM117.232 27.948C116.853 27.948 116.54 28.2604 116.54 28.64C116.54 29.0196 116.853 29.332 117.232 29.332C117.612 29.332 117.924 29.0196 117.924 28.64C117.924 28.6341 117.924 28.6291 117.924 28.6232C117.924 28.2525 117.62 27.948 117.249 27.948C117.243 27.948 117.238 27.948 117.232 27.948ZM117.628 29.1343H117.43L117.232 28.8377H117.034V29.1343H116.837V28.2446H117.331C117.343 28.2426 117.356 28.2416 117.368 28.2416C117.512 28.2416 117.631 28.3602 117.631 28.5046C117.631 28.5164 117.63 28.5293 117.628 28.5411C117.628 28.64 117.529 28.7389 117.43 28.8377L117.628 29.1343ZM117.331 28.64C117.43 28.64 117.43 28.64 117.43 28.5411C117.43 28.5402 117.43 28.5402 117.43 28.5392C117.43 28.4858 117.386 28.4423 117.333 28.4423C117.332 28.4423 117.332 28.4423 117.331 28.4423H117.034V28.7389H117.331V28.64ZM28.6538 27.7503H30.8287V33.6819H34.5854V35.5602H28.6538V27.7503ZM36.8591 31.6058C36.8591 29.3795 38.691 27.5476 40.9173 27.5476C40.9816 27.5476 41.0459 27.5496 41.1101 27.5526C41.1694 27.5496 41.2297 27.5486 41.2891 27.5486C43.4689 27.5486 45.2632 29.3429 45.2632 31.5228C45.2632 31.5504 45.2632 31.5781 45.2622 31.6058C45.2622 33.8321 43.4304 35.664 41.204 35.664C41.1398 35.664 41.0755 35.662 41.0113 35.6591C40.9717 35.66 40.9312 35.661 40.8916 35.661C38.6791 35.661 36.8591 33.841 36.8591 31.6285C36.8591 31.6206 36.8591 31.6137 36.8591 31.6058ZM43.0873 31.6058C43.0903 31.5584 43.0923 31.5099 43.0923 31.4625C43.0923 30.3661 42.2055 29.4576 41.1101 29.4309C40.0098 29.4843 39.1329 30.4047 39.1329 31.5069C39.1329 32.6092 40.0098 33.5296 41.1101 33.583C42.2964 33.7807 43.0873 32.7921 43.0873 31.6058ZM47.9314 32.1001V27.7503H50.1064V32.1001C50.1064 33.1876 50.6995 33.7807 51.5893 33.7807C51.6278 33.7837 51.6654 33.7857 51.7039 33.7857C52.4632 33.7857 53.087 33.1609 53.087 32.4026C53.087 32.3344 53.082 32.2662 53.0722 32.199V27.7503H55.2471V32.1001C55.2471 34.6705 53.7642 35.7579 51.5893 35.7579C49.3155 35.6591 47.9314 34.5716 47.9314 32.1001ZM58.5094 27.7503H61.5741C64.3422 27.7503 66.0228 29.332 66.0228 31.6058C66.0228 33.8796 64.3422 35.5602 61.5741 35.5602H58.6083V27.7503H58.5094ZM61.5741 33.583C61.6364 33.5889 61.6997 33.5919 61.7629 33.5919C62.8524 33.5919 63.749 32.6952 63.749 31.6058C63.749 30.5164 62.8524 29.6197 61.7629 29.6197C61.6997 29.6197 61.6364 29.6227 61.5741 29.6286H60.6844V33.583H61.5741ZM69.0874 27.7503H75.3156V29.6286H71.2624V30.9138H74.9202V32.6933H71.2624V35.5602H69.0874V27.7503ZM78.3803 27.7503H80.5552V33.6819H84.3119V35.5602H78.3803V27.7503ZM89.9469 27.6514H92.1218L95.483 35.5602H93.1104L92.5172 34.1762H89.4526L88.8594 35.5602H86.5856L89.9469 27.6514ZM91.9241 32.4955L91.0343 30.3206L90.1446 32.4955H91.9241ZM98.2511 27.7503H101.909C102.852 27.6741 103.785 27.9964 104.479 28.64C104.924 29.1195 105.171 29.7502 105.171 30.4037C105.171 31.4437 104.546 32.3868 103.59 32.7921L105.468 35.5602H102.996L101.415 33.1876H100.426V35.5602H98.2511V27.7503ZM101.81 31.5069C102.502 31.5069 102.996 31.1115 102.996 30.6172C102.996 30.024 102.502 29.7275 101.81 29.7275H100.426V31.6058H101.81V31.5069ZM108.236 27.7503H114.563V29.5297H110.411V30.7161H114.168V32.4955H110.411V33.6819H114.662V35.5602H108.236V27.7503ZM23.9085 32.5944C23.604 33.3072 22.9041 33.7738 22.129 33.7807C21.0287 33.7273 20.1518 32.807 20.1518 31.7047C20.1518 30.6024 21.0287 29.682 22.129 29.6286C22.9535 29.6444 23.694 30.1506 24.0074 30.9138H26.2811C25.8808 28.9662 24.1161 27.5792 22.129 27.6514C22.0845 27.6504 22.0401 27.6494 21.9956 27.6494C19.7594 27.6494 17.9117 29.4694 17.8781 31.7047V31.7274C17.8781 33.9399 19.6981 35.7599 21.9105 35.7599C21.9501 35.7599 21.9906 35.7589 22.0302 35.7579C23.9668 35.7708 25.6811 34.4648 26.1823 32.5944H23.9085Z" fill="#404041"/>
</svg>
